<svg width="677" height="214" viewBox="0 0 677 214" fill="none" xmlns="http://www.w3.org/2000/svg">
<rect width="677" height="214" fill="#323232"/>
<path d="M58.661 104.468C61.82 104.468 64.355 103.649 66.305 102.011C68.255 100.373 69.23 98.267 69.23 95.693C69.23 92.495 67.592 90.116 64.316 88.517C63.575 88.166 62.405 87.659 60.806 86.996L57.959 85.748C56.399 84.968 55.619 84.032 55.619 82.901C55.619 81.224 57.023 80.132 59.324 80.132C61.469 80.132 64.043 81.107 65.642 82.823L68.723 78.611C66.149 75.998 62.99 74.711 59.246 74.711C56.36 74.711 53.981 75.53 52.148 77.129C50.315 78.728 49.418 80.717 49.418 83.135C49.418 86.177 50.939 88.556 53.981 90.311C54.761 90.74 55.892 91.286 57.374 91.871C58.895 92.456 59.831 92.807 60.221 93.002C61.976 93.821 62.834 94.835 62.834 96.005C62.834 97.838 61.079 99.086 58.7 99.086C55.736 99.086 52.928 97.682 51.056 95.069L47.741 99.086C50.12 102.557 54.176 104.468 58.661 104.468ZM93.7802 104L83.7572 91.442L93.2342 82.745H86.2922L78.5702 89.999V74.36H73.0712V104H78.5702V96.2L80.0132 94.913L87.0332 104H93.7802ZM110.508 85.28C108.636 83.213 106.374 82.199 103.722 82.199C100.719 82.199 98.1841 83.252 96.1951 85.358C94.2061 87.425 93.1921 90.077 93.1921 93.275C93.1921 96.473 94.1671 99.164 96.1561 101.309C98.1451 103.454 100.68 104.507 103.722 104.507C106.413 104.507 108.675 103.532 110.508 101.543V104H115.734V82.745H110.508V85.28ZM110.586 93.353C110.586 95.069 110.001 96.512 108.87 97.721C107.739 98.93 106.335 99.515 104.619 99.515C102.903 99.515 101.499 98.93 100.368 97.721C99.2371 96.512 98.6911 95.069 98.6911 93.353C98.6911 91.676 99.2371 90.233 100.329 89.024C101.46 87.815 102.864 87.23 104.619 87.23C106.335 87.23 107.739 87.815 108.87 89.024C110.001 90.233 110.586 91.676 110.586 93.353ZM134.407 98.423C133.12 99.164 131.911 99.515 130.858 99.515C128.869 99.515 127.855 98.267 127.855 95.771V87.347H134.875V82.745H127.855V75.218H122.395V82.745H118.885V87.347H122.356V96.122C122.356 101.621 124.891 104.507 129.766 104.507C132.223 104.507 134.29 103.922 136.045 102.752L134.407 98.423ZM158.981 92.885C158.981 89.57 157.967 86.996 155.978 85.085C153.989 83.174 151.415 82.199 148.334 82.199C145.058 82.199 142.406 83.252 140.339 85.358C138.272 87.464 137.258 90.116 137.258 93.353C137.258 96.434 138.233 99.086 140.222 101.231C142.211 103.376 145.058 104.468 148.802 104.468C152.312 104.468 155.393 103.493 158.084 101.543L155.9 97.682C154.067 98.93 151.337 99.827 149.036 99.827C145.682 99.827 143.615 98.306 142.835 95.303H158.786C158.903 94.445 158.981 93.626 158.981 92.885ZM148.334 86.762C151.142 86.762 153.131 88.439 153.638 91.208H142.835C143.498 88.439 145.565 86.762 148.334 86.762ZM173.101 75.179V104H178.873V94.055H183.319C186.868 94.055 189.52 93.158 191.275 91.403C193.03 89.609 193.927 87.386 193.927 84.695C193.927 82.043 193.069 79.781 191.353 77.948C189.676 76.115 187.141 75.179 183.748 75.179H173.101ZM178.873 88.829V80.522H183.826C186.439 80.522 188.038 82.316 188.038 84.617C188.038 86.957 186.478 88.829 183.514 88.829H178.873ZM213.112 85.28C211.24 83.213 208.978 82.199 206.326 82.199C203.323 82.199 200.788 83.252 198.799 85.358C196.81 87.425 195.796 90.077 195.796 93.275C195.796 96.473 196.771 99.164 198.76 101.309C200.749 103.454 203.284 104.507 206.326 104.507C209.017 104.507 211.279 103.532 213.112 101.543V104H218.338V82.745H213.112V85.28ZM213.19 93.353C213.19 95.069 212.605 96.512 211.474 97.721C210.343 98.93 208.939 99.515 207.223 99.515C205.507 99.515 204.103 98.93 202.972 97.721C201.841 96.512 201.295 95.069 201.295 93.353C201.295 91.676 201.841 90.233 202.933 89.024C204.064 87.815 205.468 87.23 207.223 87.23C208.939 87.23 210.343 87.815 211.474 89.024C212.605 90.233 213.19 91.676 213.19 93.353ZM228.781 104V93.899C228.781 89.492 230.848 87.464 233.968 87.464C234.748 87.464 235.606 87.62 236.503 87.893L236.971 82.628C236.113 82.316 235.255 82.16 234.397 82.16C231.784 82.16 229.834 83.291 228.547 85.592V82.745H223.282V104H228.781ZM260.406 104L250.383 91.442L259.86 82.745H252.918L245.196 89.999V74.36H239.697V104H245.196V96.2L246.639 94.913L253.659 104H260.406Z" fill="#5C3F3F"/>
<path d="M47.116 135.673L48.711 137.674L52.597 134.426V152H55.468V130.569H53.177L47.116 135.673ZM70.9776 152V142.401H81.7366V152H84.6366V130.569H81.7366V139.617H70.9776V130.569H68.0486V152H70.9776ZM96.5535 152.377C98.9025 152.377 100.846 151.594 102.383 150.028C103.92 148.433 104.703 146.49 104.703 144.199C104.703 141.937 103.92 140.023 102.383 138.428C100.846 136.833 98.9025 136.05 96.5535 136.05C94.1755 136.05 92.2035 136.833 90.6665 138.428C89.1295 139.994 88.3755 141.908 88.3755 144.199C88.3755 146.49 89.1295 148.433 90.6665 150.028C92.2035 151.594 94.1755 152.377 96.5535 152.377ZM101.919 144.199C101.919 145.736 101.397 147.07 100.353 148.172C99.3085 149.274 98.0325 149.825 96.5535 149.825C95.0745 149.825 93.7985 149.274 92.7545 148.172C91.7105 147.07 91.1885 145.736 91.1885 144.199C91.1885 142.662 91.7105 141.357 92.7545 140.284C93.7985 139.182 95.0745 138.631 96.5535 138.631C98.0325 138.631 99.3085 139.182 100.353 140.284C101.397 141.357 101.919 142.662 101.919 144.199ZM114.491 152.377C118.638 152.377 121.161 149.883 121.161 145.736V136.456H118.406V145.649C118.406 148.201 116.956 149.796 114.491 149.796C112.055 149.796 110.605 148.201 110.605 145.649V136.456H107.821V145.736C107.821 149.796 110.431 152.377 114.491 152.377ZM128.055 152V143.764C128.055 140.429 129.853 138.718 132.318 138.718C132.84 138.718 133.391 138.805 133.942 138.979L134.203 136.282C133.594 136.137 132.985 136.05 132.376 136.05C130.317 136.05 128.809 136.949 127.91 138.747V136.456H125.271V152H128.055ZM147.208 152.348C148.861 152.348 150.195 151.884 151.239 150.985C152.283 150.086 152.805 148.955 152.805 147.621C152.805 145.91 151.935 144.605 150.166 143.706C149.702 143.445 149.006 143.126 148.078 142.749L146.367 141.995C145.497 141.589 145.062 140.98 145.062 140.168C145.062 139.124 145.903 138.283 147.295 138.283C148.687 138.283 149.789 138.892 150.63 140.081L152.399 138.399C151.355 136.775 149.441 135.934 147.469 135.934C145.932 135.934 144.714 136.34 143.786 137.181C142.858 137.993 142.394 139.037 142.394 140.284C142.394 141.937 143.177 143.184 144.772 144.054C145.091 144.228 145.729 144.518 146.686 144.924C147.643 145.33 148.31 145.62 148.629 145.794C149.586 146.287 150.05 146.954 150.05 147.766C150.05 148.955 148.948 149.912 147.295 149.912C145.874 149.912 144.337 149.1 143.438 147.447L141.437 148.984C142.626 151.217 144.888 152.348 147.208 152.348ZM170.469 143.938C170.469 141.531 169.773 139.617 168.352 138.196C166.96 136.775 165.162 136.079 162.958 136.079C160.638 136.079 158.753 136.833 157.274 138.37C155.824 139.907 155.099 141.821 155.099 144.17C155.099 148.201 157.535 152.348 163.393 152.348C165.974 152.348 168.526 151.362 170.063 150.173L168.874 148.056C167.453 149.1 165.307 149.796 163.451 149.796C160.203 149.796 158.463 147.998 157.999 145.359H170.382C170.44 144.605 170.469 144.141 170.469 143.938ZM157.999 142.952C158.463 140.371 160.406 138.544 162.958 138.544C165.51 138.544 167.453 140.255 167.598 142.952H157.999ZM178.105 152.348C179.758 152.348 181.092 151.884 182.136 150.985C183.18 150.086 183.702 148.955 183.702 147.621C183.702 145.91 182.832 144.605 181.063 143.706C180.599 143.445 179.903 143.126 178.975 142.749L177.264 141.995C176.394 141.589 175.959 140.98 175.959 140.168C175.959 139.124 176.8 138.283 178.192 138.283C179.584 138.283 180.686 138.892 181.527 140.081L183.296 138.399C182.252 136.775 180.338 135.934 178.366 135.934C176.829 135.934 175.611 136.34 174.683 137.181C173.755 137.993 173.291 139.037 173.291 140.284C173.291 141.937 174.074 143.184 175.669 144.054C175.988 144.228 176.626 144.518 177.583 144.924C178.54 145.33 179.207 145.62 179.526 145.794C180.483 146.287 180.947 146.954 180.947 147.766C180.947 148.955 179.845 149.912 178.192 149.912C176.771 149.912 175.234 149.1 174.335 147.447L172.334 148.984C173.523 151.217 175.785 152.348 178.105 152.348ZM191.246 152.348C192.899 152.348 194.233 151.884 195.277 150.985C196.321 150.086 196.843 148.955 196.843 147.621C196.843 145.91 195.973 144.605 194.204 143.706C193.74 143.445 193.044 143.126 192.116 142.749L190.405 141.995C189.535 141.589 189.1 140.98 189.1 140.168C189.1 139.124 189.941 138.283 191.333 138.283C192.725 138.283 193.827 138.892 194.668 140.081L196.437 138.399C195.393 136.775 193.479 135.934 191.507 135.934C189.97 135.934 188.752 136.34 187.824 137.181C186.896 137.993 186.432 139.037 186.432 140.284C186.432 141.937 187.215 143.184 188.81 144.054C189.129 144.228 189.767 144.518 190.724 144.924C191.681 145.33 192.348 145.62 192.667 145.794C193.624 146.287 194.088 146.954 194.088 147.766C194.088 148.955 192.986 149.912 191.333 149.912C189.912 149.912 188.375 149.1 187.476 147.447L185.475 148.984C186.664 151.217 188.926 152.348 191.246 152.348ZM201.515 134.252C202.588 134.252 203.487 133.411 203.487 132.251C203.487 131.178 202.588 130.308 201.515 130.308C200.355 130.308 199.485 131.12 199.485 132.251C199.485 133.411 200.355 134.252 201.515 134.252ZM202.849 136.456H200.065V152H202.849V136.456ZM214.394 152.377C216.743 152.377 218.686 151.594 220.223 150.028C221.76 148.433 222.543 146.49 222.543 144.199C222.543 141.937 221.76 140.023 220.223 138.428C218.686 136.833 216.743 136.05 214.394 136.05C212.016 136.05 210.044 136.833 208.507 138.428C206.97 139.994 206.216 141.908 206.216 144.199C206.216 146.49 206.97 148.433 208.507 150.028C210.044 151.594 212.016 152.377 214.394 152.377ZM219.759 144.199C219.759 145.736 219.237 147.07 218.193 148.172C217.149 149.274 215.873 149.825 214.394 149.825C212.915 149.825 211.639 149.274 210.595 148.172C209.551 147.07 209.029 145.736 209.029 144.199C209.029 142.662 209.551 141.357 210.595 140.284C211.639 139.182 212.915 138.631 214.394 138.631C215.873 138.631 217.149 139.182 218.193 140.284C219.237 141.357 219.759 142.662 219.759 144.199ZM228.649 152V143.387C228.649 141.995 229.055 140.864 229.838 139.965C230.65 139.066 231.694 138.631 232.941 138.631C235.29 138.631 236.914 140.342 236.914 143.358V152H239.669V142.575C239.669 140.458 239.089 138.863 237.9 137.732C236.711 136.601 235.261 136.05 233.521 136.05C231.23 136.05 229.577 136.92 228.591 138.66V136.456H225.865V152H228.649Z" fill="#5C3F3F"/>
<line x1="300" y1="114" x2="328" y2="114" stroke="#5C3F3F" stroke-width="6"/>
<path d="M403.458 111.128C403.458 110.3 403.458 109.679 403.389 109.334H417.12V101.606H401.457C400.629 99.191 400.215 97.328 400.215 95.879C400.215 91.739 403.251 88.703 407.46 88.703C410.496 88.703 413.532 90.497 415.257 93.257L421.881 87.185C418.914 82.286 413.049 79.043 406.425 79.112C401.94 79.181 398.076 80.63 394.833 83.528C391.59 86.357 390.003 89.945 390.003 94.292C390.003 96.155 390.417 98.639 391.314 101.606H387.381V109.334H393.453C393.522 109.679 393.522 110.093 393.522 110.714C393.522 114.854 391.383 119.546 387.726 123.065V131H421.605V121.616H398.973C401.871 118.58 403.389 115.061 403.458 111.128ZM426.013 89.393H447.886L430.36 131H441.055L459.271 87.047V80.009H426.013V89.393ZM464.725 132.104C467.761 132.104 470.245 129.689 470.245 126.446C470.245 123.341 467.761 120.926 464.725 120.926C461.482 120.926 458.998 123.341 458.998 126.446C458.998 129.689 461.482 132.104 464.725 132.104ZM494.122 98.156C491.707 98.156 489.43 98.57 487.291 99.398L488.395 89.393H507.784V80.009H480.805L478.045 105.539L483.979 110.3C486.394 108.023 489.154 106.919 492.397 106.919C497.365 106.919 501.022 110.162 501.022 114.578C501.022 118.994 497.503 122.444 491.776 122.444C487.705 122.444 483.565 120.995 479.218 118.028L475.147 126.17C480.391 129.965 486.118 131.828 492.259 131.828C497.986 131.828 502.54 130.172 506.059 126.929C509.578 123.686 511.303 119.546 511.303 114.578C511.303 109.679 509.647 105.746 506.335 102.71C503.023 99.674 498.952 98.156 494.122 98.156ZM537.515 131.828C551.729 131.828 558.146 119.546 558.146 105.47C558.146 91.394 551.729 79.112 537.515 79.112C528.407 79.112 521.852 84.632 519.023 92.36C517.574 96.224 516.884 100.571 516.884 105.47C516.884 115.199 519.575 123.134 525.923 128.102C529.097 130.586 532.961 131.828 537.515 131.828ZM548.003 105.47C548.003 115.406 544.484 122.237 537.515 122.237C530.546 122.237 527.096 115.406 527.096 105.47C527.096 100.571 527.993 96.5 529.718 93.395C531.443 90.29 534.065 88.703 537.515 88.703C541.034 88.703 543.656 90.29 545.381 93.395C547.106 96.5 548.003 100.571 548.003 105.47Z" fill="#5C3F3F"/>
</svg>
