<svg width="701" height="214" viewBox="0 0 701 214" fill="none" xmlns="http://www.w3.org/2000/svg">
<rect width="701" height="214" fill="#323232"/>
<path d="M63.38 104.429C68.723 104.429 73.442 101.933 76.094 98.306L72.116 94.679C69.893 97.487 67.085 98.891 63.731 98.891C61.118 98.891 58.934 98.033 57.179 96.278C55.424 94.523 54.566 92.339 54.566 89.687C54.566 86.957 55.463 84.695 57.218 82.94C58.973 81.146 61.157 80.249 63.77 80.249C67.007 80.249 69.737 81.653 71.999 84.422L75.86 80.639C73.325 77.051 68.645 74.672 63.458 74.672C59.324 74.672 55.814 76.076 52.889 78.923C50.003 81.731 48.56 85.319 48.56 89.687C48.56 94.016 49.964 97.565 52.811 100.334C55.658 103.064 59.207 104.429 63.38 104.429ZM84.8163 74.36H79.3173V104H84.8163V74.36ZM95.0178 79.391C96.3048 78.104 96.3048 75.842 95.0178 74.594C93.7308 73.307 91.4688 73.307 90.1818 74.594C88.8948 75.842 88.8948 78.104 90.1818 79.391C91.4688 80.678 93.7308 80.678 95.0178 79.391ZM95.3298 82.745H89.8308V104H95.3298V82.745ZM125.927 82.16C122.768 82.16 119.882 83.564 118.322 85.904C117.191 83.447 114.734 82.16 112.082 82.16C109.313 82.121 106.817 83.564 105.608 85.787V82.745H100.226V104H105.725V92.378C105.725 89.219 107.675 87.23 110.366 87.23C112.979 87.23 114.656 89.063 114.656 92.222V104H120.155V92.339C120.155 89.219 122.066 87.23 124.835 87.23C127.37 87.23 129.086 88.946 129.086 92.183V104H134.585V91.169C134.585 88.322 133.766 86.138 132.128 84.539C130.529 82.94 128.462 82.16 125.927 82.16ZM151.276 82.199C148.702 82.199 146.557 83.213 144.802 85.202V74.36H139.303V104H144.646V101.348C146.401 103.454 148.585 104.507 151.276 104.507C154.279 104.507 156.814 103.454 158.842 101.348C160.87 99.203 161.884 96.551 161.884 93.392C161.884 90.233 160.87 87.581 158.842 85.436C156.814 83.291 154.279 82.199 151.276 82.199ZM144.568 93.353C144.568 91.676 145.114 90.233 146.206 89.063C147.298 87.854 148.702 87.269 150.418 87.269C152.134 87.269 153.538 87.854 154.63 89.024C155.722 90.194 156.268 91.637 156.268 93.353C156.268 95.069 155.722 96.512 154.63 97.721C153.538 98.891 152.134 99.476 150.418 99.476C148.702 99.476 147.298 98.891 146.206 97.721C145.114 96.512 144.568 95.069 144.568 93.353ZM170.999 79.391C172.286 78.104 172.286 75.842 170.999 74.594C169.712 73.307 167.45 73.307 166.163 74.594C164.876 75.842 164.876 78.104 166.163 79.391C167.45 80.678 169.712 80.678 170.999 79.391ZM171.311 82.745H165.812V104H171.311V82.745ZM181.707 104V92.612C181.707 89.453 183.657 87.23 186.582 87.23C189.273 87.23 191.067 89.102 191.067 92.495V104H196.566V91.013C196.566 88.166 195.747 85.982 194.148 84.461C192.549 82.94 190.56 82.16 188.259 82.16C185.256 82.16 182.721 83.642 181.59 85.709V82.745H176.208V104H181.707ZM217.531 85.085C215.776 83.174 213.592 82.199 210.979 82.199C207.898 82.199 205.324 83.252 203.257 85.319C201.19 87.386 200.137 89.999 200.137 93.158C200.137 96.317 201.112 98.891 203.101 100.958C205.09 103.025 207.625 104.039 210.745 104.039C213.475 104.039 215.659 103.142 217.297 101.309V102.401C217.297 105.833 214.879 108.29 210.667 108.29C208.171 108.29 205.675 107.471 203.218 105.794L201.073 109.928C203.92 111.995 207.196 113.009 210.823 113.009C214.294 113.009 217.141 111.995 219.325 110.006C221.509 108.017 222.601 105.287 222.601 101.894V82.745H217.531V85.085ZM205.675 93.197C205.675 91.481 206.221 90.077 207.352 88.946C208.483 87.815 209.887 87.23 211.564 87.23C213.241 87.23 214.645 87.815 215.776 88.946C216.907 90.077 217.453 91.481 217.453 93.197C217.453 94.913 216.907 96.356 215.776 97.526C214.645 98.657 213.241 99.242 211.564 99.242C209.887 99.242 208.483 98.657 207.352 97.526C206.221 96.395 205.675 94.952 205.675 93.197ZM248.552 104L254.675 85.124L260.798 104H265.673L275.189 75.179H268.871L263.138 94.562L256.469 75.179H252.803L246.251 94.562L240.44 75.179H234.122L243.677 104H248.552ZM292.026 85.28C290.154 83.213 287.892 82.199 285.24 82.199C282.237 82.199 279.702 83.252 277.713 85.358C275.724 87.425 274.71 90.077 274.71 93.275C274.71 96.473 275.685 99.164 277.674 101.309C279.663 103.454 282.198 104.507 285.24 104.507C287.931 104.507 290.193 103.532 292.026 101.543V104H297.252V82.745H292.026V85.28ZM292.104 93.353C292.104 95.069 291.519 96.512 290.388 97.721C289.257 98.93 287.853 99.515 286.137 99.515C284.421 99.515 283.017 98.93 281.886 97.721C280.755 96.512 280.209 95.069 280.209 93.353C280.209 91.676 280.755 90.233 281.847 89.024C282.978 87.815 284.382 87.23 286.137 87.23C287.853 87.23 289.257 87.815 290.388 89.024C291.519 90.233 292.104 91.676 292.104 93.353ZM307.695 74.36H302.196V104H307.695V74.36ZM318.131 74.36H312.632V104H318.131V74.36Z" fill="#5C3F3F"/>
<path d="M58.513 142.749C60.514 140.545 61.5 138.515 61.5 136.63C61.5 134.687 60.891 133.15 59.644 131.961C58.397 130.772 56.802 130.192 54.859 130.192C52.365 130.192 50.074 131.207 48.015 133.237L49.61 135.296C51.292 133.672 53.032 132.86 54.801 132.86C57.005 132.86 58.687 134.368 58.687 136.485C58.687 138.341 57.585 139.82 55.265 142.227L48.392 149.593V152H61.761V149.332H52.539L58.513 142.749ZM75.9903 152V142.401H86.7493V152H89.6493V130.569H86.7493V139.617H75.9903V130.569H73.0613V152H75.9903ZM101.566 152.377C103.915 152.377 105.858 151.594 107.395 150.028C108.932 148.433 109.715 146.49 109.715 144.199C109.715 141.937 108.932 140.023 107.395 138.428C105.858 136.833 103.915 136.05 101.566 136.05C99.1882 136.05 97.2162 136.833 95.6792 138.428C94.1422 139.994 93.3882 141.908 93.3882 144.199C93.3882 146.49 94.1422 148.433 95.6792 150.028C97.2162 151.594 99.1882 152.377 101.566 152.377ZM106.931 144.199C106.931 145.736 106.409 147.07 105.365 148.172C104.321 149.274 103.045 149.825 101.566 149.825C100.087 149.825 98.8112 149.274 97.7672 148.172C96.7232 147.07 96.2012 145.736 96.2012 144.199C96.2012 142.662 96.7232 141.357 97.7672 140.284C98.8112 139.182 100.087 138.631 101.566 138.631C103.045 138.631 104.321 139.182 105.365 140.284C106.409 141.357 106.931 142.662 106.931 144.199ZM119.504 152.377C123.651 152.377 126.174 149.883 126.174 145.736V136.456H123.419V145.649C123.419 148.201 121.969 149.796 119.504 149.796C117.068 149.796 115.618 148.201 115.618 145.649V136.456H112.834V145.736C112.834 149.796 115.444 152.377 119.504 152.377ZM133.068 152V143.764C133.068 140.429 134.866 138.718 137.331 138.718C137.853 138.718 138.404 138.805 138.955 138.979L139.216 136.282C138.607 136.137 137.998 136.05 137.389 136.05C135.33 136.05 133.822 136.949 132.923 138.747V136.456H130.284V152H133.068ZM152.221 152.348C153.874 152.348 155.208 151.884 156.252 150.985C157.296 150.086 157.818 148.955 157.818 147.621C157.818 145.91 156.948 144.605 155.179 143.706C154.715 143.445 154.019 143.126 153.091 142.749L151.38 141.995C150.51 141.589 150.075 140.98 150.075 140.168C150.075 139.124 150.916 138.283 152.308 138.283C153.7 138.283 154.802 138.892 155.643 140.081L157.412 138.399C156.368 136.775 154.454 135.934 152.482 135.934C150.945 135.934 149.727 136.34 148.799 137.181C147.871 137.993 147.407 139.037 147.407 140.284C147.407 141.937 148.19 143.184 149.785 144.054C150.104 144.228 150.742 144.518 151.699 144.924C152.656 145.33 153.323 145.62 153.642 145.794C154.599 146.287 155.063 146.954 155.063 147.766C155.063 148.955 153.961 149.912 152.308 149.912C150.887 149.912 149.35 149.1 148.451 147.447L146.45 148.984C147.639 151.217 149.901 152.348 152.221 152.348ZM175.482 143.938C175.482 141.531 174.786 139.617 173.365 138.196C171.973 136.775 170.175 136.079 167.971 136.079C165.651 136.079 163.766 136.833 162.287 138.37C160.837 139.907 160.112 141.821 160.112 144.17C160.112 148.201 162.548 152.348 168.406 152.348C170.987 152.348 173.539 151.362 175.076 150.173L173.887 148.056C172.466 149.1 170.32 149.796 168.464 149.796C165.216 149.796 163.476 147.998 163.012 145.359H175.395C175.453 144.605 175.482 144.141 175.482 143.938ZM163.012 142.952C163.476 140.371 165.419 138.544 167.971 138.544C170.523 138.544 172.466 140.255 172.611 142.952H163.012ZM183.118 152.348C184.771 152.348 186.105 151.884 187.149 150.985C188.193 150.086 188.715 148.955 188.715 147.621C188.715 145.91 187.845 144.605 186.076 143.706C185.612 143.445 184.916 143.126 183.988 142.749L182.277 141.995C181.407 141.589 180.972 140.98 180.972 140.168C180.972 139.124 181.813 138.283 183.205 138.283C184.597 138.283 185.699 138.892 186.54 140.081L188.309 138.399C187.265 136.775 185.351 135.934 183.379 135.934C181.842 135.934 180.624 136.34 179.696 137.181C178.768 137.993 178.304 139.037 178.304 140.284C178.304 141.937 179.087 143.184 180.682 144.054C181.001 144.228 181.639 144.518 182.596 144.924C183.553 145.33 184.22 145.62 184.539 145.794C185.496 146.287 185.96 146.954 185.96 147.766C185.96 148.955 184.858 149.912 183.205 149.912C181.784 149.912 180.247 149.1 179.348 147.447L177.347 148.984C178.536 151.217 180.798 152.348 183.118 152.348ZM196.259 152.348C197.912 152.348 199.246 151.884 200.29 150.985C201.334 150.086 201.856 148.955 201.856 147.621C201.856 145.91 200.986 144.605 199.217 143.706C198.753 143.445 198.057 143.126 197.129 142.749L195.418 141.995C194.548 141.589 194.113 140.98 194.113 140.168C194.113 139.124 194.954 138.283 196.346 138.283C197.738 138.283 198.84 138.892 199.681 140.081L201.45 138.399C200.406 136.775 198.492 135.934 196.52 135.934C194.983 135.934 193.765 136.34 192.837 137.181C191.909 137.993 191.445 139.037 191.445 140.284C191.445 141.937 192.228 143.184 193.823 144.054C194.142 144.228 194.78 144.518 195.737 144.924C196.694 145.33 197.361 145.62 197.68 145.794C198.637 146.287 199.101 146.954 199.101 147.766C199.101 148.955 197.999 149.912 196.346 149.912C194.925 149.912 193.388 149.1 192.489 147.447L190.488 148.984C191.677 151.217 193.939 152.348 196.259 152.348ZM206.528 134.252C207.601 134.252 208.5 133.411 208.5 132.251C208.5 131.178 207.601 130.308 206.528 130.308C205.368 130.308 204.498 131.12 204.498 132.251C204.498 133.411 205.368 134.252 206.528 134.252ZM207.862 136.456H205.078V152H207.862V136.456ZM219.407 152.377C221.756 152.377 223.699 151.594 225.236 150.028C226.773 148.433 227.556 146.49 227.556 144.199C227.556 141.937 226.773 140.023 225.236 138.428C223.699 136.833 221.756 136.05 219.407 136.05C217.029 136.05 215.057 136.833 213.52 138.428C211.983 139.994 211.229 141.908 211.229 144.199C211.229 146.49 211.983 148.433 213.52 150.028C215.057 151.594 217.029 152.377 219.407 152.377ZM224.772 144.199C224.772 145.736 224.25 147.07 223.206 148.172C222.162 149.274 220.886 149.825 219.407 149.825C217.928 149.825 216.652 149.274 215.608 148.172C214.564 147.07 214.042 145.736 214.042 144.199C214.042 142.662 214.564 141.357 215.608 140.284C216.652 139.182 217.928 138.631 219.407 138.631C220.886 138.631 222.162 139.182 223.206 140.284C224.25 141.357 224.772 142.662 224.772 144.199ZM233.661 152V143.387C233.661 141.995 234.067 140.864 234.85 139.965C235.662 139.066 236.706 138.631 237.953 138.631C240.302 138.631 241.926 140.342 241.926 143.358V152H244.681V142.575C244.681 140.458 244.101 138.863 242.912 137.732C241.723 136.601 240.273 136.05 238.533 136.05C236.242 136.05 234.589 136.92 233.603 138.66V136.456H230.877V152H233.661Z" fill="#5C3F3F"/>
<line x1="354" y1="114" x2="382" y2="114" stroke="#5C3F3F" stroke-width="6"/>
<path d="M437.458 111.128C437.458 110.3 437.458 109.679 437.389 109.334H451.12V101.606H435.457C434.629 99.191 434.215 97.328 434.215 95.879C434.215 91.739 437.251 88.703 441.46 88.703C444.496 88.703 447.532 90.497 449.257 93.257L455.881 87.185C452.914 82.286 447.049 79.043 440.425 79.112C435.94 79.181 432.076 80.63 428.833 83.528C425.59 86.357 424.003 89.945 424.003 94.292C424.003 96.155 424.417 98.639 425.314 101.606H421.381V109.334H427.453C427.522 109.679 427.522 110.093 427.522 110.714C427.522 114.854 425.383 119.546 421.726 123.065V131H455.605V121.616H432.973C435.871 118.58 437.389 115.061 437.458 111.128ZM458.357 92.567L463.601 99.812L471.743 93.533V131H481.748V80.009H474.158L458.357 92.567ZM511.14 131.828C525.354 131.828 531.771 119.546 531.771 105.47C531.771 91.394 525.354 79.112 511.14 79.112C502.032 79.112 495.477 84.632 492.648 92.36C491.199 96.224 490.509 100.571 490.509 105.47C490.509 115.199 493.2 123.134 499.548 128.102C502.722 130.586 506.586 131.828 511.14 131.828ZM521.628 105.47C521.628 115.406 518.109 122.237 511.14 122.237C504.171 122.237 500.721 115.406 500.721 105.47C500.721 100.571 501.618 96.5 503.343 93.395C505.068 90.29 507.69 88.703 511.14 88.703C514.659 88.703 517.281 90.29 519.006 93.395C520.731 96.5 521.628 100.571 521.628 105.47ZM542.658 132.104C545.694 132.104 548.178 129.689 548.178 126.446C548.178 123.341 545.694 120.926 542.658 120.926C539.415 120.926 536.931 123.341 536.931 126.446C536.931 129.689 539.415 132.104 542.658 132.104ZM574.008 131.828C588.222 131.828 594.639 119.546 594.639 105.47C594.639 91.394 588.222 79.112 574.008 79.112C564.9 79.112 558.345 84.632 555.516 92.36C554.067 96.224 553.377 100.571 553.377 105.47C553.377 115.199 556.068 123.134 562.416 128.102C565.59 130.586 569.454 131.828 574.008 131.828ZM584.496 105.47C584.496 115.406 580.977 122.237 574.008 122.237C567.039 122.237 563.589 115.406 563.589 105.47C563.589 100.571 564.486 96.5 566.211 93.395C567.936 90.29 570.558 88.703 574.008 88.703C577.527 88.703 580.149 90.29 581.874 93.395C583.599 96.5 584.496 100.571 584.496 105.47ZM621.513 131.828C635.727 131.828 642.144 119.546 642.144 105.47C642.144 91.394 635.727 79.112 621.513 79.112C612.405 79.112 605.85 84.632 603.021 92.36C601.572 96.224 600.882 100.571 600.882 105.47C600.882 115.199 603.573 123.134 609.921 128.102C613.095 130.586 616.959 131.828 621.513 131.828ZM632.001 105.47C632.001 115.406 628.482 122.237 621.513 122.237C614.544 122.237 611.094 115.406 611.094 105.47C611.094 100.571 611.991 96.5 613.716 93.395C615.441 90.29 618.063 88.703 621.513 88.703C625.032 88.703 627.654 90.29 629.379 93.395C631.104 96.5 632.001 100.571 632.001 105.47Z" fill="#5C3F3F"/>
</svg>
