<svg width="677" height="214" viewBox="0 0 677 214" fill="none" xmlns="http://www.w3.org/2000/svg">
<rect width="677" height="214" fill="#323232"/>
<path d="M67.007 88.205C69.347 87.386 70.946 84.89 70.946 82.355C70.946 80.444 70.205 78.767 68.762 77.324C67.319 75.881 65.33 75.179 62.756 75.179H50.198V104H63.341C66.11 104 68.333 103.181 69.971 101.582C71.648 99.983 72.467 97.994 72.467 95.615C72.467 92.066 70.556 89.102 67.007 88.205ZM61.781 80.21C63.926 80.21 65.213 81.575 65.213 83.252C65.213 84.968 63.926 86.489 61.547 86.489H55.892V80.21H61.781ZM55.892 98.93V91.325H62.21C65.018 91.325 66.5 93.08 66.5 95.147C66.5 97.175 64.979 98.93 62.21 98.93H55.892ZM75.3679 93.353C75.3679 96.512 76.4209 99.164 78.5659 101.309C80.7109 103.454 83.4409 104.546 86.7559 104.546C90.0709 104.546 92.8009 103.454 94.9459 101.309C97.0909 99.164 98.1439 96.512 98.1439 93.353C98.1439 90.233 97.0909 87.581 94.9459 85.436C92.8009 83.252 90.0709 82.16 86.7559 82.16C83.4409 82.16 80.7109 83.252 78.5659 85.436C76.4209 87.581 75.3679 90.233 75.3679 93.353ZM82.5439 97.682C81.4129 96.473 80.8669 95.03 80.8669 93.353C80.8669 91.676 81.4129 90.233 82.5439 89.063C83.6749 87.893 85.0789 87.308 86.7559 87.308C88.4329 87.308 89.7979 87.893 90.9289 89.063C92.0599 90.233 92.6449 91.676 92.6449 93.353C92.6449 95.03 92.0599 96.473 90.9289 97.682C89.7979 98.852 88.4329 99.437 86.7559 99.437C85.0789 99.437 83.6749 98.852 82.5439 97.682ZM111.494 104.507C117.578 104.507 121.244 100.997 121.244 95.03V82.745H115.745V95.03C115.745 97.721 114.146 99.476 111.494 99.476C108.842 99.476 107.243 97.721 107.243 95.03V82.745H101.744V95.03C101.744 100.997 105.449 104.507 111.494 104.507ZM131.472 74.36H125.973V104H131.472V74.36ZM152.281 85.202C150.526 83.213 148.381 82.199 145.807 82.199C142.804 82.199 140.308 83.252 138.28 85.397C136.291 87.542 135.277 90.194 135.277 93.353C135.277 96.551 136.291 99.203 138.28 101.348C140.269 103.454 142.804 104.507 145.807 104.507C148.498 104.507 150.682 103.454 152.398 101.387V104H157.78V74.36H152.281V85.202ZM152.554 93.353C152.554 95.108 152.008 96.551 150.916 97.76C149.824 98.93 148.42 99.515 146.665 99.515C144.91 99.515 143.506 98.93 142.375 97.76C141.283 96.551 140.737 95.108 140.737 93.353C140.737 91.637 141.283 90.194 142.375 89.024C143.506 87.815 144.91 87.23 146.665 87.23C148.42 87.23 149.824 87.815 150.916 89.024C152.008 90.194 152.554 91.637 152.554 93.353ZM183.395 92.885C183.395 89.57 182.381 86.996 180.392 85.085C178.403 83.174 175.829 82.199 172.748 82.199C169.472 82.199 166.82 83.252 164.753 85.358C162.686 87.464 161.672 90.116 161.672 93.353C161.672 96.434 162.647 99.086 164.636 101.231C166.625 103.376 169.472 104.468 173.216 104.468C176.726 104.468 179.807 103.493 182.498 101.543L180.314 97.682C178.481 98.93 175.751 99.827 173.45 99.827C170.096 99.827 168.029 98.306 167.249 95.303H183.2C183.317 94.445 183.395 93.626 183.395 92.885ZM172.748 86.762C175.556 86.762 177.545 88.439 178.052 91.208H167.249C167.912 88.439 169.979 86.762 172.748 86.762ZM192.676 104V93.899C192.676 89.492 194.743 87.464 197.863 87.464C198.643 87.464 199.501 87.62 200.398 87.893L200.866 82.628C200.008 82.316 199.15 82.16 198.292 82.16C195.679 82.16 193.729 83.291 192.442 85.592V82.745H187.177V104H192.676ZM208.857 79.391C210.144 78.104 210.144 75.842 208.857 74.594C207.57 73.307 205.308 73.307 204.021 74.594C202.734 75.842 202.734 78.104 204.021 79.391C205.308 80.678 207.57 80.678 208.857 79.391ZM209.169 82.745H203.67V104H209.169V82.745ZM219.564 104V92.612C219.564 89.453 221.514 87.23 224.439 87.23C227.13 87.23 228.924 89.102 228.924 92.495V104H234.423V91.013C234.423 88.166 233.604 85.982 232.005 84.461C230.406 82.94 228.417 82.16 226.116 82.16C223.113 82.16 220.578 83.642 219.447 85.709V82.745H214.065V104H219.564ZM255.389 85.085C253.634 83.174 251.45 82.199 248.837 82.199C245.756 82.199 243.182 83.252 241.115 85.319C239.048 87.386 237.995 89.999 237.995 93.158C237.995 96.317 238.97 98.891 240.959 100.958C242.948 103.025 245.483 104.039 248.603 104.039C251.333 104.039 253.517 103.142 255.155 101.309V102.401C255.155 105.833 252.737 108.29 248.525 108.29C246.029 108.29 243.533 107.471 241.076 105.794L238.931 109.928C241.778 111.995 245.054 113.009 248.681 113.009C252.152 113.009 254.999 111.995 257.183 110.006C259.367 108.017 260.459 105.287 260.459 101.894V82.745H255.389V85.085ZM243.533 93.197C243.533 91.481 244.079 90.077 245.21 88.946C246.341 87.815 247.745 87.23 249.422 87.23C251.099 87.23 252.503 87.815 253.634 88.946C254.765 90.077 255.311 91.481 255.311 93.197C255.311 94.913 254.765 96.356 253.634 97.526C252.503 98.657 251.099 99.242 249.422 99.242C247.745 99.242 246.341 98.657 245.21 97.526C244.079 96.395 243.533 94.952 243.533 93.197Z" fill="#5C3F3F"/>
<path d="M47.116 135.673L48.711 137.674L52.597 134.426V152H55.468V130.569H53.177L47.116 135.673ZM70.9776 152V142.401H81.7366V152H84.6366V130.569H81.7366V139.617H70.9776V130.569H68.0486V152H70.9776ZM96.5535 152.377C98.9025 152.377 100.846 151.594 102.383 150.028C103.92 148.433 104.703 146.49 104.703 144.199C104.703 141.937 103.92 140.023 102.383 138.428C100.846 136.833 98.9025 136.05 96.5535 136.05C94.1755 136.05 92.2035 136.833 90.6665 138.428C89.1295 139.994 88.3755 141.908 88.3755 144.199C88.3755 146.49 89.1295 148.433 90.6665 150.028C92.2035 151.594 94.1755 152.377 96.5535 152.377ZM101.919 144.199C101.919 145.736 101.397 147.07 100.353 148.172C99.3085 149.274 98.0325 149.825 96.5535 149.825C95.0745 149.825 93.7985 149.274 92.7545 148.172C91.7105 147.07 91.1885 145.736 91.1885 144.199C91.1885 142.662 91.7105 141.357 92.7545 140.284C93.7985 139.182 95.0745 138.631 96.5535 138.631C98.0325 138.631 99.3085 139.182 100.353 140.284C101.397 141.357 101.919 142.662 101.919 144.199ZM114.491 152.377C118.638 152.377 121.161 149.883 121.161 145.736V136.456H118.406V145.649C118.406 148.201 116.956 149.796 114.491 149.796C112.055 149.796 110.605 148.201 110.605 145.649V136.456H107.821V145.736C107.821 149.796 110.431 152.377 114.491 152.377ZM128.055 152V143.764C128.055 140.429 129.853 138.718 132.318 138.718C132.84 138.718 133.391 138.805 133.942 138.979L134.203 136.282C133.594 136.137 132.985 136.05 132.376 136.05C130.317 136.05 128.809 136.949 127.91 138.747V136.456H125.271V152H128.055ZM147.208 152.348C148.861 152.348 150.195 151.884 151.239 150.985C152.283 150.086 152.805 148.955 152.805 147.621C152.805 145.91 151.935 144.605 150.166 143.706C149.702 143.445 149.006 143.126 148.078 142.749L146.367 141.995C145.497 141.589 145.062 140.98 145.062 140.168C145.062 139.124 145.903 138.283 147.295 138.283C148.687 138.283 149.789 138.892 150.63 140.081L152.399 138.399C151.355 136.775 149.441 135.934 147.469 135.934C145.932 135.934 144.714 136.34 143.786 137.181C142.858 137.993 142.394 139.037 142.394 140.284C142.394 141.937 143.177 143.184 144.772 144.054C145.091 144.228 145.729 144.518 146.686 144.924C147.643 145.33 148.31 145.62 148.629 145.794C149.586 146.287 150.05 146.954 150.05 147.766C150.05 148.955 148.948 149.912 147.295 149.912C145.874 149.912 144.337 149.1 143.438 147.447L141.437 148.984C142.626 151.217 144.888 152.348 147.208 152.348ZM170.469 143.938C170.469 141.531 169.773 139.617 168.352 138.196C166.96 136.775 165.162 136.079 162.958 136.079C160.638 136.079 158.753 136.833 157.274 138.37C155.824 139.907 155.099 141.821 155.099 144.17C155.099 148.201 157.535 152.348 163.393 152.348C165.974 152.348 168.526 151.362 170.063 150.173L168.874 148.056C167.453 149.1 165.307 149.796 163.451 149.796C160.203 149.796 158.463 147.998 157.999 145.359H170.382C170.44 144.605 170.469 144.141 170.469 143.938ZM157.999 142.952C158.463 140.371 160.406 138.544 162.958 138.544C165.51 138.544 167.453 140.255 167.598 142.952H157.999ZM178.105 152.348C179.758 152.348 181.092 151.884 182.136 150.985C183.18 150.086 183.702 148.955 183.702 147.621C183.702 145.91 182.832 144.605 181.063 143.706C180.599 143.445 179.903 143.126 178.975 142.749L177.264 141.995C176.394 141.589 175.959 140.98 175.959 140.168C175.959 139.124 176.8 138.283 178.192 138.283C179.584 138.283 180.686 138.892 181.527 140.081L183.296 138.399C182.252 136.775 180.338 135.934 178.366 135.934C176.829 135.934 175.611 136.34 174.683 137.181C173.755 137.993 173.291 139.037 173.291 140.284C173.291 141.937 174.074 143.184 175.669 144.054C175.988 144.228 176.626 144.518 177.583 144.924C178.54 145.33 179.207 145.62 179.526 145.794C180.483 146.287 180.947 146.954 180.947 147.766C180.947 148.955 179.845 149.912 178.192 149.912C176.771 149.912 175.234 149.1 174.335 147.447L172.334 148.984C173.523 151.217 175.785 152.348 178.105 152.348ZM191.246 152.348C192.899 152.348 194.233 151.884 195.277 150.985C196.321 150.086 196.843 148.955 196.843 147.621C196.843 145.91 195.973 144.605 194.204 143.706C193.74 143.445 193.044 143.126 192.116 142.749L190.405 141.995C189.535 141.589 189.1 140.98 189.1 140.168C189.1 139.124 189.941 138.283 191.333 138.283C192.725 138.283 193.827 138.892 194.668 140.081L196.437 138.399C195.393 136.775 193.479 135.934 191.507 135.934C189.97 135.934 188.752 136.34 187.824 137.181C186.896 137.993 186.432 139.037 186.432 140.284C186.432 141.937 187.215 143.184 188.81 144.054C189.129 144.228 189.767 144.518 190.724 144.924C191.681 145.33 192.348 145.62 192.667 145.794C193.624 146.287 194.088 146.954 194.088 147.766C194.088 148.955 192.986 149.912 191.333 149.912C189.912 149.912 188.375 149.1 187.476 147.447L185.475 148.984C186.664 151.217 188.926 152.348 191.246 152.348ZM201.515 134.252C202.588 134.252 203.487 133.411 203.487 132.251C203.487 131.178 202.588 130.308 201.515 130.308C200.355 130.308 199.485 131.12 199.485 132.251C199.485 133.411 200.355 134.252 201.515 134.252ZM202.849 136.456H200.065V152H202.849V136.456ZM214.394 152.377C216.743 152.377 218.686 151.594 220.223 150.028C221.76 148.433 222.543 146.49 222.543 144.199C222.543 141.937 221.76 140.023 220.223 138.428C218.686 136.833 216.743 136.05 214.394 136.05C212.016 136.05 210.044 136.833 208.507 138.428C206.97 139.994 206.216 141.908 206.216 144.199C206.216 146.49 206.97 148.433 208.507 150.028C210.044 151.594 212.016 152.377 214.394 152.377ZM219.759 144.199C219.759 145.736 219.237 147.07 218.193 148.172C217.149 149.274 215.873 149.825 214.394 149.825C212.915 149.825 211.639 149.274 210.595 148.172C209.551 147.07 209.029 145.736 209.029 144.199C209.029 142.662 209.551 141.357 210.595 140.284C211.639 139.182 212.915 138.631 214.394 138.631C215.873 138.631 217.149 139.182 218.193 140.284C219.237 141.357 219.759 142.662 219.759 144.199ZM228.649 152V143.387C228.649 141.995 229.055 140.864 229.838 139.965C230.65 139.066 231.694 138.631 232.941 138.631C235.29 138.631 236.914 140.342 236.914 143.358V152H239.669V142.575C239.669 140.458 239.089 138.863 237.9 137.732C236.711 136.601 235.261 136.05 233.521 136.05C231.23 136.05 229.577 136.92 228.591 138.66V136.456H225.865V152H228.649Z" fill="#5C3F3F"/>
<line x1="300" y1="114" x2="328" y2="114" stroke="#5C3F3F" stroke-width="6"/>
<path d="M403.458 111.128C403.458 110.3 403.458 109.679 403.389 109.334H417.12V101.606H401.457C400.629 99.191 400.215 97.328 400.215 95.879C400.215 91.739 403.251 88.703 407.46 88.703C410.496 88.703 413.532 90.497 415.257 93.257L421.881 87.185C418.914 82.286 413.049 79.043 406.425 79.112C401.94 79.181 398.076 80.63 394.833 83.528C391.59 86.357 390.003 89.945 390.003 94.292C390.003 96.155 390.417 98.639 391.314 101.606H387.381V109.334H393.453C393.522 109.679 393.522 110.093 393.522 110.714C393.522 114.854 391.383 119.546 387.726 123.065V131H421.605V121.616H398.973C401.871 118.58 403.389 115.061 403.458 111.128ZM426.013 89.393H447.886L430.36 131H441.055L459.271 87.047V80.009H426.013V89.393ZM464.725 132.104C467.761 132.104 470.245 129.689 470.245 126.446C470.245 123.341 467.761 120.926 464.725 120.926C461.482 120.926 458.998 123.341 458.998 126.446C458.998 129.689 461.482 132.104 464.725 132.104ZM494.122 98.156C491.707 98.156 489.43 98.57 487.291 99.398L488.395 89.393H507.784V80.009H480.805L478.045 105.539L483.979 110.3C486.394 108.023 489.154 106.919 492.397 106.919C497.365 106.919 501.022 110.162 501.022 114.578C501.022 118.994 497.503 122.444 491.776 122.444C487.705 122.444 483.565 120.995 479.218 118.028L475.147 126.17C480.391 129.965 486.118 131.828 492.259 131.828C497.986 131.828 502.54 130.172 506.059 126.929C509.578 123.686 511.303 119.546 511.303 114.578C511.303 109.679 509.647 105.746 506.335 102.71C503.023 99.674 498.952 98.156 494.122 98.156ZM537.515 131.828C551.729 131.828 558.146 119.546 558.146 105.47C558.146 91.394 551.729 79.112 537.515 79.112C528.407 79.112 521.852 84.632 519.023 92.36C517.574 96.224 516.884 100.571 516.884 105.47C516.884 115.199 519.575 123.134 525.923 128.102C529.097 130.586 532.961 131.828 537.515 131.828ZM548.003 105.47C548.003 115.406 544.484 122.237 537.515 122.237C530.546 122.237 527.096 115.406 527.096 105.47C527.096 100.571 527.993 96.5 529.718 93.395C531.443 90.29 534.065 88.703 537.515 88.703C541.034 88.703 543.656 90.29 545.381 93.395C547.106 96.5 548.003 100.571 548.003 105.47Z" fill="#5C3F3F"/>
</svg>
