<svg width="701" height="214" viewBox="0 0 701 214" fill="none" xmlns="http://www.w3.org/2000/svg">
<rect x="2.5" y="2.5" width="696" height="209" stroke="#5C3F3F" stroke-width="5"/>
<path d="M439.688 92.3366L439.686 90.3366L441.686 90.3346L441.688 92.3346L439.688 92.3366ZM413.614 121.294C412.834 122.076 411.568 122.077 410.786 121.297C410.004 120.516 410.003 119.25 410.783 118.468L413.614 121.294ZM417.673 90.3586L439.686 90.3366L439.69 94.3366L417.677 94.3586L417.673 90.3586ZM441.688 92.3346L441.71 114.348L437.71 114.352L437.688 92.3386L441.688 92.3346ZM441.104 93.7494L413.614 121.294L410.783 118.468L438.273 90.9238L441.104 93.7494Z" fill="#5C3F3F"/>
<path d="M181.976 120.659C185.504 120.659 188.346 119.581 190.551 117.474C192.756 115.367 193.834 112.378 193.834 108.556V83.8603H189.277V108.36C189.277 113.456 186.337 116.347 182.025 116.347C178.987 116.347 176.537 115.122 174.626 112.721L171.686 115.955C174.381 119.091 177.811 120.659 181.976 120.659ZM199.951 106.939C199.951 110.81 201.225 114.093 203.822 116.739C206.419 119.385 209.702 120.708 213.671 120.708C217.64 120.708 220.923 119.385 223.52 116.739C226.117 114.093 227.391 110.81 227.391 106.939C227.391 103.117 226.068 99.8833 223.471 97.2373C220.874 94.5423 217.64 93.2193 213.671 93.2193C209.702 93.2193 206.419 94.5423 203.822 97.2373C201.225 99.8833 199.951 103.117 199.951 106.939ZM222.981 106.939C222.981 109.634 222.099 111.937 220.286 113.848C218.473 115.759 216.268 116.69 213.671 116.69C211.074 116.69 208.869 115.759 207.056 113.848C205.243 111.937 204.361 109.634 204.361 106.939C204.361 104.293 205.243 102.039 207.056 100.128C208.869 98.2173 211.074 97.2373 213.671 97.2373C216.268 97.2373 218.473 98.2173 220.286 100.128C222.099 102.039 222.981 104.293 222.981 106.939ZM235.405 90.0343C237.169 90.0343 238.59 88.6133 238.59 86.8003C238.59 84.9873 237.169 83.6153 235.405 83.6153C233.494 83.6153 232.122 84.9873 232.122 86.8003C232.122 88.6133 233.494 90.0343 235.405 90.0343ZM237.512 93.8563H233.151V120.071H237.512V93.8563ZM249.331 120.071V105.469C249.331 103.068 250.017 101.059 251.389 99.5403C252.761 98.0213 254.525 97.2373 256.73 97.2373C260.797 97.2373 263.59 100.177 263.59 105.469V120.071H267.951V104.195C267.951 100.618 266.971 97.9233 264.962 96.0123C262.953 94.1013 260.503 93.1703 257.563 93.1703C253.692 93.1703 250.899 94.6403 249.233 97.5803V93.8563H244.97V120.071H249.331ZM291.536 120.071V105.469C291.536 103.068 292.222 101.059 293.594 99.5403C294.966 98.0213 296.73 97.2373 298.935 97.2373C303.002 97.2373 305.795 100.177 305.795 105.469V120.071H310.156V104.195C310.156 100.618 309.176 97.9233 307.167 96.0123C305.158 94.1013 302.708 93.1703 299.768 93.1703C295.897 93.1703 293.104 94.6403 291.438 97.5803V93.8563H287.175V120.071H291.536ZM315.608 106.939C315.608 110.81 316.882 114.093 319.479 116.739C322.076 119.385 325.359 120.708 329.328 120.708C333.297 120.708 336.58 119.385 339.177 116.739C341.774 114.093 343.048 110.81 343.048 106.939C343.048 103.117 341.725 99.8833 339.128 97.2373C336.531 94.5423 333.297 93.2193 329.328 93.2193C325.359 93.2193 322.076 94.5423 319.479 97.2373C316.882 99.8833 315.608 103.117 315.608 106.939ZM338.638 106.939C338.638 109.634 337.756 111.937 335.943 113.848C334.13 115.759 331.925 116.69 329.328 116.69C326.731 116.69 324.526 115.759 322.713 113.848C320.9 111.937 320.018 109.634 320.018 106.939C320.018 104.293 320.9 102.039 322.713 100.128C324.526 98.2173 326.731 97.2373 329.328 97.2373C331.925 97.2373 334.13 98.2173 335.943 100.128C337.756 102.039 338.638 104.293 338.638 106.939ZM357.69 120.022L364.942 99.9323L372.39 120.022H375.967L384.738 93.8563H380.181L374.056 113.897L366.461 93.8563H363.423L356.073 113.897L349.703 93.8563H345.146L354.113 120.022H357.69Z" fill="#5C3F3F"/>
</svg>
