<svg width="282" height="284" viewBox="0 0 282 284" fill="none" xmlns="http://www.w3.org/2000/svg">
<path d="M155.57 138.984L145.162 131.699C136.88 125.901 132.739 123.003 129.51 124.684C126.281 126.365 126.281 131.42 126.281 141.53V156.101C126.281 166.21 126.281 171.265 129.51 172.947C132.739 174.628 136.88 171.729 145.162 165.932L155.57 158.646C161.958 154.175 165.151 151.939 165.151 148.815C165.151 145.691 161.958 143.456 155.57 138.984Z" fill="black"/>
<path d="M52.283 143.216L41.2866 147.204L41.1704 150.091L55.8601 144.305L55.9329 142.498L41.756 135.55L41.6408 138.409L52.283 143.216Z" fill="black"/>
<path d="M45.6061 107.935C45.9706 107.005 45.5469 105.94 44.5413 105.546C43.6112 105.181 42.5516 105.665 42.1872 106.595C41.7932 107.601 42.2015 108.631 43.182 109.015C44.1875 109.409 45.2121 108.94 45.6061 107.935ZM47.9698 107.527L47.0241 109.94L60.4986 115.22L61.4443 112.807L47.9698 107.527Z" fill="black"/>
<path d="M72.6447 80.6484C70.9512 79.1808 69.1801 78.5035 67.3139 78.6368C65.4653 78.7498 63.8793 79.5905 62.5354 81.1412C61.1208 82.7735 60.502 84.5596 60.6816 86.5373C60.8789 88.4947 61.7835 90.1719 63.4363 91.6041C66.2725 94.062 70.6756 94.8766 74.2474 90.755C75.8212 88.939 76.6835 86.5422 76.7841 84.7358L74.5696 84.2816C74.4377 85.918 73.6189 87.8522 72.4872 89.1581C70.5068 91.4434 68.1808 91.5713 66.0411 90.2887L73.5915 81.5761C73.0963 81.0755 72.7876 80.7722 72.6447 80.6484ZM64.3475 88.8211C62.8145 86.9209 62.7137 84.4398 64.2698 82.6442C65.8258 80.8486 68.2144 80.5248 70.2004 82.0673L64.3475 88.8211Z" fill="black"/>
<path d="M102.157 67.0878L102.256 55.5751L109.62 64.4613L111.657 63.7441L111.42 48.5139L108.873 49.4103L109.37 60.7423L101.895 51.8665L100.189 52.4671L100.074 64.0142L93.2357 54.9143L90.6633 55.8197L100.145 67.7959L102.157 67.0878Z" fill="black"/>
<path d="M168.466 64.5384C170.472 65.409 172.422 65.4604 174.315 64.6925C176.219 63.8999 177.607 62.5306 178.457 60.5739C179.295 58.642 179.336 56.7171 178.614 54.7852C177.892 52.8532 176.523 51.4644 174.517 50.5938C172.486 49.7124 170.511 49.6503 168.607 50.4429C166.714 51.2108 165.361 52.566 164.512 54.5227C163.663 56.4794 163.587 58.4184 164.308 60.3503C165.041 62.2575 166.435 63.6571 168.466 64.5384ZM176.079 59.5421C175.509 60.8548 174.569 61.8007 173.269 62.355C171.969 62.9093 170.675 62.907 169.411 62.3588C168.148 61.8106 167.263 60.8671 166.779 59.539C166.296 58.2109 166.345 56.878 166.914 55.5653C167.484 54.2526 168.414 53.3315 169.703 52.802C171.003 52.2477 172.297 52.25 173.56 52.7982C174.823 53.3463 175.709 54.2898 176.192 55.618C176.686 56.9213 176.648 58.2294 176.079 59.5421Z" fill="black"/>
<path d="M199.284 84.8269C201.821 87.7369 205.115 87.9814 208.025 85.4439L214.537 79.7656L212.852 77.8323L206.401 83.4574C204.61 85.0189 202.603 84.9773 201.095 83.2476C199.604 81.5382 199.836 79.5447 201.627 77.9832L208.078 72.3581L206.375 70.4045L199.863 76.0828C197.014 78.567 196.8 81.9778 199.284 84.8269Z" fill="black"/>
<path d="M216.629 110.925L223.859 108.372C226.787 107.338 228.847 108.386 229.611 110.55C229.773 111.008 229.867 111.519 229.885 112.057L232.334 111.45C232.272 110.87 232.16 110.308 231.971 109.774C231.333 107.966 230.076 106.921 228.219 106.689L230.23 105.979L229.412 103.662L215.766 108.481L216.629 110.925Z" fill="black"/>
<path d="M231.482 169.043C233.269 168.212 234.455 166.841 235.011 164.922C235.591 162.925 235.406 161.044 234.431 159.271C233.481 157.506 231.991 156.342 229.969 155.755C227.92 155.161 226.039 155.345 224.281 156.269C222.523 157.193 221.367 158.656 220.788 160.653C220.208 162.65 220.46 164.494 221.551 166.16L220.41 165.829C219.036 165.43 218.049 164.665 217.456 163.51C216.838 162.346 216.751 160.999 217.195 159.47C217.714 157.68 218.767 156.187 220.318 155.006L218.686 153.267C216.829 154.725 215.587 156.585 214.932 158.841C214.277 161.097 214.424 163.107 215.355 164.84C216.286 166.572 217.854 167.758 220.11 168.413L232.582 172.033L233.297 169.569L231.482 169.043ZM225.321 158.595C226.518 157.958 227.813 157.856 229.213 158.263C230.613 158.669 231.652 159.449 232.296 160.62C232.966 161.798 233.109 163.049 232.71 164.423C232.312 165.797 231.521 166.777 230.324 167.413C229.153 168.057 227.859 168.159 226.458 167.753C225.058 167.347 224.019 166.567 223.349 165.389C222.679 164.21 222.536 162.96 222.935 161.585C223.334 160.211 224.124 159.232 225.321 158.595Z" fill="black"/>
<path d="M208.997 207.994C211.122 208.142 212.878 207.461 214.286 205.968C215.713 204.456 216.389 202.718 216.293 200.734C216.217 198.769 215.384 197.055 213.813 195.573C212.222 194.072 210.443 193.321 208.418 193.304C206.393 193.286 204.677 194.042 203.25 195.555C201.805 197.086 201.226 198.879 201.496 200.915L200.003 199.507L198.298 201.314L208.824 211.246L210.529 209.439L208.997 207.994ZM205.175 204.609C204.094 203.59 203.506 202.404 203.41 201.051C203.313 199.697 203.755 198.481 204.774 197.401C205.793 196.321 206.982 195.809 208.32 195.847C209.658 195.884 210.876 196.403 211.937 197.403C212.997 198.404 213.586 199.59 213.701 200.924C213.816 202.258 213.374 203.474 212.355 204.554C211.335 205.634 210.147 206.146 208.79 206.128C207.434 206.11 206.215 205.591 205.175 204.609Z" fill="black"/>
<path d="M186.15 234.982L188.473 233.834L179.418 215.51L177.094 216.659L186.15 234.982Z" fill="black"/>
<path d="M163.101 243.377L165.629 242.807L161.128 222.869L158.6 223.44L163.101 243.377Z" fill="black"/>
<path d="M125.694 232.207C125.429 234.432 125.862 236.278 127.019 237.748C128.149 239.215 129.735 240.057 131.773 240.299C133.917 240.555 135.743 240.065 137.28 238.807C138.789 237.546 139.67 235.856 139.929 233.685C140.373 229.958 138.578 225.856 133.162 225.211C130.776 224.927 128.308 225.557 126.756 226.487L127.622 228.575C129.051 227.767 131.111 227.359 132.827 227.564C135.83 227.921 137.241 229.775 137.379 232.266L125.931 230.903C125.794 231.593 125.716 232.019 125.694 232.207ZM137.114 234.491C136.401 236.826 134.403 238.302 132.044 238.021C129.685 237.74 128.077 235.944 128.24 233.434L137.114 234.491Z" fill="black"/>
<path d="M102.574 217.229L98.8739 223.945C97.3755 226.665 95.1406 227.252 93.1305 226.145C92.7049 225.91 92.2946 225.592 91.9235 225.202L90.4989 227.284C90.9304 227.676 91.3879 228.021 91.8845 228.294C93.5636 229.22 95.1972 229.164 96.7381 228.102L95.7088 229.97L97.8608 231.156L104.844 218.48L102.574 217.229Z" fill="black"/>
<path d="M74.9345 200.893L69.4121 211.256L71.3189 213.569L78.44 199.542L79.7626 199.151C81.5387 198.632 82.7857 198.828 83.5415 199.745C83.8507 200.12 84.1245 200.664 84.3248 201.373L86.2807 200.181C86.1772 199.461 85.8421 198.757 85.2408 198.028C83.7979 196.279 81.8189 195.916 78.5462 197.04L62.2661 202.591L64.0869 204.799L74.9345 200.893Z" fill="black"/>
</svg>
