<svg width="342" height="342" viewBox="0 0 342 342" fill="none" xmlns="http://www.w3.org/2000/svg">
<path d="M80.0008 153.153L56.1868 159.494L56.0672 160.51L77.7496 172.271L77.9925 170.209L71.4152 166.687L72.5426 157.113L79.7579 155.215L80.0008 153.153ZM70.7152 157.522L69.7328 165.865L59.481 160.413L70.7152 157.522Z" fill="#5C3F3F"/>
<path d="M87.5524 131.927C88.2514 130.474 88.5614 128.972 88.4545 127.407C88.3476 125.842 87.8693 124.476 87.0063 123.338L85.5096 124.304C86.8549 126.155 87.1048 128.925 86.016 131.187C85.1826 132.919 83.9105 134.062 82.1996 134.614C80.4887 135.167 78.7114 135 76.8957 134.126C75.052 133.239 73.8258 131.927 73.2037 130.217C72.5537 128.493 72.6795 126.731 73.5263 124.971C74.6151 122.708 76.7975 121.247 79.1809 121.155L79.0574 119.41C76.1319 119.413 73.4013 121.298 71.9899 124.231C70.9011 126.494 70.7268 128.715 71.4949 130.908C72.2765 133.073 73.7986 134.7 76.0892 135.802C78.3518 136.891 80.5729 137.065 82.7389 136.353C84.8771 135.627 86.4905 134.133 87.5524 131.927Z" fill="#5C3F3F"/>
<path d="M102.39 105.174C102.268 106.477 101.784 107.581 100.94 108.531C99.4773 110.176 97.7602 110.101 95.7447 108.309L88.586 101.944L93.1177 96.8475L91.8898 95.7558L87.3582 100.853L82.9796 96.9595L81.7643 98.3263L86.1429 102.219L84.1655 104.443L85.3933 105.535L87.3501 103.334L94.4624 109.658C97.173 112.068 99.907 112.259 102.111 109.78C103.264 108.483 103.885 107.085 103.97 105.543L102.39 105.174Z" fill="#5C3F3F"/>
<path d="M103.201 82.1785C103.899 81.6627 104.067 80.6904 103.533 79.9674C102.999 79.2444 102.02 79.1197 101.322 79.6356C100.599 80.1699 100.431 81.1421 100.965 81.8651C101.499 82.5881 102.478 82.7128 103.201 82.1785ZM105.447 83.7569L103.951 84.8623L113.808 98.2004L115.303 97.095L105.447 83.7569Z" fill="#5C3F3F"/>
<path d="M131.581 84.0669L120.87 73.7056L118.984 74.4983L132.143 86.9243L133.2 86.4799L133.53 68.3843L131.644 69.1771L131.581 84.0669Z" fill="#5C3F3F"/>
<path d="M151.452 61.004C152.309 60.8663 152.905 60.0798 152.762 59.1921C152.619 58.3045 151.807 57.7443 150.95 57.8821C150.062 58.0248 149.467 58.8113 149.609 59.6989C149.752 60.5865 150.564 61.1467 151.452 61.004ZM152.722 63.4373L150.886 63.7324L153.518 80.1073L155.354 79.8121L152.722 63.4373Z" fill="#5C3F3F"/>
<path d="M178.984 76.3048C177.894 77.0281 176.731 77.3443 175.461 77.2831C173.263 77.1769 172.243 75.7932 172.373 73.0993L172.835 63.5314L179.647 63.8603L179.726 62.2192L172.914 61.8904L173.197 56.0382L171.37 55.95L171.087 61.8022L168.115 61.6587L168.036 63.2998L170.977 63.4418L170.518 72.9477C170.343 76.5705 171.911 78.8187 175.224 78.9786C176.958 79.0623 178.436 78.6681 179.69 77.7665L178.984 76.3048Z" fill="#5C3F3F"/>
<path d="M198.899 80.2952L197.835 64.9776L195.897 64.3214L197.272 82.2971L196.552 83.1662C194.62 85.4901 193.076 86.4729 191.431 85.9161C190.844 85.7172 190.248 85.3517 189.653 84.7901L188.861 86.2568C189.408 86.8672 190.111 87.3019 190.933 87.5803C193.312 88.3856 195.258 87.3754 198.166 83.9091L210.519 69.273L208.581 68.6167L198.899 80.2952Z" fill="#5C3F3F"/>
<path d="M249.244 94.5804C247.283 92.51 244.606 91.7579 241.914 92.3869L244.367 90.063L243.087 88.7128L226.097 104.81L227.376 106.16L234.735 99.1882C234.007 101.8 234.658 104.471 236.62 106.541C238.24 108.252 240.191 109.094 242.493 109.09C244.796 109.086 246.814 108.242 248.592 106.558C250.37 104.873 251.322 102.903 251.45 100.604C251.6 98.2841 250.865 96.2907 249.244 94.5804ZM237.793 105.301C236.471 103.906 235.879 102.289 235.994 100.472C236.109 98.6552 236.875 97.0751 238.27 95.7532C239.688 94.41 241.33 93.7088 243.173 93.6709C245.016 93.6329 246.598 94.3116 247.92 95.7068C249.221 97.0796 249.792 98.6738 249.655 100.468C249.519 102.263 248.731 103.864 247.313 105.207C245.895 106.55 244.253 107.252 242.454 107.291C240.655 107.33 239.094 106.674 237.793 105.301Z" fill="#5C3F3F"/>
<path d="M251.607 125.949L260.032 121.656C263.097 120.094 265.999 120.598 267.364 123.278C267.632 123.802 267.816 124.369 267.918 124.979L269.591 124.37C269.433 123.65 269.206 123 268.91 122.42C267.855 120.349 266.226 119.404 263.967 119.546L266.342 118.336L265.54 116.762L250.763 124.292L251.607 125.949Z" fill="#5C3F3F"/>
<path d="M277.779 139.122C278.012 139.958 278.861 140.461 279.727 140.22C280.593 139.978 281.058 139.107 280.824 138.271C280.582 137.405 279.733 136.902 278.868 137.144C278.002 137.386 277.537 138.257 277.779 139.122ZM275.505 140.659L275.004 138.868L259.031 143.332L259.532 145.123L275.505 140.659Z" fill="#5C3F3F"/>
<path d="M262.712 166.602C262.766 168.213 263.189 169.687 264.01 171.024C264.831 172.361 265.888 173.349 267.18 173.956L268.058 172.406C266.007 171.39 264.501 169.053 264.416 166.544C264.35 164.623 264.947 163.021 266.206 161.737C267.465 160.454 269.117 159.777 271.131 159.709C273.176 159.639 274.871 160.233 276.216 161.459C277.591 162.684 278.297 164.304 278.364 166.255C278.449 168.765 277.194 171.072 275.125 172.259L276.044 173.748C278.634 172.388 280.178 169.451 280.068 166.198C279.983 163.688 279.106 161.64 277.408 160.053C275.712 158.498 273.608 157.763 271.068 157.85C268.558 157.935 266.51 158.811 264.922 160.447C263.364 162.082 262.628 164.154 262.712 166.602Z" fill="#5C3F3F"/>
<path d="M266.59 204.591C268.943 205.267 270.996 205.083 272.769 204.076C274.571 203.077 275.761 201.516 276.377 199.371C277.062 196.987 276.835 194.858 275.675 192.944C274.515 191.031 272.754 189.751 270.34 189.058C266.169 187.86 261.275 189.067 259.589 194.937C258.836 197.559 259.092 200.374 259.869 202.274L261.479 201.834C260.728 200.07 260.659 197.502 261.249 195.446C262.37 191.543 265.442 189.942 269.065 190.692L265.215 204.1C265.913 204.365 266.381 204.531 266.59 204.591ZM274.739 198.9C273.806 202.148 270.913 203.801 267.358 202.812L270.704 191.162C274.087 192.521 275.697 195.563 274.739 198.9Z" fill="#5C3F3F"/>
<path d="M249.467 218.555C248.579 219.937 248.233 221.336 248.471 222.742C248.71 224.148 249.39 225.212 250.564 225.966C252.154 226.988 253.698 226.764 255.477 225.659C255.954 225.376 256.617 224.918 257.475 224.327L259.159 223.198C260.308 222.499 261.331 222.456 262.243 223.043C263.573 223.898 263.875 225.492 262.753 227.239C261.831 228.674 260.587 229.348 259.046 229.28L259.229 230.945C261.26 230.996 262.895 230.057 264.118 228.154C265.794 225.546 265.276 222.854 263.163 221.497C261.755 220.592 260.19 220.618 258.479 221.619C258.095 221.814 257.508 222.211 256.65 222.802C255.817 223.409 255.231 223.806 254.873 224.018C253.519 224.807 252.377 224.92 251.465 224.334C250.03 223.412 249.669 221.337 250.875 219.459C251.931 217.816 253.527 217.11 255.664 217.341L255.686 215.586C252.972 215.279 250.791 216.494 249.467 218.555Z" fill="#5C3F3F"/>
<path d="M216.283 256.51C216.058 257.901 215.922 259.383 215.892 260.983L217.559 261.189C217.623 259.462 217.747 258.022 217.96 256.855L225.166 258.408C226.025 258.586 226.832 258.795 227.542 259.025L227.316 259.374C226.723 260.262 226.297 260.944 226.037 261.42C225.778 261.896 225.458 262.515 225.138 263.315C224.485 264.957 224.59 266.298 225.359 267.608C226.019 268.73 226.97 269.43 228.223 269.664C229.475 269.899 230.684 269.692 231.833 269.016C233.143 268.247 233.982 267.106 234.368 265.621C234.753 264.135 234.516 262.692 233.7 261.303C232.898 259.94 231.632 258.886 229.942 258.153C231.815 255.039 232.058 252.271 230.644 249.866C229.717 248.289 228.386 247.309 226.609 246.916C224.831 246.522 223.047 246.852 221.31 247.873C219.012 249.224 217.433 251.555 216.601 254.849L211.549 253.719L211.247 255.407L216.283 256.51ZM231.037 267.723C229.513 268.618 227.715 268.129 226.851 266.659C226.396 265.884 226.421 264.826 226.577 264.051C226.649 263.685 226.867 263.198 227.197 262.536C227.543 261.901 227.802 261.425 227.991 261.134L229.037 259.549C230.514 260.227 231.575 261.113 232.219 262.209C232.8 263.198 232.982 264.242 232.776 265.298C232.543 266.37 231.972 267.173 231.037 267.723ZM222.009 249.368C223.372 248.567 224.703 248.324 226.014 248.596C227.341 248.895 228.365 249.659 229.072 250.862C230.282 252.919 229.843 255.048 228.416 257.576C227.621 257.324 226.772 257.104 225.87 256.915L218.251 255.209C218.935 252.397 220.192 250.436 222.009 249.368Z" fill="#5C3F3F"/>
<path d="M183.158 285.691L182.418 262.794L180.528 262.855L180.816 271.747L175.92 271.905C173.473 271.984 171.636 272.726 170.378 274.131C169.091 275.569 168.493 277.232 168.555 279.153C168.616 281.043 169.289 282.665 170.605 284.018C171.889 285.372 173.708 285.996 176.094 285.919L183.158 285.691ZM180.873 273.513L181.21 283.955L175.943 284.125C172.69 284.23 170.575 282.127 170.477 279.122C170.38 276.116 172.445 273.785 175.946 273.672L180.873 273.513Z" fill="#5C3F3F"/>
<path d="M146.906 284.017L148.723 284.414L153.718 261.548L151.901 261.151L146.906 284.017Z" fill="#5C3F3F"/>
<path d="M119.543 263.289C119.758 265.939 121.28 268.21 123.738 269.463C125.865 270.547 127.985 270.688 130.14 269.942C132.267 269.181 133.886 267.71 134.998 265.528C136.124 263.319 136.376 261.116 135.742 258.879C135.093 256.67 133.733 255.037 131.634 253.968C129.176 252.715 126.429 252.847 124.159 254.23L125.623 251.357L124.021 250.541L116.491 265.318L118.093 266.134L119.543 263.289ZM130.777 255.445C132.462 256.303 133.561 257.629 134.033 259.365C134.505 261.102 134.27 262.861 133.369 264.629C132.482 266.369 131.197 267.593 129.515 268.232C127.833 268.87 126.114 268.76 124.429 267.902C122.717 267.029 121.618 265.704 121.118 263.953C120.619 262.202 120.812 260.457 121.685 258.744C122.585 256.977 123.898 255.767 125.622 255.114C127.346 254.462 129.064 254.572 130.777 255.445Z" fill="#5C3F3F"/>
<path d="M109.278 239.957L102.561 246.39C101.128 247.762 99.6678 248.388 98.2009 248.291C96.6901 248.193 95.4528 247.618 94.445 246.566C92.3221 244.349 92.5803 241.526 95.0878 239.125L102.073 232.435L100.786 231.091L93.555 238.017C91.943 239.561 91.1182 241.21 91.1242 242.964C91.1302 244.718 91.7546 246.266 93.0412 247.61C94.9067 249.557 97.1717 250.264 99.4474 249.458L97.3429 251.474L98.5866 252.772L110.564 241.3L109.278 239.957Z" fill="#5C3F3F"/>
<path d="M89.8618 214.349C89.1208 212.883 88.0906 211.875 86.7575 211.368C85.4245 210.861 84.1631 210.907 82.918 211.537C81.2302 212.389 80.6402 213.834 80.6907 215.927C80.693 216.482 80.7519 217.285 80.8256 218.325L80.9451 220.348C80.9647 221.693 80.4833 222.596 79.5149 223.086C78.1038 223.799 76.5765 223.251 75.6398 221.397C74.8708 219.875 74.9203 218.461 75.7605 217.168L74.2325 216.481C73.1585 218.205 73.1387 220.09 74.1594 222.11C75.5575 224.877 78.14 225.795 80.3812 224.662C81.8752 223.908 82.6458 222.546 82.6513 220.563C82.6772 220.133 82.6326 219.426 82.5589 218.387C82.4575 217.361 82.4129 216.654 82.4111 216.239C82.4183 214.672 82.8991 213.63 83.8675 213.141C85.3893 212.372 87.3611 213.112 88.3677 215.104C89.2485 216.847 89.0479 218.581 87.7659 220.306L89.267 221.214C90.9076 219.031 90.9663 216.535 89.8618 214.349Z" fill="#5C3F3F"/>
<path d="M172.398 149.884C175.109 146.117 181.044 147.756 181.438 152.381L182.309 162.605C182.433 164.059 183.186 165.386 184.37 166.239L192.698 172.233C196.465 174.944 194.826 180.879 190.202 181.273L179.978 182.144C178.524 182.268 177.196 183.02 176.344 184.205L170.35 192.533C167.638 196.3 161.704 194.661 161.31 190.037L160.439 179.813C160.315 178.359 159.562 177.031 158.378 176.179L150.05 170.185C146.282 167.473 147.921 161.538 152.546 161.145L162.77 160.274C164.224 160.15 165.551 159.397 166.404 158.213L172.398 149.884Z" fill="#5C3F3F"/>
</svg>
