<svg width="192" height="180" viewBox="0 0 192 180" fill="none" xmlns="http://www.w3.org/2000/svg">
<circle cx="102.5" cy="89.5" r="60.5" fill="#AE47DE"/>
<path d="M114.814 56.0249C117.38 55.2107 120.13 56.5749 121.035 59.1108L122.114 62.1345C122.717 63.8251 124.18 65.0627 125.947 65.3772L129.108 65.9396C131.759 66.4113 133.56 68.8973 133.183 71.5632L132.732 74.7419C132.481 76.5191 133.201 78.2949 134.62 79.3946L137.157 81.3614C139.285 83.011 139.725 86.0494 138.152 88.2345L136.276 90.8399C135.227 92.2966 135.04 94.2037 135.785 95.8367L137.117 98.7574C138.235 101.207 137.212 104.102 134.804 105.305L131.932 106.741C130.327 107.543 129.275 109.145 129.175 110.937L128.998 114.142C128.849 116.831 126.599 118.919 123.907 118.865L120.697 118.802C118.902 118.766 117.226 119.695 116.306 121.236L114.659 123.992C113.278 126.303 110.315 127.106 107.956 125.808L105.143 124.26C103.571 123.394 101.655 123.438 100.124 124.374L97.385 126.049C95.088 127.454 92.0911 126.788 90.6059 124.542L88.8349 121.864C87.8447 120.367 86.128 119.516 84.3369 119.633L81.1335 119.844C78.4468 120.02 76.1028 118.037 75.8313 115.359L75.5076 112.165C75.3266 110.379 74.2023 108.827 72.5617 108.099L69.6274 106.796C67.1665 105.704 66.0125 102.859 67.0169 100.361L68.2146 97.3824C68.8843 95.717 68.6099 93.8205 67.4956 92.4132L65.5027 89.8963C63.8313 87.7854 64.1316 84.7301 66.1819 82.985L68.6266 80.9042C69.9935 79.7407 70.6319 77.9339 70.2993 76.17L69.7043 73.0153C69.2053 70.3694 70.8911 67.8036 73.5176 67.2112L76.6493 66.5049C78.4003 66.1099 79.8052 64.8067 80.3304 63.0903L81.2697 60.0204C82.0574 57.4458 84.7425 55.9573 87.3434 56.6533L90.4447 57.4832C92.1786 57.9473 94.0282 57.4462 95.2909 56.1705L97.5493 53.8888C99.4433 51.9751 102.513 51.9049 104.492 53.7299L106.852 55.906C108.172 57.1227 110.043 57.5386 111.754 56.9958L114.814 56.0249Z" fill="black"/>
</svg>
