<svg width="185" height="185" viewBox="0 0 185 185" fill="none" xmlns="http://www.w3.org/2000/svg">
<circle cx="92.5" cy="92.5" r="60.5" fill="#EE364D"/>
<path d="M104.814 59.0249C107.38 58.2107 110.13 59.5749 111.035 62.1108L112.114 65.1345C112.717 66.8251 114.18 68.0627 115.947 68.3772L119.108 68.9396C121.759 69.4113 123.56 71.8973 123.183 74.5632L122.732 77.7419C122.481 79.5191 123.201 81.2949 124.62 82.3946L127.157 84.3614C129.285 86.011 129.725 89.0494 128.152 91.2345L126.276 93.8399C125.227 95.2966 125.04 97.2037 125.785 98.8367L127.117 101.757C128.235 104.207 127.212 107.102 124.804 108.305L121.932 109.741C120.327 110.543 119.275 112.145 119.175 113.937L118.998 117.142C118.849 119.831 116.599 121.919 113.907 121.865L110.697 121.802C108.902 121.766 107.226 122.695 106.306 124.236L104.659 126.992C103.278 129.303 100.315 130.106 97.9558 128.808L95.1433 127.26C93.5708 126.394 91.655 126.438 90.1237 127.374L87.385 129.049C85.088 130.454 82.0911 129.788 80.6059 127.542L78.8349 124.864C77.8447 123.367 76.128 122.516 74.3369 122.633L71.1335 122.844C68.4468 123.02 66.1028 121.037 65.8313 118.359L65.5076 115.165C65.3266 113.379 64.2023 111.827 62.5617 111.099L59.6274 109.796C57.1665 108.704 56.0125 105.859 57.0169 103.361L58.2146 100.382C58.8843 98.717 58.6099 96.8205 57.4956 95.4132L55.5027 92.8963C53.8313 90.7854 54.1316 87.7301 56.1819 85.985L58.6266 83.9042C59.9935 82.7407 60.6319 80.9339 60.2993 79.17L59.7043 76.0153C59.2053 73.3694 60.8911 70.8036 63.5176 70.2112L66.6493 69.5049C68.4003 69.1099 69.8052 67.8067 70.3304 66.0903L71.2697 63.0204C72.0574 60.4458 74.7425 58.9573 77.3434 59.6533L80.4447 60.4832C82.1786 60.9473 84.0282 60.4462 85.2909 59.1705L87.5493 56.8888C89.4433 54.9751 92.5125 54.9049 94.4921 56.7299L96.8524 58.906C98.1721 60.1227 100.043 60.5386 101.754 59.9958L104.814 59.0249Z" fill="black"/>
</svg>
