<svg width="474" height="506" viewBox="0 0 474 506" fill="none" xmlns="http://www.w3.org/2000/svg">
<mask id="path-1-inside-1_24_713" fill="white">
<path d="M115.482 290.973C97.002 218.457 140.807 144.689 213.324 126.208C285.841 107.728 359.609 151.533 378.089 224.05C396.569 296.567 352.764 370.335 280.247 388.815C207.73 407.296 133.963 363.49 115.482 290.973ZM332.233 235.736C320.207 188.545 272.201 160.038 225.01 172.064C177.819 184.091 149.312 232.096 161.338 279.287C173.364 326.479 221.37 354.986 268.561 342.959C315.753 330.933 344.259 282.928 332.233 235.736Z"/>
</mask>
<path d="M115.482 290.973C97.002 218.457 140.807 144.689 213.324 126.208C285.841 107.728 359.609 151.533 378.089 224.05C396.569 296.567 352.764 370.335 280.247 388.815C207.73 407.296 133.963 363.49 115.482 290.973ZM332.233 235.736C320.207 188.545 272.201 160.038 225.01 172.064C177.819 184.091 149.312 232.096 161.338 279.287C173.364 326.479 221.37 354.986 268.561 342.959C315.753 330.933 344.259 282.928 332.233 235.736Z" fill="#EE364D" stroke="black" stroke-width="2" mask="url(#path-1-inside-1_24_713)"/>
<path d="M262.767 271.667C264.005 276.14 259.01 279.74 255.158 277.15L246.643 271.425C245.432 270.611 243.926 270.366 242.519 270.756L232.63 273.493C228.157 274.731 224.557 269.736 227.147 265.884L232.872 257.369C233.687 256.158 233.931 254.652 233.542 253.246L230.804 243.357C229.566 238.883 234.561 235.283 238.413 237.873L246.928 243.598C248.139 244.413 249.645 244.657 251.052 244.268L260.941 241.53C265.414 240.292 269.014 245.287 266.424 249.139L260.699 257.654C259.885 258.865 259.64 260.372 260.029 261.778L262.767 271.667Z" fill="black"/>
<path d="M247.191 156.195L237.202 135.592L233.708 135.913L227.525 158.002L232.001 157.591L233.222 152.819L240.673 152.135L242.686 156.609L247.191 156.195ZM239.11 148.434L234.085 148.896L235.974 141.558L239.11 148.434Z" fill="#5C3F3F"/>
<path d="M263.912 141.839C262.016 141.575 260.332 142.101 258.835 143.386L259.949 135.401L255.899 134.836L252.855 156.665L256.789 157.214L257.062 155.26C258.138 156.992 259.638 157.992 261.62 158.268C263.832 158.576 265.807 158.061 267.517 156.719C269.231 155.347 270.25 153.498 270.574 151.172C270.899 148.845 270.424 146.788 269.151 145C267.878 143.212 266.123 142.148 263.912 141.839ZM257.826 149.364C257.998 148.129 258.548 147.123 259.473 146.373C260.401 145.595 261.495 145.308 262.759 145.485C264.023 145.661 264.997 146.236 265.681 147.21C266.365 148.184 266.619 149.303 266.442 150.566C266.266 151.83 265.716 152.837 264.787 153.615C263.863 154.364 262.769 154.651 261.505 154.475C260.241 154.298 259.267 153.723 258.583 152.75C257.903 151.747 257.649 150.628 257.826 149.364Z" fill="#5C3F3F"/>
<path d="M292.552 158.415C293.42 156.108 293.388 154.051 292.504 152.2C291.62 150.349 290.084 148.997 287.94 148.19C285.66 147.333 283.538 147.371 281.548 148.296C279.558 149.22 278.158 150.801 277.311 153.054C276.504 155.198 276.489 157.299 277.312 159.313C278.134 161.326 279.83 162.831 282.436 163.812C284.879 164.73 287.278 164.858 289.662 164.206L289.152 160.947C287.55 161.336 285.415 161.245 283.813 160.643C281.479 159.765 280.439 158.165 280.682 155.871L291.784 160.047C292.09 159.48 292.358 158.931 292.552 158.415ZM286.745 151.366C288.699 152.101 289.645 153.789 289.273 155.849L281.754 153.021C282.94 151.267 284.818 150.641 286.745 151.366Z" fill="#5C3F3F"/>
<path d="M298.872 171.547L302.794 165.141C304.505 162.346 306.603 161.863 308.582 163.074C309.077 163.377 309.56 163.809 310.023 164.33L312.364 161.173C311.941 160.642 311.458 160.21 310.913 159.877C309.256 158.862 307.581 158.822 305.871 159.782L306.976 157.977L303.637 155.932L295.385 169.412L298.872 171.547Z" fill="#5C3F3F"/>
<path d="M327.263 176.075C327.303 174.103 326.639 172.469 325.23 171.173C323.587 169.662 321.69 168.982 319.501 169.135C317.332 169.309 315.443 170.25 313.853 171.979C312.243 173.73 311.464 175.692 311.473 177.867C311.502 180.021 312.359 181.873 314.003 183.384C315.476 184.739 317.202 185.261 319.181 184.994L317.866 186.424L320.812 189.133L335.729 172.908L332.719 170.141L327.263 176.075ZM323.31 180.674C322.427 181.635 321.402 182.15 320.195 182.262C319.009 182.353 317.946 181.967 316.985 181.083C316.024 180.2 315.55 179.173 315.52 177.964C315.531 176.752 315.958 175.688 316.841 174.727C317.705 173.788 318.73 173.273 319.917 173.182C321.144 173.089 322.207 173.476 323.168 174.359C324.129 175.242 324.603 176.269 324.592 177.48C324.601 178.67 324.174 179.735 323.31 180.674Z" fill="#5C3F3F"/>
<path d="M340.773 202.39C342.799 200.986 343.942 199.276 344.268 197.25C344.593 195.225 344.098 193.239 342.793 191.357C341.405 189.355 339.638 188.18 337.475 187.809C335.313 187.438 333.263 187.942 331.284 189.313C329.402 190.618 328.194 192.338 327.726 194.462C327.257 196.586 327.796 198.789 329.382 201.077C330.869 203.222 332.77 204.691 335.102 205.51L336.536 202.539C334.997 201.948 333.292 200.66 332.318 199.253C330.897 197.204 330.951 195.296 332.455 193.547L339.213 203.295C339.787 203.003 340.32 202.704 340.773 202.39ZM340.004 193.29C341.194 195.006 341.012 196.932 339.534 198.414L334.958 191.813C336.931 191.045 338.831 191.597 340.004 193.29Z" fill="#5C3F3F"/>
<path d="M350.448 224.016C352.728 223.08 354.212 221.655 354.965 219.748C355.718 217.84 355.662 215.794 354.792 213.674C353.867 211.421 352.394 209.894 350.362 209.067C348.329 208.239 346.219 208.291 343.992 209.205C341.873 210.075 340.324 211.494 339.41 213.468C338.496 215.442 338.548 217.709 339.606 220.284C340.597 222.699 342.137 224.543 344.239 225.843L346.278 223.251C344.902 222.342 343.514 220.718 342.864 219.135C341.917 216.828 342.38 214.976 344.225 213.592L348.729 224.564C349.352 224.403 349.938 224.225 350.448 224.016ZM351.653 214.963C352.446 216.894 351.854 218.736 350.093 219.867L347.042 212.435C349.134 212.11 350.871 213.058 351.653 214.963Z" fill="#5C3F3F"/>
<path d="M345.17 237.553L353.511 236.096C355.825 235.692 357.703 236.837 358.077 238.979C358.421 240.95 357.279 242.504 354.794 242.938L346.366 244.409L347.07 248.437L356.583 246.776C358.668 246.412 360.163 245.533 361.073 244.167C361.983 242.801 362.3 241.245 362.005 239.559C361.621 237.359 360.212 235.692 358.553 235.128L360.724 234.749L360.036 230.807L344.466 233.525L345.17 237.553Z" fill="#5C3F3F"/>
<path d="M344.538 281.935L348.488 282.578L350.126 272.502L354.878 273.275L353.361 282.606L357.311 283.248L358.828 273.917L363.379 274.657L361.741 284.733L365.691 285.375L368.023 271.034L346.87 267.595L344.538 281.935Z" fill="#5C3F3F"/>
<path d="M346.763 299.57L352.316 307.002L353.978 302.701L350.507 298.25L355.996 297.48L357.68 293.125L348.774 294.689L343.147 286.886L341.442 291.295L345.145 296.115L339.215 297.057L337.522 301.439L346.763 299.57Z" fill="#5C3F3F"/>
<path d="M332.632 317.747C332.666 316.643 332.917 315.741 333.329 315.075C334.107 313.817 335.293 313.664 336.871 314.64L342.199 317.935L339.453 322.375L342.363 324.175L345.109 319.735L349.869 322.68L352.005 319.227L347.245 316.283L348.618 314.063L345.707 312.263L344.35 314.458L338.8 311.026C335.323 308.875 332.506 309.349 330.599 312.432C329.638 313.986 329.2 315.522 329.253 317.089L332.632 317.747Z" fill="#5C3F3F"/>
<path d="M322.063 324.293L327.706 329.251C330.167 331.414 330.286 333.564 328.754 335.306C328.371 335.742 327.863 336.145 327.27 336.512L329.982 339.358C330.577 339.031 331.085 338.629 331.506 338.149C332.789 336.69 333.114 335.046 332.461 333.197L334.051 334.595L336.635 331.654L324.762 321.221L322.063 324.293Z" fill="#5C3F3F"/>
<path d="M306.515 349.132C308.027 351.079 309.796 352.128 311.836 352.343C313.876 352.559 315.832 351.957 317.642 350.552C319.566 349.058 320.643 347.23 320.896 345.05C321.15 342.871 320.536 340.851 319.059 338.95C317.654 337.14 315.872 336.028 313.726 335.675C311.579 335.322 309.409 335.979 307.21 337.687C305.149 339.288 303.784 341.266 303.093 343.638L306.137 344.91C306.644 343.341 307.838 341.569 309.19 340.519C311.159 338.99 313.067 338.94 314.895 340.348L305.527 347.623C305.849 348.18 306.177 348.697 306.515 349.132ZM315.561 347.872C313.911 349.153 311.978 349.075 310.418 347.68L316.762 342.753C317.636 344.682 317.187 346.609 315.561 347.872Z" fill="#5C3F3F"/>
<path d="M284.577 368.651C286.746 367.75 288.327 365.962 288.73 363.91C290.208 365.274 292.262 365.456 294.083 364.699C295.996 363.936 297.298 362.233 297.493 360.361L298.361 362.45L302.057 360.914L295.99 346.319L292.214 347.889L295.532 355.869C296.433 358.038 295.662 359.96 293.814 360.728C292.02 361.474 290.345 360.694 289.444 358.525L286.082 350.438L282.306 352.008L285.635 360.015C286.525 362.157 285.781 364.068 283.88 364.858C282.139 365.582 280.471 364.893 279.547 362.671L276.174 354.557L272.398 356.127L276.061 364.937C276.873 366.892 278.059 368.157 279.64 368.788C281.194 369.429 282.836 369.375 284.577 368.651Z" fill="#5C3F3F"/>
<path d="M251.718 367.097C252.031 369.542 253.023 371.344 254.671 372.565C256.319 373.786 258.309 374.262 260.582 373.97C262.998 373.66 264.854 372.632 266.179 370.883C267.505 369.134 268.001 367.082 267.695 364.695C267.403 362.423 266.433 360.559 264.763 359.165C263.093 357.772 260.89 357.236 258.129 357.59C255.54 357.922 253.36 358.933 251.56 360.626L253.536 363.267C254.77 362.173 256.698 361.253 258.395 361.035C260.869 360.718 262.537 361.644 263.397 363.785L251.633 365.295C251.627 365.939 251.647 366.55 251.718 367.097ZM260.15 370.605C258.079 370.87 256.453 369.822 255.817 367.828L263.785 366.805C263.558 368.91 262.192 370.342 260.15 370.605Z" fill="#5C3F3F"/>
<path d="M225.643 356.177C223.342 355.706 221.373 355.925 219.708 356.828C218.043 357.73 217.019 359.119 216.635 360.994C216.158 363.324 216.997 365.301 219.145 366.955C219.633 367.321 220.409 367.864 221.475 368.586L223.363 369.919C224.384 370.72 224.812 371.518 224.644 372.342C224.394 373.564 223.208 374.15 221.532 373.807C219.969 373.487 218.239 372.393 217.33 370.905L214.458 373.514C215.944 375.801 218.053 377.21 220.78 377.768C222.883 378.198 224.738 377.956 226.312 377.065C227.885 376.173 228.835 374.858 229.196 373.096C229.649 370.88 228.896 368.92 226.942 367.188C226.437 366.76 225.695 366.193 224.702 365.546C223.682 364.893 223.052 364.498 222.797 364.298C221.641 363.439 221.167 362.573 221.341 361.721C221.614 360.385 223.079 359.738 224.812 360.092C226.971 360.534 228.808 361.976 229.782 364.158L232.796 361.726C231.58 358.843 228.91 356.846 225.643 356.177Z" fill="#5C3F3F"/>
<path d="M196.993 364.042C198.822 364.855 200.65 364.812 202.532 363.935L201.742 365.71L205.452 367.36L214.515 346.984L210.779 345.322L207.397 352.927C206.752 351.022 205.537 349.687 203.762 348.898C201.721 347.99 199.695 347.978 197.696 348.834C195.696 349.69 194.206 351.186 193.263 353.305C192.32 355.425 192.181 357.522 192.884 359.58C193.587 361.638 194.953 363.135 196.993 364.042ZM202.877 352.599C204.043 353.117 204.82 353.939 205.208 355.064C205.597 356.189 205.532 357.334 205.013 358.5C204.494 359.666 203.687 360.481 202.592 360.946C201.496 361.411 200.366 361.384 199.2 360.866C198.007 360.335 197.23 359.514 196.842 358.389C196.454 357.264 196.519 356.118 197.037 354.952C197.556 353.787 198.363 352.971 199.458 352.506C200.554 352.041 201.685 352.068 202.877 352.599Z" fill="#5C3F3F"/>
<path d="M187.396 349.65C188.799 347.765 189.348 345.716 189.02 343.484C188.693 341.252 187.549 339.389 185.571 337.918C183.594 336.446 181.48 335.886 179.248 336.213C177.017 336.541 175.211 337.655 173.809 339.54C172.424 341.401 171.875 343.451 172.202 345.682C172.513 347.937 173.657 349.801 175.634 351.272C177.612 352.744 179.725 353.304 181.974 352.953C184.206 352.626 186.011 351.511 187.396 349.65ZM185.037 343.882C185.175 345.105 184.86 346.209 184.116 347.209C183.371 348.209 182.405 348.828 181.211 349.024C180.017 349.22 178.92 348.945 177.919 348.201C176.919 347.457 176.364 346.502 176.209 345.302C176.054 344.102 176.345 342.981 177.089 341.981C177.834 340.98 178.823 340.379 180.035 340.16C181.229 339.964 182.303 340.221 183.303 340.965C184.304 341.71 184.882 342.682 185.037 343.882Z" fill="#5C3F3F"/>
<path d="M171.76 325.902L166.221 330.975C163.805 333.188 161.654 333.073 160.087 331.362C159.696 330.935 159.35 330.386 159.05 329.757L155.927 332.144C156.187 332.772 156.533 333.32 156.964 333.791C158.276 335.224 159.875 335.725 161.783 335.275L160.222 336.705L162.866 339.592L174.522 328.917L171.76 325.902Z" fill="#5C3F3F"/>
<path d="M154.899 310.083C155.881 310.587 156.589 311.2 157.014 311.857C157.818 313.099 157.449 314.236 155.891 315.245L150.632 318.648L147.796 314.266L144.923 316.126L147.759 320.508L143.061 323.549L145.267 326.958L149.966 323.916L151.384 326.107L154.257 324.248L152.854 322.081L158.332 318.535C161.764 316.313 162.541 313.565 160.572 310.522C159.579 308.988 158.378 307.934 156.939 307.311L154.899 310.083Z" fill="#5C3F3F"/>
<path d="M153.42 296.487C152.688 294.749 151.664 293.513 150.343 292.842C149.011 292.144 147.664 292.082 146.3 292.656C144.697 293.331 143.816 294.677 143.647 296.667C143.602 297.158 143.616 298.537 143.705 300.765C143.771 301.744 143.523 302.352 142.908 302.611C142.24 302.892 141.397 302.46 140.981 301.471C140.475 300.268 140.483 298.943 141.018 297.522L137.798 296.675C136.971 298.597 136.996 300.6 137.862 302.658C138.549 304.289 139.512 305.456 140.757 306.096C142.002 306.736 143.258 306.805 144.541 306.265C146.252 305.545 147.159 304.188 147.252 302.166C147.277 301.778 147.286 301.051 147.24 299.969C147.193 298.887 147.171 298.236 147.176 297.951C147.205 297.121 147.486 296.593 147.994 296.379C148.822 296.031 149.771 296.638 150.254 297.788C150.873 299.258 150.739 301.107 149.922 302.679L153.145 303.682C154.397 301.424 154.488 299.026 153.42 296.487Z" fill="#5C3F3F"/>
<path d="M145.649 262.573C145.393 258.609 143.315 255.226 140.497 253.432L137.996 256.558C140.186 258.073 141.362 260.089 141.523 262.578C141.648 264.517 141.116 266.179 139.898 267.565C138.679 268.951 137.1 269.693 135.132 269.819C133.106 269.95 131.385 269.393 129.998 268.175C128.583 266.958 127.813 265.38 127.688 263.441C127.533 261.039 128.444 258.946 130.39 257.135L127.398 254.451C124.857 256.504 123.316 260.091 123.564 263.94C123.762 267.008 124.972 269.545 127.225 271.579C129.447 273.586 132.178 274.485 135.419 274.276C138.632 274.069 141.198 272.857 143.116 270.612C145.006 268.369 145.849 265.67 145.649 262.573Z" fill="#5C3F3F"/>
<path d="M146.209 243.331L137.863 241.896C135.548 241.498 134.165 239.789 134.534 237.646C134.873 235.673 136.466 234.623 138.952 235.051L147.384 236.501L148.077 232.471L138.559 230.834C136.473 230.475 134.769 230.8 133.453 231.781C132.137 232.761 131.32 234.091 131.03 235.778C130.651 237.978 131.384 240.046 132.642 241.116L124.468 239.711L123.795 243.626L145.516 247.361L146.209 243.331Z" fill="#5C3F3F"/>
<path d="M141.781 209.517C139.829 210.217 138.491 211.484 137.738 213.307C136.886 215.371 136.891 217.412 137.774 219.376C138.63 221.33 140.165 222.779 142.363 223.687C144.562 224.594 146.688 224.687 148.726 223.929C150.765 223.17 152.208 221.727 153.071 219.636C153.835 217.786 153.806 215.955 152.959 214.131L154.648 214.828L156.131 211.236L141.521 205.205L140.039 208.797L141.781 209.517ZM147.352 211.753C148.532 212.24 149.357 213.052 149.868 214.172C150.378 215.293 150.381 216.424 149.895 217.603C149.408 218.782 148.607 219.582 147.455 220.016C146.303 220.45 145.157 220.416 143.977 219.929C142.825 219.453 141.988 218.669 141.467 217.575C140.956 216.455 140.953 215.324 141.451 214.117C141.937 212.938 142.738 212.139 143.89 211.705C145.042 211.27 146.199 211.278 147.352 211.753Z" fill="#5C3F3F"/>
<path d="M162.022 201.911L155.763 197.76C153.032 195.949 152.624 193.835 153.907 191.901C154.227 191.418 154.677 190.95 155.214 190.507L152.144 188.053C151.598 188.456 151.149 188.924 150.796 189.456C149.722 191.075 149.622 192.748 150.519 194.491L148.754 193.321L146.591 196.584L159.762 205.319L162.022 201.911Z" fill="#5C3F3F"/>
<path d="M158.345 176.983C158.264 175.632 157.005 174.516 155.676 174.616C154.325 174.697 153.209 175.956 153.29 177.307C153.349 178.639 154.608 179.755 155.959 179.674C157.31 179.593 158.426 178.334 158.345 176.983ZM160.365 178.464L157.652 181.524L169.476 192.01L172.189 188.951L160.365 178.464Z" fill="#5C3F3F"/>
<path d="M182.699 173.719C182.323 174.757 181.804 175.536 181.206 176.041C180.075 176.995 178.901 176.772 177.704 175.353L173.664 170.566L177.654 167.2L175.447 164.584L171.458 167.95L167.848 163.673L164.745 166.291L168.355 170.569L166.36 172.252L168.567 174.867L170.539 173.203L174.747 178.19C177.384 181.315 180.208 181.74 182.979 179.402C184.375 178.224 185.27 176.9 185.706 175.394L182.699 173.719Z" fill="#5C3F3F"/>
<path d="M194.755 164.447L186.152 157.469L182.03 159.782L195.697 170.037L195.773 170.825C195.899 172.65 195.426 173.88 194.313 174.504C193.782 174.802 193.089 174.991 192.287 175.042L193.354 178.367C194.343 178.411 195.356 178.142 196.393 177.56C199.124 176.028 199.958 173.365 199.327 169.098L196.749 151.524L192.854 153.709L194.755 164.447Z" fill="#5C3F3F"/>
<path d="M211.79 163.247C212.989 162.811 213.623 161.501 213.157 160.22C212.711 158.993 211.383 158.396 210.184 158.832C208.903 159.298 208.269 160.609 208.715 161.835C209.181 163.116 210.509 163.713 211.79 163.247Z" fill="#5C3F3F"/>
</svg>
