<svg width="243" height="251" viewBox="0 0 243 251" fill="none" xmlns="http://www.w3.org/2000/svg">
<g clip-path="url(#clip0_31_557)">
<path d="M121.46 111.138C126.27 111.138 126.839 111.159 128.731 111.244C130.489 111.321 131.438 111.616 132.071 111.862C132.907 112.186 133.512 112.58 134.138 113.205C134.771 113.838 135.157 114.436 135.481 115.273C135.727 115.905 136.022 116.862 136.1 118.612C136.184 120.511 136.205 121.08 136.205 125.883C136.205 130.692 136.184 131.262 136.1 133.153C136.022 134.911 135.727 135.86 135.481 136.493C135.157 137.33 134.764 137.934 134.138 138.56C133.505 139.193 132.907 139.58 132.071 139.903C131.438 140.149 130.482 140.444 128.731 140.522C126.832 140.606 126.263 140.627 121.46 140.627C116.651 140.627 116.082 140.606 114.19 140.522C112.432 140.444 111.483 140.149 110.85 139.903C110.014 139.58 109.409 139.186 108.783 138.56C108.15 137.927 107.764 137.33 107.44 136.493C107.194 135.86 106.899 134.904 106.821 133.153C106.737 131.255 106.716 130.685 106.716 125.883C106.716 121.073 106.737 120.504 106.821 118.612C106.899 116.855 107.194 115.905 107.44 115.273C107.764 114.436 108.157 113.831 108.783 113.205C109.416 112.573 110.014 112.186 110.85 111.862C111.483 111.616 112.439 111.321 114.19 111.244C116.082 111.159 116.651 111.138 121.46 111.138ZM121.46 107.897C116.574 107.897 115.962 107.918 114.042 108.002C112.13 108.087 110.815 108.396 109.676 108.839C108.488 109.303 107.482 109.915 106.484 110.92C105.478 111.919 104.867 112.924 104.403 114.105C103.96 115.251 103.65 116.559 103.566 118.472C103.482 120.398 103.46 121.01 103.46 125.897C103.46 130.783 103.482 131.395 103.566 133.315C103.65 135.227 103.96 136.542 104.403 137.681C104.867 138.869 105.478 139.875 106.484 140.873C107.482 141.872 108.488 142.49 109.669 142.948C110.815 143.39 112.123 143.7 114.035 143.784C115.955 143.869 116.567 143.89 121.453 143.89C126.34 143.89 126.952 143.869 128.871 143.784C130.784 143.7 132.099 143.39 133.238 142.948C134.419 142.49 135.425 141.872 136.423 140.873C137.421 139.875 138.04 138.869 138.497 137.688C138.94 136.542 139.25 135.234 139.334 133.322C139.418 131.402 139.439 130.79 139.439 125.904C139.439 121.017 139.418 120.405 139.334 118.486C139.25 116.573 138.94 115.258 138.497 114.119C138.054 112.924 137.442 111.919 136.437 110.92C135.439 109.922 134.433 109.303 133.252 108.846C132.106 108.403 130.798 108.094 128.885 108.009C126.959 107.918 126.347 107.897 121.46 107.897Z" fill="#5C3F3F"/>
<path d="M121.46 116.651C116.356 116.651 112.214 120.792 112.214 125.897C112.214 131.001 116.356 135.143 121.46 135.143C126.565 135.143 130.707 131.001 130.707 125.897C130.707 120.792 126.565 116.651 121.46 116.651ZM121.46 131.894C118.149 131.894 115.463 129.208 115.463 125.897C115.463 122.585 118.149 119.899 121.46 119.899C124.772 119.899 127.458 122.585 127.458 125.897C127.458 129.208 124.772 131.894 121.46 131.894Z" fill="#5C3F3F"/>
<path d="M133.231 116.285C133.231 117.48 132.26 118.444 131.072 118.444C129.877 118.444 128.914 117.473 128.914 116.285C128.914 115.09 129.884 114.126 131.072 114.126C132.26 114.126 133.231 115.097 133.231 116.285Z" fill="#5C3F3F"/>
</g>
<path d="M52.9338 145.128L44.3239 144.294L51.7836 139.915L51.3257 137.84L38.1641 136.496L38.7575 139.185L47.5465 139.805L39.9223 144.464L40.2666 146.025L49.1325 146.993L41.4277 151.287L42.0211 153.977L53.3916 147.203L52.9338 145.128Z" fill="#5C3F3F"/>
<path d="M42.7443 116.357C41.7637 117.075 41.222 118.01 41.1023 119.16C40.9668 120.462 41.309 121.608 42.1323 122.566C42.9387 123.521 44.0428 124.08 45.4293 124.225C46.8158 124.369 48.0265 124.068 49.0462 123.302C50.0659 122.537 50.6368 121.485 50.7741 120.166C50.8955 119 50.5749 117.975 49.7952 117.09L50.8605 117.201L51.0963 114.935L41.881 113.976L41.6452 116.242L42.7443 116.357ZM46.2479 116.687C46.9919 116.764 47.5911 117.083 48.0643 117.628C48.5374 118.173 48.7277 118.808 48.6503 119.552C48.5728 120.296 48.2558 120.878 47.6806 121.314C47.1054 121.75 46.4552 121.922 45.7112 121.844C44.9841 121.768 44.3831 121.467 43.9083 120.939C43.4351 120.394 43.2448 119.759 43.324 118.998C43.4014 118.254 43.7184 117.671 44.2936 117.236C44.8688 116.8 45.5208 116.611 46.2479 116.687Z" fill="#5C3F3F"/>
<path d="M52.8378 99.2533C52.9554 99.8899 52.924 100.438 52.771 100.87C52.482 101.688 51.8218 101.923 50.796 101.561L47.334 100.337L48.3539 97.4517L46.4626 96.7831L45.4427 99.6681L42.3493 98.5746L41.556 100.818L44.6494 101.912L44.1395 103.355L46.0308 104.023L46.535 102.597L50.1413 103.872C52.4013 104.671 53.9556 104.048 54.6639 102.045C55.0209 101.035 55.0808 100.1 54.8549 99.2091L52.8378 99.2533Z" fill="#5C3F3F"/>
<path d="M61.1616 88.4931C62.1791 86.8838 62.2557 84.9813 61.4182 83.5064L59.4198 84.5358C59.8915 85.3167 59.8531 86.459 59.3352 87.278C58.9446 87.8959 58.3929 88.2913 57.7127 88.4445C57.0182 88.5886 56.3594 88.4537 55.7128 88.0448C55.0805 87.6451 54.6852 87.0934 54.5319 86.4132C54.3643 85.724 54.485 85.0561 54.8938 84.4095C55.4298 83.5617 56.2591 83.1408 57.3492 83.1663L57.485 80.9793C55.6824 80.7447 54.0017 81.6531 52.9933 83.2481C52.212 84.4838 51.964 85.7349 52.2402 87.0158C52.5021 88.2876 53.2483 89.3024 54.4409 90.0565C55.6335 90.8105 56.8702 91.0494 58.1224 90.755C59.3745 90.4606 60.3893 89.7145 61.1616 88.4931Z" fill="#5C3F3F"/>
<path d="M70.2431 76.4064L66.8277 72.8041C65.8803 71.8048 65.8305 70.5168 66.7557 69.6396C67.607 68.8325 68.7235 68.8983 69.7411 69.9716L73.1916 73.6109L74.931 71.9617L71.0361 67.8536C70.1823 66.9531 69.2682 66.5078 68.3063 66.5063C67.3443 66.5047 66.4935 66.8428 65.7657 67.5329C64.8157 68.4335 64.4343 69.6619 64.6496 70.6056L61.3045 67.0773L59.6143 68.6797L68.5036 78.0556L70.2431 76.4064Z" fill="#5C3F3F"/>
<path d="M88.2782 57.5279C88.7778 58.8111 89.625 59.7218 90.8355 60.2538C92.046 60.7859 93.3276 60.7977 94.6742 60.2734C96.0207 59.7491 96.9569 58.8738 97.489 57.6632C98.021 56.4527 98.0293 55.2089 97.5297 53.9258C97.0362 52.6584 96.1891 51.7478 94.9786 51.2157C93.7619 50.6678 92.4802 50.656 91.1337 51.1803C89.7872 51.7046 88.851 52.5799 88.3251 53.8063C87.7931 55.0168 87.7848 56.2606 88.2782 57.5279ZM91.8777 58.1514C91.2271 57.8392 90.7771 57.3394 90.5119 56.6582C90.2466 55.977 90.2402 55.3045 90.5146 54.6504C90.7889 53.9963 91.2667 53.5366 91.9479 53.2714C92.6291 53.0062 93.2761 53.0279 93.9205 53.3243C94.565 53.6207 95.0308 54.1143 95.296 54.7955C95.5612 55.4767 95.5518 56.1553 95.2836 56.8253C95.0093 57.4794 94.5474 57.9329 93.8662 58.1981C93.185 58.4634 92.5222 58.4478 91.8777 58.1514Z" fill="#5C3F3F"/>
<path d="M111.633 55.7343C114.265 55.4087 115.663 53.6941 115.343 51.1128L114.686 45.7983L112.307 46.0926L112.965 51.4071C113.109 52.5712 112.511 53.416 111.364 53.5579C110.216 53.6998 109.431 53.0262 109.287 51.862L108.629 46.5475L106.25 46.8418L106.908 52.1563C107.227 54.7376 109.018 56.0578 111.633 55.7343Z" fill="#5C3F3F"/>
<path d="M126.915 55.0894L127.332 50.7062C127.514 48.7938 128.495 47.9992 129.849 48.128C130.187 48.1602 130.553 48.2633 130.931 48.4188L131.352 46.1535C130.992 45.9827 130.626 45.8795 130.254 45.8441C129.12 45.7362 128.227 46.1465 127.574 47.0918L127.691 45.8564L125.407 45.639L124.529 54.8624L126.915 55.0894Z" fill="#5C3F3F"/>
<path d="M147.314 59.8236L149.644 60.8184L154.578 49.265L152.249 48.2701L147.314 59.8236Z" fill="#5C3F3F"/>
<path d="M159.265 65.8746L162.107 61.8043C162.895 60.6752 164.146 60.3673 165.192 61.0971C166.154 61.7686 166.328 62.8853 165.481 64.098L162.61 68.2101L164.576 69.5822L167.816 64.9404C168.527 63.9229 168.779 62.9379 168.587 61.9953C168.395 61.0527 167.879 60.2776 167.056 59.7035C165.983 58.9542 164.707 58.8513 163.787 59.3079L164.527 58.2485L162.603 56.9056L157.3 64.5024L159.265 65.8746Z" fill="#5C3F3F"/>
<path d="M173.29 78.0237C174.028 78.8462 174.832 79.3352 175.693 79.454C176.564 79.5855 177.323 79.3618 177.968 78.7828C178.727 78.1016 178.957 77.1871 178.67 76.0519C178.601 75.7713 178.329 75.0102 177.853 73.7926C177.629 73.2628 177.65 72.8787 177.941 72.6176C178.257 72.3338 178.807 72.4117 179.227 72.8799C179.738 73.4493 179.987 74.1851 179.963 75.0746L181.909 74.9273C181.999 73.7043 181.602 72.5993 180.727 71.6249C180.035 70.8531 179.277 70.3907 178.465 70.2744C177.653 70.1582 176.944 70.3605 176.336 70.9055C175.526 71.6321 175.284 72.5579 175.619 73.6957C175.68 73.9156 175.814 74.3202 176.047 74.9106C176.28 75.5011 176.417 75.8577 176.469 76.0169C176.612 76.4822 176.557 76.8283 176.317 77.044C175.924 77.396 175.283 77.2408 174.795 76.6967C174.17 76.0008 173.89 74.9503 174.042 73.9232L172.064 73.9846C171.803 75.4752 172.212 76.8216 173.29 78.0237Z" fill="#5C3F3F"/>
<path d="M185.698 90.8364C185.138 90.5131 184.741 90.1339 184.511 89.7368C184.076 88.9868 184.325 88.3315 185.266 87.7858L188.443 85.944L189.977 88.5912L191.713 87.5851L190.178 84.9378L193.016 83.2921L191.823 81.2332L188.984 82.8789L188.217 81.5552L186.481 82.5614L187.24 83.8703L183.931 85.7889C181.858 86.9912 181.323 88.5781 182.389 90.4165C182.927 91.343 183.599 91.9946 184.424 92.4006L185.698 90.8364Z" fill="#5C3F3F"/>
<path d="M197.283 104.322C197.914 103.283 198.056 102.212 197.726 101.104C197.353 99.8492 196.597 98.9211 195.47 98.352C194.359 97.7781 193.125 97.6843 191.789 98.082C190.453 98.4797 189.45 99.2217 188.801 100.319C188.153 101.417 188.028 102.607 188.406 103.878C188.741 105.002 189.43 105.826 190.488 106.345L189.462 106.65L190.112 108.833L198.992 106.19L198.342 104.007L197.283 104.322ZM193.92 105.359C193.203 105.572 192.527 105.507 191.882 105.185C191.236 104.863 190.817 104.349 190.603 103.632C190.39 102.915 190.46 102.256 190.824 101.633C191.189 101.01 191.724 100.602 192.441 100.389C193.141 100.181 193.812 100.229 194.453 100.535C195.099 100.857 195.518 101.371 195.736 102.104C195.949 102.821 195.879 103.48 195.515 104.103C195.151 104.726 194.62 105.15 193.92 105.359Z" fill="#5C3F3F"/>
<path d="M200.319 125.134C201.134 124.35 201.537 123.389 201.511 122.25C201.48 120.907 200.996 119.796 200.074 118.916C199.153 118.036 198.004 117.603 196.627 117.635C195.25 117.666 194.138 118.117 193.257 119.004C192.377 119.892 191.96 121.007 191.991 122.366C192.019 123.556 192.431 124.499 193.246 125.194L192.771 125.205C191.275 125.239 190.18 124.21 190.138 122.375C190.113 121.287 190.445 120.191 191.151 119.104L189.328 118.21C188.456 119.472 188.047 120.909 188.083 122.49C188.118 124.003 188.588 125.233 189.477 126.165C190.365 127.097 191.566 127.545 193.045 127.512L201.389 127.32L201.339 125.111L200.319 125.134ZM196.665 120.048C197.413 120.031 198.03 120.255 198.535 120.737C199.039 121.218 199.308 121.824 199.325 122.555C199.341 123.286 199.1 123.904 198.619 124.408C198.137 124.912 197.531 125.164 196.783 125.181C196.035 125.198 195.401 124.975 194.88 124.494C194.376 124.012 194.107 123.406 194.09 122.675C194.073 121.944 194.314 121.327 194.796 120.823C195.277 120.318 195.901 120.066 196.665 120.048Z" fill="#5C3F3F"/>
<path d="M190.76 139.302L195.069 140.207C196.949 140.603 197.629 141.666 197.349 142.997C197.28 143.33 197.136 143.682 196.939 144.04L199.143 144.711C199.353 144.373 199.497 144.021 199.574 143.655C199.808 142.541 199.5 141.608 198.634 140.852L199.848 141.107L200.32 138.862L191.253 136.956L190.76 139.302Z" fill="#5C3F3F"/>
<path d="M192.29 160.256C193.452 159.898 194.27 159.192 194.76 158.145C195.314 156.959 195.366 155.764 194.901 154.589C194.452 153.423 193.592 152.533 192.329 151.942C191.066 151.352 189.823 151.241 188.609 151.63C187.395 152.02 186.511 152.827 185.95 154.028C185.453 155.091 185.421 156.164 185.868 157.255L184.898 156.801L183.933 158.865L192.327 162.788L193.292 160.724L192.29 160.256ZM189.088 158.797C188.41 158.48 187.949 157.983 187.68 157.313C187.411 156.643 187.439 155.981 187.756 155.303C188.073 154.626 188.563 154.179 189.249 153.956C189.935 153.732 190.606 153.783 191.283 154.1C191.946 154.409 192.415 154.891 192.691 155.545C192.959 156.215 192.931 156.878 192.607 157.571C192.291 158.248 191.8 158.695 191.114 158.918C190.428 159.142 189.75 159.106 189.088 158.797Z" fill="#5C3F3F"/>
<path d="M178.498 182.137C179.439 181.132 179.851 179.795 179.57 178.601C180.689 178.973 181.831 178.574 182.62 177.73C183.457 176.86 183.741 175.636 183.393 174.589L184.362 175.495L185.964 173.781L179.198 167.452L177.561 169.203L181.26 172.664C182.266 173.604 182.319 174.817 181.517 175.674C180.739 176.506 179.656 176.494 178.651 175.553L174.901 172.046L173.264 173.797L176.976 177.269C177.969 178.198 178.034 179.399 177.209 180.28C176.454 181.087 175.397 181.122 174.367 180.159L170.605 176.64L168.967 178.391L173.052 182.211C173.958 183.059 174.897 183.448 175.894 183.403C176.879 183.37 177.743 182.944 178.498 182.137Z" fill="#5C3F3F"/>
<path d="M148.582 190.864C147.305 191.379 146.413 192.123 145.891 193.103C145.37 194.083 145.318 195.093 145.738 196.134C146.258 197.427 147.308 198.122 148.893 198.235C149.25 198.256 149.805 198.271 150.56 198.278L151.914 198.319C152.672 198.38 153.14 198.632 153.324 199.089C153.597 199.767 153.207 200.437 152.277 200.812C151.41 201.161 150.21 201.186 149.284 200.753L148.724 202.958C150.191 203.595 151.678 203.601 153.191 202.991C154.358 202.521 155.187 201.803 155.668 200.858C156.148 199.913 156.187 198.962 155.793 197.985C155.298 196.755 154.295 196.04 152.78 195.826C152.394 195.78 151.848 195.743 151.154 195.748C150.443 195.759 150.008 195.77 149.818 195.754C148.975 195.709 148.463 195.439 148.273 194.966C147.974 194.225 148.481 193.434 149.443 193.047C150.641 192.564 152.005 192.674 153.187 193.426L153.874 191.262C152.346 190.246 150.395 190.134 148.582 190.864Z" fill="#5C3F3F"/>
<path d="M130.669 198.427C131.172 198.02 131.668 197.785 132.122 197.713C132.978 197.576 133.5 198.043 133.672 199.117L134.253 202.743L131.232 203.227L131.549 205.208L134.571 204.723L135.09 207.963L137.44 207.587L136.921 204.347L138.432 204.105L138.114 202.124L136.62 202.363L136.015 198.587C135.636 196.22 134.346 195.153 132.247 195.489C131.19 195.658 130.341 196.053 129.666 196.677L130.669 198.427Z" fill="#5C3F3F"/>
<path d="M121.776 201.45C121.874 200.076 121.498 198.891 120.632 197.892C119.766 196.892 118.612 196.333 117.171 196.23C115.73 196.128 114.509 196.518 113.51 197.384C112.511 198.25 111.971 199.371 111.873 200.744C111.776 202.101 112.152 203.286 113.018 204.285C113.883 205.301 115.036 205.861 116.477 205.964C117.919 206.066 119.14 205.676 120.14 204.793C121.139 203.927 121.679 202.806 121.776 201.45ZM118.79 199.345C119.244 199.906 119.437 200.55 119.385 201.279C119.333 202.009 119.051 202.619 118.523 203.093C117.995 203.566 117.366 203.777 116.637 203.725C115.908 203.673 115.332 203.377 114.877 202.833C114.421 202.289 114.212 201.644 114.264 200.914C114.316 200.185 114.615 199.576 115.144 199.085C115.672 198.612 116.284 198.4 117.013 198.452C117.742 198.504 118.334 198.801 118.79 199.345Z" fill="#5C3F3F"/>
<path d="M101.569 193.808L100.288 198.02C99.7295 199.858 98.6103 200.442 97.3091 200.046C96.9838 199.947 96.6458 199.773 96.3063 199.546L95.4435 201.682C95.7618 201.921 96.0998 202.095 96.4577 202.204C97.5474 202.535 98.504 202.311 99.3325 201.514L98.9716 202.702L101.167 203.369L103.862 194.505L101.569 193.808Z" fill="#5C3F3F"/>
<path d="M84.1865 198.42C83.4336 198.67 82.9917 199.552 83.2495 200.29C83.4996 201.043 84.381 201.484 85.1339 201.234C85.8792 200.999 86.3211 200.118 86.071 199.365C85.8209 198.612 84.9394 198.17 84.1865 198.42ZM84.7201 197.052L86.8629 198.127L91.0148 189.844L88.872 188.77L84.7201 197.052Z" fill="#5C3F3F"/>
<path d="M71.746 183.134C70.855 184.272 70.5111 185.428 70.68 186.618C70.8489 187.809 71.4701 188.835 72.5274 189.663C73.6516 190.544 74.8447 190.895 76.12 190.728C77.3954 190.561 78.4562 189.924 79.3263 188.813C80.1544 187.755 80.5327 186.583 80.4267 185.313C80.3207 184.042 79.6372 182.902 78.3524 181.896C77.1479 180.952 75.8286 180.459 74.381 180.404L74.0927 182.316C75.0571 182.381 76.2351 182.807 77.0247 183.425C78.1756 184.327 78.4761 185.404 77.9366 186.645L72.4629 182.357C72.1921 182.62 71.9452 182.88 71.746 183.134ZM73.7538 188.097C72.7903 187.343 72.5585 186.233 73.1288 185.146L76.8359 188.05C75.8641 188.822 74.7041 188.842 73.7538 188.097Z" fill="#5C3F3F"/>
<path d="M66.5902 170.486C65.8986 169.624 65.1225 169.092 64.27 168.926C63.4069 168.746 62.6372 168.928 61.961 169.471C61.1655 170.109 60.8855 171.01 61.1103 172.159C61.1638 172.443 61.3933 173.218 61.8014 174.46C61.9961 175.001 61.9542 175.383 61.6493 175.628C61.3178 175.894 60.7734 175.786 60.3797 175.295C59.9009 174.699 59.6926 173.95 59.7656 173.064L57.8143 173.104C57.6568 174.32 57.9931 175.445 58.8124 176.466C59.4615 177.275 60.1923 177.778 60.997 177.939C61.8017 178.1 62.521 177.937 63.1574 177.426C64.0059 176.745 64.2992 175.834 64.0266 174.679C63.9785 174.456 63.8664 174.045 63.6663 173.443C63.4663 172.84 63.3489 172.477 63.3062 172.315C63.1886 171.842 63.2624 171.5 63.5143 171.298C63.9253 170.968 64.5575 171.158 65.015 171.728C65.6003 172.457 65.8223 173.522 65.6141 174.539L67.5921 174.586C67.935 173.112 67.601 171.745 66.5902 170.486Z" fill="#5C3F3F"/>
<defs>
<clipPath id="clip0_31_557">
<rect width="36" height="36" fill="white" transform="translate(103.46 107.897)"/>
</clipPath>
</defs>
</svg>
