<svg width="310" height="198" viewBox="0 0 310 198" fill="none" xmlns="http://www.w3.org/2000/svg">
<path d="M23.725 58C31.07 58 36.79 55.855 40.95 51.565C45.175 47.275 47.255 41.425 47.255 34.08C47.255 26.605 45.175 20.755 41.08 16.465C36.985 12.11 31.33 9.965 24.115 9.965H5.33V58H23.725ZM14.95 19.195H24.18C28.34 19.195 31.525 20.625 33.8 23.42C36.075 26.215 37.245 29.66 37.245 33.885C37.245 38.175 36.075 41.75 33.8 44.545C31.525 47.34 28.34 48.77 24.18 48.77H14.95V19.195ZM62.8276 16.985C64.9726 14.84 64.9726 11.07 62.8276 8.99C60.6826 6.845 56.9126 6.845 54.7676 8.99C52.6226 11.07 52.6226 14.84 54.7676 16.985C56.9126 19.13 60.6826 19.13 62.8276 16.985ZM63.3476 22.575H54.1826V58H63.3476V22.575ZM83.3386 58.91C87.5636 58.91 91.0086 57.87 93.5436 55.725C96.1436 53.58 97.4436 50.85 97.4436 47.535C97.4436 43.635 95.4286 40.645 91.4636 38.565C90.4886 38.045 87.6286 36.875 82.9486 35.12C80.8686 34.405 79.8286 33.365 79.8286 31.87C79.8286 30.245 81.4536 28.88 83.8586 28.88C86.7836 28.88 89.5136 30.05 91.9836 32.39L96.5336 26.475C93.2836 23.095 89.1236 21.405 84.1186 21.405C80.1536 21.405 76.9036 22.38 74.4986 24.395C72.0936 26.41 70.8586 28.945 70.8586 32.065C70.8586 36.225 72.8736 39.28 76.9686 41.23C77.7486 41.62 79.2436 42.27 81.5186 43.115C83.7936 43.96 85.1586 44.48 85.7436 44.74C87.4336 45.52 88.2786 46.56 88.2786 47.795C88.2786 49.81 86.1986 51.24 83.4036 51.24C79.8286 51.24 76.1236 49.355 73.5886 46.3L68.7136 52.085C72.2886 56.635 77.1636 58.91 83.3386 58.91ZM120.528 58.78C127.808 58.78 134.113 55.14 137.168 49.42L129.758 45.065C128.198 48.185 124.428 50.395 120.723 50.395C117.928 50.395 115.523 49.42 113.638 47.535C111.753 45.585 110.843 43.18 110.843 40.255C110.843 37.395 111.818 34.99 113.703 33.105C115.588 31.155 117.993 30.18 120.918 30.18C124.753 30.18 127.808 32 129.953 35.575L137.298 31.545C134.373 25.24 128.003 21.665 120.788 21.665C115.198 21.665 110.648 23.42 107.073 26.93C103.498 30.375 101.743 34.86 101.743 40.255C101.743 45.65 103.498 50.135 107.008 53.58C110.518 57.025 115.003 58.78 120.528 58.78ZM140.781 40.255C140.781 45.52 142.536 49.94 146.111 53.515C149.686 57.09 154.236 58.91 159.761 58.91C165.286 58.91 169.836 57.09 173.411 53.515C176.986 49.94 178.741 45.52 178.741 40.255C178.741 35.055 176.986 30.635 173.411 27.06C169.836 23.42 165.286 21.6 159.761 21.6C154.236 21.6 149.686 23.42 146.111 27.06C142.536 30.635 140.781 35.055 140.781 40.255ZM152.741 47.47C150.856 45.455 149.946 43.05 149.946 40.255C149.946 37.46 150.856 35.055 152.741 33.105C154.626 31.155 156.966 30.18 159.761 30.18C162.556 30.18 164.831 31.155 166.716 33.105C168.601 35.055 169.576 37.46 169.576 40.255C169.576 43.05 168.601 45.455 166.716 47.47C164.831 49.42 162.556 50.395 159.761 50.395C156.966 50.395 154.626 49.42 152.741 47.47ZM198.758 45.52L189.853 22.575H179.778L195.118 57.935H202.138L217.543 22.575H207.468L198.758 45.52ZM254.746 39.475C254.746 33.95 253.056 29.66 249.741 26.475C246.426 23.29 242.136 21.665 237.001 21.665C231.541 21.665 227.121 23.42 223.676 26.93C220.231 30.44 218.541 34.86 218.541 40.255C218.541 45.39 220.166 49.81 223.481 53.385C226.796 56.96 231.541 58.78 237.781 58.78C243.631 58.78 248.766 57.155 253.251 53.905L249.611 47.47C246.556 49.55 242.006 51.045 238.171 51.045C232.581 51.045 229.136 48.51 227.836 43.505H254.421C254.616 42.075 254.746 40.71 254.746 39.475ZM237.001 29.27C241.681 29.27 244.996 32.065 245.841 36.68H227.836C228.941 32.065 232.386 29.27 237.001 29.27ZM270.215 58V41.165C270.215 33.82 273.66 30.44 278.86 30.44C280.16 30.44 281.59 30.7 283.085 31.155L283.865 22.38C282.435 21.86 281.005 21.6 279.575 21.6C275.22 21.6 271.97 23.485 269.825 27.32V22.575H261.05V58H270.215ZM14.82 139V111.765L28.795 131.85H32.11L46.085 111.765V139H55.705V90.965H49.205L30.55 118.2L11.7 90.965H5.33V139H14.82ZM62.8316 121.255C62.8316 126.52 64.5866 130.94 68.1616 134.515C71.7366 138.09 76.2866 139.91 81.8116 139.91C87.3366 139.91 91.8866 138.09 95.4616 134.515C99.0366 130.94 100.792 126.52 100.792 121.255C100.792 116.055 99.0366 111.635 95.4616 108.06C91.8866 104.42 87.3366 102.6 81.8116 102.6C76.2866 102.6 71.7366 104.42 68.1616 108.06C64.5866 111.635 62.8316 116.055 62.8316 121.255ZM74.7916 128.47C72.9066 126.455 71.9966 124.05 71.9966 121.255C71.9966 118.46 72.9066 116.055 74.7916 114.105C76.6766 112.155 79.0166 111.18 81.8116 111.18C84.6066 111.18 86.8816 112.155 88.7666 114.105C90.6516 116.055 91.6266 118.46 91.6266 121.255C91.6266 124.05 90.6516 126.455 88.7666 128.47C86.8816 130.42 84.6066 131.395 81.8116 131.395C79.0166 131.395 76.6766 130.42 74.7916 128.47ZM116.411 139V122.165C116.411 114.82 119.856 111.44 125.056 111.44C126.356 111.44 127.786 111.7 129.281 112.155L130.061 103.38C128.631 102.86 127.201 102.6 125.771 102.6C121.416 102.6 118.166 104.485 116.021 108.32V103.575H107.246V139H116.411ZM167.783 120.475C167.783 114.95 166.093 110.66 162.778 107.475C159.463 104.29 155.173 102.665 150.038 102.665C144.578 102.665 140.158 104.42 136.713 107.93C133.268 111.44 131.578 115.86 131.578 121.255C131.578 126.39 133.203 130.81 136.518 134.385C139.833 137.96 144.578 139.78 150.818 139.78C156.668 139.78 161.803 138.155 166.288 134.905L162.648 128.47C159.593 130.55 155.043 132.045 151.208 132.045C145.618 132.045 142.173 129.51 140.873 124.505H167.458C167.653 123.075 167.783 121.71 167.783 120.475ZM150.038 110.27C154.718 110.27 158.033 113.065 158.878 117.68H140.873C141.978 113.065 145.423 110.27 150.038 110.27Z" fill="#5C3F3F"/>
<path d="M265.039 108.727L265.037 106.727L267.037 106.725L267.039 108.725L265.039 108.727ZM224.954 151.724C224.174 152.506 222.907 152.507 222.126 151.727C221.344 150.946 221.342 149.68 222.123 148.898L224.954 151.724ZM231.803 106.76L265.037 106.727L265.041 110.727L231.807 110.76L231.803 106.76ZM267.039 108.725L267.073 141.959L263.073 141.963L263.039 108.729L267.039 108.725ZM266.455 110.14L224.954 151.724L222.123 148.898L263.624 107.314L266.455 110.14Z" fill="#5C3F3F"/>
</svg>
