<svg width="791" height="173" viewBox="0 0 791 173" fill="none" xmlns="http://www.w3.org/2000/svg">
<path d="M217.838 141H226.629V97.399H217.838V141ZM243.36 141V123.772C243.36 118.993 246.31 115.63 250.735 115.63C254.806 115.63 257.52 118.462 257.52 123.595V141H265.839V121.353C265.839 117.046 264.6 113.742 262.181 111.441C259.762 109.14 256.753 107.96 253.272 107.96C248.729 107.96 244.894 110.202 243.183 113.329V108.845H235.041V141H243.36ZM283.691 141.826C287.526 141.826 290.653 140.882 292.954 138.935C295.314 136.988 296.494 134.51 296.494 131.501C296.494 127.961 294.665 125.247 291.066 123.359C290.181 122.887 287.585 121.825 283.337 120.232C281.449 119.583 280.505 118.639 280.505 117.282C280.505 115.807 281.98 114.568 284.163 114.568C286.818 114.568 289.296 115.63 291.538 117.754L295.668 112.385C292.718 109.317 288.942 107.783 284.399 107.783C280.8 107.783 277.85 108.668 275.667 110.497C273.484 112.326 272.363 114.627 272.363 117.459C272.363 121.235 274.192 124.008 277.909 125.778C278.617 126.132 279.974 126.722 282.039 127.489C284.104 128.256 285.343 128.728 285.874 128.964C287.408 129.672 288.175 130.616 288.175 131.737C288.175 133.566 286.287 134.864 283.75 134.864C280.505 134.864 277.142 133.153 274.841 130.38L270.416 135.631C273.661 139.761 278.086 141.826 283.691 141.826ZM322.472 132.563C320.525 133.684 318.696 134.215 317.103 134.215C314.094 134.215 312.56 132.327 312.56 128.551V115.807H323.18V108.845H312.56V97.458H304.3V108.845H298.99V115.807H304.241V129.082C304.241 137.401 308.076 141.767 315.451 141.767C319.168 141.767 322.295 140.882 324.95 139.112L322.472 132.563ZM352.923 112.68C350.091 109.553 346.669 108.019 342.657 108.019C338.114 108.019 334.279 109.612 331.27 112.798C328.261 115.925 326.727 119.937 326.727 124.775C326.727 129.613 328.202 133.684 331.211 136.929C334.22 140.174 338.055 141.767 342.657 141.767C346.728 141.767 350.15 140.292 352.923 137.283V141H360.829V108.845H352.923V112.68ZM353.041 124.893C353.041 127.489 352.156 129.672 350.445 131.501C348.734 133.33 346.61 134.215 344.014 134.215C341.418 134.215 339.294 133.33 337.583 131.501C335.872 129.672 335.046 127.489 335.046 124.893C335.046 122.356 335.872 120.173 337.524 118.344C339.235 116.515 341.359 115.63 344.014 115.63C346.61 115.63 348.734 116.515 350.445 118.344C352.156 120.173 353.041 122.356 353.041 124.893ZM392.912 112.385C390.257 109.494 386.953 108.019 383 108.019C378.339 108.019 374.445 109.612 371.318 112.739C368.191 115.866 366.598 119.819 366.598 124.598C366.598 129.377 368.073 133.271 371.082 136.398C374.091 139.525 377.926 141.059 382.646 141.059C386.776 141.059 390.08 139.702 392.558 136.929V138.581C392.558 143.773 388.9 147.49 382.528 147.49C378.752 147.49 374.976 146.251 371.259 143.714L368.014 149.968C372.321 153.095 377.277 154.629 382.764 154.629C388.015 154.629 392.322 153.095 395.626 150.086C398.93 147.077 400.582 142.947 400.582 137.814V108.845H392.912V112.385ZM374.976 124.657C374.976 122.061 375.802 119.937 377.513 118.226C379.224 116.515 381.348 115.63 383.885 115.63C386.422 115.63 388.546 116.515 390.257 118.226C391.968 119.937 392.794 122.061 392.794 124.657C392.794 127.253 391.968 129.436 390.257 131.206C388.546 132.917 386.422 133.802 383.885 133.802C381.348 133.802 379.224 132.917 377.513 131.206C375.802 129.495 374.976 127.312 374.976 124.657ZM416.442 141V125.719C416.442 119.052 419.569 115.984 424.289 115.984C425.469 115.984 426.767 116.22 428.124 116.633L428.832 108.668C427.534 108.196 426.236 107.96 424.938 107.96C420.985 107.96 418.035 109.671 416.088 113.152V108.845H408.123V141H416.442ZM456.346 112.68C453.514 109.553 450.092 108.019 446.08 108.019C441.537 108.019 437.702 109.612 434.693 112.798C431.684 115.925 430.15 119.937 430.15 124.775C430.15 129.613 431.625 133.684 434.634 136.929C437.643 140.174 441.478 141.767 446.08 141.767C450.151 141.767 453.573 140.292 456.346 137.283V141H464.252V108.845H456.346V112.68ZM456.464 124.893C456.464 127.489 455.579 129.672 453.868 131.501C452.157 133.33 450.033 134.215 447.437 134.215C444.841 134.215 442.717 133.33 441.006 131.501C439.295 129.672 438.469 127.489 438.469 124.893C438.469 122.356 439.295 120.173 440.947 118.344C442.658 116.515 444.782 115.63 447.437 115.63C450.033 115.63 452.157 116.515 453.868 118.344C455.579 120.173 456.464 122.356 456.464 124.893ZM510.613 107.96C505.834 107.96 501.468 110.084 499.108 113.624C497.397 109.907 493.68 107.96 489.668 107.96C485.479 107.901 481.703 110.084 479.874 113.447V108.845H471.732V141H480.051V123.418C480.051 118.639 483.001 115.63 487.072 115.63C491.025 115.63 493.562 118.403 493.562 123.182V141H501.881V123.359C501.881 118.639 504.772 115.63 508.961 115.63C512.796 115.63 515.392 118.226 515.392 123.123V141H523.711V121.589C523.711 117.282 522.472 113.978 519.994 111.559C517.575 109.14 514.448 107.96 510.613 107.96ZM555.218 141V123.654H573.095V115.453H555.218V105.659H575.573V97.399H546.486V141H555.218ZM611.206 124.185C611.206 119.17 609.672 115.276 606.663 112.385C603.654 109.494 599.76 108.019 595.099 108.019C590.143 108.019 586.131 109.612 583.004 112.798C579.877 115.984 578.343 119.996 578.343 124.893C578.343 129.554 579.818 133.566 582.827 136.811C585.836 140.056 590.143 141.708 595.807 141.708C601.117 141.708 605.778 140.233 609.849 137.283L606.545 131.442C603.772 133.33 599.642 134.687 596.161 134.687C591.087 134.687 587.96 132.386 586.78 127.843H610.911C611.088 126.545 611.206 125.306 611.206 124.185ZM595.099 114.922C599.347 114.922 602.356 117.459 603.123 121.648H586.78C587.783 117.459 590.91 114.922 595.099 114.922ZM648.138 124.185C648.138 119.17 646.604 115.276 643.595 112.385C640.586 109.494 636.692 108.019 632.031 108.019C627.075 108.019 623.063 109.612 619.936 112.798C616.809 115.984 615.275 119.996 615.275 124.893C615.275 129.554 616.75 133.566 619.759 136.811C622.768 140.056 627.075 141.708 632.739 141.708C638.049 141.708 642.71 140.233 646.781 137.283L643.477 131.442C640.704 133.33 636.574 134.687 633.093 134.687C628.019 134.687 624.892 132.386 623.712 127.843H647.843C648.02 126.545 648.138 125.306 648.138 124.185ZM632.031 114.922C636.279 114.922 639.288 117.459 640.055 121.648H623.712C624.715 117.459 627.842 114.922 632.031 114.922ZM677.873 112.562C675.218 109.553 671.973 108.019 668.079 108.019C663.536 108.019 659.76 109.612 656.692 112.857C653.683 116.102 652.149 120.114 652.149 124.893C652.149 129.731 653.683 133.743 656.692 136.988C659.701 140.174 663.536 141.767 668.079 141.767C672.15 141.767 675.454 140.174 678.05 137.047V141H686.192V96.16H677.873V112.562ZM678.286 124.893C678.286 127.548 677.46 129.731 675.808 131.56C674.156 133.33 672.032 134.215 669.377 134.215C666.722 134.215 664.598 133.33 662.887 131.56C661.235 129.731 660.409 127.548 660.409 124.893C660.409 122.297 661.235 120.114 662.887 118.344C664.598 116.515 666.722 115.63 669.377 115.63C672.032 115.63 674.156 116.515 675.808 118.344C677.46 120.114 678.286 122.297 678.286 124.893Z" fill="black"/>
<circle cx="75.5" cy="75.5" r="75.5" fill="#FDC32D"/>
<path d="M83.5816 49.8345C86.959 46.6506 92.4747 49.3864 91.9834 54.0019L90.4006 68.8723C90.2461 70.3234 90.7333 71.7695 91.7343 72.8314L101.993 83.7126C105.177 87.09 102.441 92.6057 97.8252 92.1144L82.9548 90.5316C81.5037 90.3771 80.0576 90.8643 78.9958 91.8653L68.1145 102.124C64.7372 105.308 59.2215 102.572 59.7127 97.9562L61.2956 83.0858C61.45 81.6347 60.9628 80.1886 59.9618 79.1268L49.7035 68.2455C46.5196 64.8682 49.2554 59.3525 53.8709 59.8438L68.7413 61.4266C70.1924 61.581 71.6385 61.0938 72.7004 60.0928L83.5816 49.8345Z" fill="black"/>
<path d="M709.183 85.3916C710.566 85.0458 711.69 84.844 712.785 84.4694C723.852 80.7228 733.708 74.6996 743.074 67.8406C744.169 67.0336 745.207 66.0249 745.899 64.901C746.273 64.2958 746.216 63.0853 745.841 62.3937C745.553 61.8749 744.429 61.5003 743.795 61.6156C742.584 61.8173 741.345 62.2496 740.25 62.8548C733.016 66.8319 725.811 70.8378 718.635 74.9013C715.955 76.4287 713.304 78.0426 710.652 79.6277C709.759 80.1465 708.894 80.7228 708.087 81.3281C707.165 81.9909 706.618 82.9996 707.223 84.0083C707.626 84.6711 707.914 85.3916 709.183 85.3916Z" fill="#AE47DE"/>
<path d="M666.269 44.5839C666.5 45.9672 666.673 47.5811 667.019 49.1374C668.402 55.2759 669.785 61.4144 671.226 67.5242C671.543 68.8499 672.091 70.1467 672.725 71.3283C673.561 72.9134 674.742 73.461 676.039 73.2016C677.336 72.9422 678.143 71.9047 678.172 70.0891C678.201 68.8499 678.172 67.5241 677.884 66.3426C675.924 58.5901 673.907 50.8377 671.86 43.1141C671.63 42.2495 671.226 41.3561 670.65 40.6933C669.238 39.0217 667.019 39.5405 666.471 41.6731C666.269 42.5089 666.356 43.4599 666.269 44.5839Z" fill="#AE47DE"/>
<path d="M743.535 125.566C744.889 125.451 746.244 125.163 747.57 124.817C748.751 124.5 749.587 123.693 749.702 122.396C749.789 121.301 748.694 120.119 747.253 119.946C745.322 119.716 743.362 119.514 741.431 119.6C735.61 119.86 729.759 120.234 723.938 120.638C722.007 120.782 720.076 121.041 718.145 121.358C717.482 121.474 716.79 121.704 716.272 122.079C714.802 123.088 714.917 124.932 716.502 125.653C717.396 126.056 718.491 126.229 719.471 126.229C722.698 126.373 738.751 125.941 743.535 125.566Z" fill="#AE47DE"/>
</svg>
