<svg width="553" height="134" viewBox="0 0 553 134" fill="none" xmlns="http://www.w3.org/2000/svg">
<path d="M14.2538 82H19.7408V43.709H32.7208V38.399H1.27375V43.709H14.2538V82ZM45.0107 81.941L53.7427 57.751L62.7107 81.941H67.0177L77.5787 50.435H72.0917L64.7167 74.566L55.5717 50.435H51.9137L43.0637 74.566L35.3937 50.435H29.9067L40.7037 81.941H45.0107ZM85.6018 45.833C87.7258 45.833 89.4368 44.122 89.4368 41.939C89.4368 39.756 87.7258 38.104 85.6018 38.104C83.3008 38.104 81.6488 39.756 81.6488 41.939C81.6488 44.122 83.3008 45.833 85.6018 45.833ZM88.1388 50.435H82.8878V82H88.1388V50.435ZM115.291 76.041C113.285 77.28 111.397 77.929 109.568 77.929C106.087 77.929 104.376 75.805 104.376 71.557V54.978H115.645V50.435H104.376V39.284H99.1843V50.435H93.5203V54.978H99.1253V71.026C99.1253 78.519 102.488 82.767 109.096 82.767C112.341 82.767 115.114 81.882 117.356 80.112L115.291 76.041ZM140.182 76.041C138.176 77.28 136.288 77.929 134.459 77.929C130.978 77.929 129.267 75.805 129.267 71.557V54.978H140.536V50.435H129.267V39.284H124.075V50.435H118.411V54.978H124.016V71.026C124.016 78.519 127.379 82.767 133.987 82.767C137.232 82.767 140.005 81.882 142.247 80.112L140.182 76.041ZM175.527 65.657C175.527 60.76 174.111 56.866 171.279 53.975C168.447 51.084 164.789 49.668 160.364 49.668C155.703 49.668 151.868 51.202 148.918 54.329C145.968 57.456 144.493 61.35 144.493 66.129C144.493 74.389 149.39 82.708 161.249 82.708C166.5 82.708 171.692 80.702 174.76 78.283L172.518 74.212C169.509 76.336 165.143 77.811 161.367 77.811C154.523 77.811 150.924 73.917 150.039 68.43H175.35C175.468 67.014 175.527 66.07 175.527 65.657ZM160.364 54.447C165.615 54.447 169.686 58.046 169.981 63.71H150.039C150.924 58.223 154.936 54.447 160.364 54.447ZM187.644 82V65.008C187.644 58.223 191.302 54.683 196.435 54.683C197.438 54.683 198.559 54.86 199.68 55.214L200.152 50.081C198.913 49.786 197.733 49.609 196.494 49.609C192.246 49.609 189.178 51.438 187.349 55.155V50.435H182.393V82H187.644Z" fill="black"/>
<path d="M508.602 44.7557L508.6 42.7557L510.6 42.7537L510.602 44.7537L508.602 44.7557ZM468.516 87.7525C467.736 88.5343 466.47 88.5356 465.688 87.7553C464.906 86.975 464.905 85.7087 465.685 84.9269L468.516 87.7525ZM475.366 42.7889L508.6 42.7557L508.604 46.7557L475.37 46.7889L475.366 42.7889ZM510.602 44.7537L510.635 77.9877L506.635 77.9917L506.602 44.7577L510.602 44.7537ZM510.017 46.1685L468.516 87.7525L465.685 84.9269L507.186 43.3429L510.017 46.1685Z" fill="black"/>
</svg>
