<svg width="553" height="134" viewBox="0 0 553 134" fill="none" xmlns="http://www.w3.org/2000/svg">
<path d="M5.91555 82H11.3435V38.399H5.91555V82ZM26.6969 82V64.418C26.6969 61.527 27.5229 59.108 29.1749 57.279C30.8269 55.45 32.9509 54.506 35.6059 54.506C40.5029 54.506 43.8659 58.046 43.8659 64.418V82H49.1169V62.884C49.1169 58.577 47.9369 55.332 45.5179 53.031C43.0989 50.73 40.1489 49.609 36.6089 49.609C31.9479 49.609 28.5849 51.379 26.5789 54.919V50.435H21.4459V82H26.6969ZM66.2421 82.708C69.4871 82.708 72.2011 81.764 74.2661 79.935C76.3311 78.106 77.3931 75.864 77.3931 73.209C77.3931 69.787 75.6231 67.132 72.0241 65.244C71.1391 64.772 69.7231 64.123 67.8941 63.356L64.2951 61.704C62.5841 60.878 61.6991 59.58 61.6991 57.869C61.6991 55.686 63.3511 53.857 66.3601 53.857C69.1921 53.857 71.4341 55.096 73.0271 57.574L76.5671 54.447C74.6791 51.143 70.7261 49.373 66.7141 49.373C63.7051 49.373 61.2271 50.199 59.3981 51.851C57.5691 53.503 56.6841 55.568 56.6841 58.105C56.6841 61.409 58.2771 63.946 61.4041 65.657C62.1121 66.07 63.4101 66.66 65.3571 67.486C67.3041 68.312 68.5431 68.902 69.1921 69.256C71.1981 70.377 72.2011 71.793 72.2011 73.504C72.2011 75.923 69.9001 78.047 66.4191 78.047C63.5281 78.047 60.5781 76.336 58.7491 72.973L54.7371 75.746C57.0971 80.407 61.5221 82.708 66.2421 82.708ZM102.075 76.041C100.069 77.28 98.1809 77.929 96.3519 77.929C92.8709 77.929 91.1599 75.805 91.1599 71.557V54.978H102.429V50.435H91.1599V39.284H85.9679V50.435H80.3039V54.978H85.9089V71.026C85.9089 78.519 89.2719 82.767 95.8799 82.767C99.1249 82.767 101.898 81.882 104.14 80.112L102.075 76.041ZM133.408 55.096C130.517 51.497 126.741 49.668 122.139 49.668C117.596 49.668 113.82 51.202 110.811 54.329C107.802 57.397 106.327 61.291 106.327 66.011C106.327 70.79 107.802 74.743 110.811 77.988C113.82 81.174 117.596 82.767 122.139 82.767C126.8 82.767 130.517 80.997 133.408 77.457V82H138.482V50.435H133.408V55.096ZM133.821 66.188C133.821 69.492 132.759 72.265 130.694 74.566C128.629 76.808 125.974 77.929 122.67 77.929C119.366 77.929 116.711 76.808 114.646 74.566C112.64 72.265 111.637 69.492 111.637 66.247C111.637 62.943 112.64 60.17 114.646 57.928C116.711 55.627 119.366 54.506 122.67 54.506C125.974 54.506 128.629 55.627 130.694 57.928C132.759 60.17 133.821 62.943 133.821 66.188ZM172.53 54.565C169.757 51.32 166.099 49.668 161.556 49.668C157.013 49.668 153.237 51.202 150.11 54.329C146.983 57.456 145.449 61.291 145.449 65.834C145.449 70.436 146.983 74.271 149.992 77.398C153.001 80.525 156.777 82.059 161.32 82.059C165.981 82.059 169.698 80.407 172.53 77.103V79.699C172.53 82.944 171.468 85.54 169.344 87.546C167.279 89.611 164.447 90.614 160.966 90.614C156.895 90.614 153.119 89.316 149.697 86.779L147.16 90.968C151.231 93.918 155.833 95.393 160.966 95.393C166.099 95.393 170.17 93.918 173.179 90.909C176.247 87.9 177.781 83.888 177.781 78.755V50.435H172.53V54.565ZM161.851 54.447C165.037 54.447 167.692 55.509 169.757 57.692C171.881 59.875 172.943 62.589 172.943 65.834C172.943 69.079 171.881 71.852 169.757 74.035C167.692 76.218 165.037 77.28 161.851 77.28C158.665 77.28 156.01 76.218 153.886 74.035C151.821 71.852 150.759 69.138 150.759 65.834C150.759 62.589 151.821 59.875 153.886 57.692C155.951 55.509 158.606 54.447 161.851 54.447ZM192.001 82V65.008C192.001 58.223 195.659 54.683 200.792 54.683C201.795 54.683 202.916 54.86 204.037 55.214L204.509 50.081C203.27 49.786 202.09 49.609 200.851 49.609C196.603 49.609 193.535 51.438 191.706 55.155V50.435H186.75V82H192.001ZM232.913 55.096C230.022 51.497 226.246 49.668 221.644 49.668C217.101 49.668 213.325 51.202 210.316 54.329C207.307 57.397 205.832 61.291 205.832 66.011C205.832 70.79 207.307 74.743 210.316 77.988C213.325 81.174 217.101 82.767 221.644 82.767C226.305 82.767 230.022 80.997 232.913 77.457V82H237.987V50.435H232.913V55.096ZM233.326 66.188C233.326 69.492 232.264 72.265 230.199 74.566C228.134 76.808 225.479 77.929 222.175 77.929C218.871 77.929 216.216 76.808 214.151 74.566C212.145 72.265 211.142 69.492 211.142 66.247C211.142 62.943 212.145 60.17 214.151 57.928C216.216 55.627 218.871 54.506 222.175 54.506C225.479 54.506 228.134 55.627 230.199 57.928C232.264 60.17 233.326 62.943 233.326 66.188ZM283.127 49.609C278.171 49.609 273.746 51.969 271.622 55.509C269.793 51.792 265.899 49.609 261.592 49.609C257.403 49.609 253.981 51.733 252.093 55.096V50.435H246.96V82H252.211V64.3C252.211 58.4 255.751 54.506 260.884 54.506C265.781 54.506 268.731 58.105 268.731 64.182V82H273.982V64.182C273.982 58.459 277.463 54.506 282.596 54.506C287.375 54.506 290.384 57.928 290.384 64.064V82H295.635V63.297C295.635 59.108 294.514 55.804 292.272 53.326C290.03 50.848 286.962 49.609 283.127 49.609Z" fill="black"/>
<path d="M508.602 44.7557L508.6 42.7557L510.6 42.7537L510.602 44.7537L508.602 44.7557ZM468.516 87.7525C467.736 88.5343 466.47 88.5356 465.688 87.7553C464.906 86.975 464.905 85.7087 465.685 84.9269L468.516 87.7525ZM475.366 42.7889L508.6 42.7557L508.604 46.7557L475.37 46.7889L475.366 42.7889ZM510.602 44.7537L510.635 77.9877L506.635 77.9917L506.602 44.7577L510.602 44.7537ZM510.017 46.1685L468.516 87.7525L465.685 84.9269L507.186 43.3429L510.017 46.1685Z" fill="black"/>
</svg>
