<svg width="553" height="134" viewBox="0 0 553 134" fill="none" xmlns="http://www.w3.org/2000/svg">
<path d="M11.4817 82V62.471H29.6537V57.161H11.4817V43.709H32.3677V38.399H6.05373V82H11.4817ZM62.7343 55.096C59.8433 51.497 56.0673 49.668 51.4653 49.668C46.9223 49.668 43.1463 51.202 40.1373 54.329C37.1283 57.397 35.6533 61.291 35.6533 66.011C35.6533 70.79 37.1283 74.743 40.1373 77.988C43.1463 81.174 46.9223 82.767 51.4653 82.767C56.1263 82.767 59.8433 80.997 62.7343 77.457V82H67.8083V50.435H62.7343V55.096ZM63.1473 66.188C63.1473 69.492 62.0853 72.265 60.0203 74.566C57.9553 76.808 55.3003 77.929 51.9963 77.929C48.6923 77.929 46.0373 76.808 43.9723 74.566C41.9663 72.265 40.9633 69.492 40.9633 66.247C40.9633 62.943 41.9663 60.17 43.9723 57.928C46.0373 55.627 48.6923 54.506 51.9963 54.506C55.3003 54.506 57.9553 55.627 60.0203 57.928C62.0853 60.17 63.1473 62.943 63.1473 66.188ZM91.4134 82.708C97.5494 82.708 103.213 79.404 105.809 74.625L101.443 72.088C100.558 73.74 99.1424 75.097 97.2544 76.218C95.3664 77.339 93.4194 77.87 91.4134 77.87C88.1684 77.87 85.4544 76.749 83.2714 74.566C81.1474 72.324 80.0854 69.551 80.0854 66.247C80.0854 62.884 81.2064 60.111 83.3894 57.869C85.5724 55.627 88.3454 54.506 91.7084 54.506C95.7794 54.506 99.4374 56.807 101.62 60.406L105.986 57.869C103.567 52.913 97.9034 49.668 91.7084 49.668C86.7524 49.668 82.6814 51.202 79.4954 54.329C76.3684 57.456 74.7754 61.409 74.7754 66.247C74.7754 71.026 76.3094 74.979 79.4364 78.106C82.5634 81.174 86.5164 82.708 91.4134 82.708ZM141.13 65.657C141.13 60.76 139.714 56.866 136.882 53.975C134.05 51.084 130.392 49.668 125.967 49.668C121.306 49.668 117.471 51.202 114.521 54.329C111.571 57.456 110.096 61.35 110.096 66.129C110.096 74.389 114.993 82.708 126.852 82.708C132.103 82.708 137.295 80.702 140.363 78.283L138.121 74.212C135.112 76.336 130.746 77.811 126.97 77.811C120.126 77.811 116.527 73.917 115.642 68.43H140.953C141.071 67.014 141.13 66.07 141.13 65.657ZM125.967 54.447C131.218 54.447 135.289 58.046 135.584 63.71H115.642C116.527 58.223 120.539 54.447 125.967 54.447ZM164.575 49.668C159.914 49.668 156.138 51.556 153.247 55.273V37.337H147.996V82H153.247V77.339C156.079 80.938 159.855 82.767 164.516 82.767C169.059 82.767 172.776 81.174 175.785 77.988C178.794 74.743 180.328 70.849 180.328 66.247C180.328 61.645 178.794 57.751 175.785 54.506C172.776 51.261 169.059 49.668 164.575 49.668ZM163.985 77.811C160.681 77.811 158.026 76.69 156.02 74.448C154.014 72.206 153.011 69.433 153.011 66.188C153.011 62.943 154.014 60.229 156.02 57.987C158.026 55.745 160.681 54.624 163.985 54.624C167.23 54.624 169.885 55.745 171.891 57.987C173.956 60.17 174.959 62.943 174.959 66.188C174.959 69.433 173.956 72.206 171.891 74.448C169.885 76.69 167.23 77.811 163.985 77.811ZM185.285 66.188C185.285 70.849 186.819 74.802 189.946 77.988C193.073 81.174 197.026 82.767 201.805 82.767C206.584 82.767 210.537 81.174 213.664 77.988C216.791 74.802 218.325 70.849 218.325 66.188C218.325 61.586 216.732 57.692 213.605 54.506C210.478 51.261 206.584 49.668 201.805 49.668C197.026 49.668 193.073 51.261 189.946 54.506C186.819 57.692 185.285 61.586 185.285 66.188ZM213.015 66.188C213.015 69.433 211.953 72.206 209.77 74.507C207.587 76.808 204.932 77.929 201.805 77.929C198.678 77.929 196.023 76.808 193.84 74.507C191.657 72.206 190.595 69.433 190.595 66.188C190.595 63.002 191.657 60.288 193.84 57.987C196.023 55.686 198.678 54.506 201.805 54.506C204.932 54.506 207.587 55.686 209.77 57.987C211.953 60.288 213.015 63.002 213.015 66.188ZM223.255 66.188C223.255 70.849 224.789 74.802 227.916 77.988C231.043 81.174 234.996 82.767 239.775 82.767C244.554 82.767 248.507 81.174 251.634 77.988C254.761 74.802 256.295 70.849 256.295 66.188C256.295 61.586 254.702 57.692 251.575 54.506C248.448 51.261 244.554 49.668 239.775 49.668C234.996 49.668 231.043 51.261 227.916 54.506C224.789 57.692 223.255 61.586 223.255 66.188ZM250.985 66.188C250.985 69.433 249.923 72.206 247.74 74.507C245.557 76.808 242.902 77.929 239.775 77.929C236.648 77.929 233.993 76.808 231.81 74.507C229.627 72.206 228.565 69.433 228.565 66.188C228.565 63.002 229.627 60.288 231.81 57.987C233.993 55.686 236.648 54.506 239.775 54.506C242.902 54.506 245.557 55.686 247.74 57.987C249.923 60.288 250.985 63.002 250.985 66.188ZM290.725 82L275.385 63.71L290.253 50.435H282.996L268.482 63.474V37.337H263.231V82H268.482V69.905L271.609 67.073L283.704 82H290.725Z" fill="black"/>
<path d="M508.602 44.7557L508.6 42.7557L510.6 42.7537L510.602 44.7537L508.602 44.7557ZM468.516 87.7525C467.736 88.5343 466.47 88.5356 465.688 87.7553C464.906 86.975 464.905 85.7087 465.685 84.9269L468.516 87.7525ZM475.366 42.7889L508.6 42.7557L508.604 46.7557L475.37 46.7889L475.366 42.7889ZM510.602 44.7537L510.635 77.9877L506.635 77.9917L506.602 44.7577L510.602 44.7537ZM510.017 46.1685L468.516 87.7525L465.685 84.9269L507.186 43.3429L510.017 46.1685Z" fill="black"/>
</svg>
