<svg width="553" height="134" viewBox="0 0 553 134" fill="none" xmlns="http://www.w3.org/2000/svg">
<path d="M14.1498 82H19.6368V43.709H32.6168V38.399H1.16975V43.709H14.1498V82ZM40.614 45.833C42.738 45.833 44.449 44.122 44.449 41.939C44.449 39.756 42.738 38.104 40.614 38.104C38.313 38.104 36.661 39.756 36.661 41.939C36.661 44.122 38.313 45.833 40.614 45.833ZM43.151 50.435H37.9V82H43.151V50.435ZM79.6255 82L64.2855 63.71L79.1535 50.435H71.8965L57.3825 63.474V37.337H52.1315V82H57.3825V69.905L60.5095 67.073L72.6045 82H79.6255ZM102.108 76.041C100.102 77.28 98.2141 77.929 96.3851 77.929C92.9041 77.929 91.1931 75.805 91.1931 71.557V54.978H102.462V50.435H91.1931V39.284H86.0011V50.435H80.3371V54.978H85.9421V71.026C85.9421 78.519 89.3051 82.767 95.9131 82.767C99.1581 82.767 101.931 81.882 104.173 80.112L102.108 76.041ZM106.36 66.188C106.36 70.849 107.894 74.802 111.021 77.988C114.148 81.174 118.101 82.767 122.88 82.767C127.659 82.767 131.612 81.174 134.739 77.988C137.866 74.802 139.4 70.849 139.4 66.188C139.4 61.586 137.807 57.692 134.68 54.506C131.553 51.261 127.659 49.668 122.88 49.668C118.101 49.668 114.148 51.261 111.021 54.506C107.894 57.692 106.36 61.586 106.36 66.188ZM134.09 66.188C134.09 69.433 133.028 72.206 130.845 74.507C128.662 76.808 126.007 77.929 122.88 77.929C119.753 77.929 117.098 76.808 114.915 74.507C112.732 72.206 111.67 69.433 111.67 66.188C111.67 63.002 112.732 60.288 114.915 57.987C117.098 55.686 119.753 54.506 122.88 54.506C126.007 54.506 128.662 55.686 130.845 57.987C133.028 60.288 134.09 63.002 134.09 66.188ZM173.83 82L158.49 63.71L173.358 50.435H166.101L151.587 63.474V37.337H146.336V82H151.587V69.905L154.714 67.073L166.809 82H173.83Z" fill="black"/>
<path d="M508.602 44.7557L508.6 42.7557L510.6 42.7537L510.602 44.7537L508.602 44.7557ZM468.516 87.7525C467.736 88.5343 466.47 88.5356 465.688 87.7553C464.906 86.975 464.905 85.7087 465.685 84.9269L468.516 87.7525ZM475.366 42.7889L508.6 42.7557L508.604 46.7557L475.37 46.7889L475.366 42.7889ZM510.602 44.7537L510.635 77.9877L506.635 77.9917L506.602 44.7577L510.602 44.7537ZM510.017 46.1685L468.516 87.7525L465.685 84.9269L507.186 43.3429L510.017 46.1685Z" fill="black"/>
</svg>
