<svg width="516" height="223" viewBox="0 0 516 223" fill="none" xmlns="http://www.w3.org/2000/svg">
<path d="M8.22 138V129.88H14.66V97.12H8.22V89H33.42C36.4067 89 38.9967 89.5133 41.19 90.54C43.43 91.52 45.1567 92.9433 46.37 94.81C47.63 96.63 48.26 98.8233 48.26 101.39V102.09C48.26 104.33 47.84 106.173 47 107.62C46.16 109.02 45.1567 110.117 43.99 110.91C42.87 111.657 41.7967 112.193 40.77 112.52V113.78C41.7967 114.06 42.9167 114.597 44.13 115.39C45.3433 116.137 46.37 117.233 47.21 118.68C48.0967 120.127 48.54 122.017 48.54 124.35V125.05C48.54 127.757 47.91 130.09 46.65 132.05C45.39 133.963 43.64 135.433 41.4 136.46C39.2067 137.487 36.64 138 33.7 138H8.22ZM23.9 129.6H32.58C34.5867 129.6 36.1967 129.11 37.41 128.13C38.67 127.15 39.3 125.75 39.3 123.93V123.23C39.3 121.41 38.6933 120.01 37.48 119.03C36.2667 118.05 34.6333 117.56 32.58 117.56H23.9V129.6ZM23.9 109.16H32.44C34.3533 109.16 35.9167 108.67 37.13 107.69C38.39 106.71 39.02 105.357 39.02 103.63V102.93C39.02 101.157 38.4133 99.8033 37.2 98.87C35.9867 97.89 34.4 97.4 32.44 97.4H23.9V109.16ZM56.3844 138V103.28H65.0644V107.06H66.3244C66.931 105.893 67.9344 104.89 69.3344 104.05C70.7344 103.163 72.5777 102.72 74.8644 102.72C77.3377 102.72 79.321 103.21 80.8144 104.19C82.3077 105.123 83.451 106.36 84.2444 107.9H85.5044C86.2977 106.407 87.4177 105.17 88.8644 104.19C90.311 103.21 92.3644 102.72 95.0244 102.72C97.171 102.72 99.1077 103.187 100.834 104.12C102.608 105.007 104.008 106.383 105.034 108.25C106.108 110.07 106.644 112.38 106.644 115.18V138H97.8244V115.81C97.8244 113.897 97.3344 112.473 96.3544 111.54C95.3744 110.56 93.9977 110.07 92.2244 110.07C90.2177 110.07 88.6544 110.723 87.5344 112.03C86.461 113.29 85.9244 115.11 85.9244 117.49V138H77.1044V115.81C77.1044 113.897 76.6144 112.473 75.6344 111.54C74.6544 110.56 73.2777 110.07 71.5044 110.07C69.4977 110.07 67.9344 110.723 66.8144 112.03C65.741 113.29 65.2044 115.11 65.2044 117.49V138H56.3844ZM113.05 138L125.65 120.5L113.19 103.28H123.41L131.32 114.83H132.58L140.49 103.28H150.71L138.25 120.5L150.85 138H140.49L132.58 126.31H131.32L123.41 138H113.05ZM186.88 138C183.986 138 181.443 137.487 179.25 136.46C177.103 135.387 175.423 133.87 174.21 131.91C172.996 129.903 172.39 127.523 172.39 124.77C172.39 122.763 172.74 121.013 173.44 119.52C174.186 118.027 175.19 116.79 176.45 115.81C177.71 114.83 179.11 114.107 180.65 113.64V112.66C178.316 111.96 176.403 110.747 174.91 109.02C173.416 107.293 172.67 105.007 172.67 102.16C172.67 99.3133 173.3 96.91 174.56 94.95C175.82 92.99 177.523 91.52 179.67 90.54C181.863 89.5133 184.36 89 187.16 89H194.79V96.28H188.77C186.67 96.28 184.92 96.84 183.52 97.96C182.166 99.08 181.49 100.737 181.49 102.93C181.49 104.47 181.816 105.73 182.47 106.71C183.17 107.69 184.056 108.413 185.13 108.88C186.25 109.347 187.463 109.58 188.77 109.58H195.56V103.28H204.38V109.58H210.82V116.86H204.38V138H186.88ZM188.49 130.72H195.56V116.86H188.49C186.436 116.86 184.71 117.443 183.31 118.61C181.91 119.777 181.21 121.503 181.21 123.79C181.21 126.123 181.933 127.873 183.38 129.04C184.873 130.16 186.576 130.72 188.49 130.72ZM251.191 138.98C247.411 138.98 244.074 138.303 241.181 136.95C238.287 135.597 236.024 133.66 234.391 131.14C232.757 128.62 231.941 125.587 231.941 122.04V120.08H241.041V122.04C241.041 124.98 241.951 127.197 243.771 128.69C245.591 130.137 248.064 130.86 251.191 130.86C254.364 130.86 256.721 130.23 258.261 128.97C259.847 127.71 260.641 126.1 260.641 124.14C260.641 122.787 260.244 121.69 259.451 120.85C258.704 120.01 257.584 119.333 256.091 118.82C254.644 118.26 252.871 117.747 250.771 117.28L249.161 116.93C245.801 116.183 242.907 115.25 240.481 114.13C238.101 112.963 236.257 111.447 234.951 109.58C233.691 107.713 233.061 105.287 233.061 102.3C233.061 99.3133 233.761 96.77 235.161 94.67C236.607 92.5233 238.614 90.89 241.181 89.77C243.794 88.6033 246.851 88.02 250.351 88.02C253.851 88.02 256.954 88.6267 259.661 89.84C262.414 91.0067 264.561 92.78 266.101 95.16C267.687 97.4933 268.481 100.433 268.481 103.98V106.08H259.381V103.98C259.381 102.113 259.007 100.62 258.261 99.5C257.561 98.3333 256.534 97.4933 255.181 96.98C253.827 96.42 252.217 96.14 250.351 96.14C247.551 96.14 245.474 96.6767 244.121 97.75C242.814 98.7767 242.161 100.2 242.161 102.02C242.161 103.233 242.464 104.26 243.071 105.1C243.724 105.94 244.681 106.64 245.941 107.2C247.201 107.76 248.811 108.25 250.771 108.67L252.381 109.02C255.881 109.767 258.914 110.723 261.481 111.89C264.094 113.057 266.124 114.597 267.571 116.51C269.017 118.423 269.741 120.873 269.741 123.86C269.741 126.847 268.971 129.483 267.431 131.77C265.937 134.01 263.791 135.783 260.991 137.09C258.237 138.35 254.971 138.98 251.191 138.98ZM276.912 138V89H285.732V116.09H286.992L298.472 103.28H309.952L293.922 120.08L310.512 138H299.172L286.992 124.21H285.732V138H276.912ZM326.52 138.98C324.047 138.98 321.83 138.56 319.87 137.72C317.91 136.833 316.347 135.573 315.18 133.94C314.06 132.26 313.5 130.23 313.5 127.85C313.5 125.47 314.06 123.487 315.18 121.9C316.347 120.267 317.933 119.053 319.94 118.26C321.993 117.42 324.327 117 326.94 117H336.46V115.04C336.46 113.407 335.947 112.077 334.92 111.05C333.893 109.977 332.26 109.44 330.02 109.44C327.827 109.44 326.193 109.953 325.12 110.98C324.047 111.96 323.347 113.243 323.02 114.83L314.9 112.1C315.46 110.327 316.347 108.717 317.56 107.27C318.82 105.777 320.477 104.587 322.53 103.7C324.63 102.767 327.173 102.3 330.16 102.3C334.733 102.3 338.35 103.443 341.01 105.73C343.67 108.017 345 111.33 345 115.67V128.62C345 130.02 345.653 130.72 346.96 130.72H349.76V138H343.88C342.153 138 340.73 137.58 339.61 136.74C338.49 135.9 337.93 134.78 337.93 133.38V133.31H336.6C336.413 133.87 335.993 134.617 335.34 135.55C334.687 136.437 333.66 137.23 332.26 137.93C330.86 138.63 328.947 138.98 326.52 138.98ZM328.06 131.84C330.533 131.84 332.54 131.163 334.08 129.81C335.667 128.41 336.46 126.567 336.46 124.28V123.58H327.57C325.937 123.58 324.653 123.93 323.72 124.63C322.787 125.33 322.32 126.31 322.32 127.57C322.32 128.83 322.81 129.857 323.79 130.65C324.77 131.443 326.193 131.84 328.06 131.84ZM366.979 138C364.693 138 362.826 137.3 361.379 135.9C359.979 134.453 359.279 132.54 359.279 130.16V110.56H350.599V103.28H359.279V92.5H368.099V103.28H377.619V110.56H368.099V128.62C368.099 130.02 368.753 130.72 370.059 130.72H376.779V138H366.979ZM400.193 138.98C396.739 138.98 393.683 138.257 391.023 136.81C388.409 135.317 386.356 133.24 384.863 130.58C383.416 127.873 382.693 124.7 382.693 121.06V120.22C382.693 116.58 383.416 113.43 384.863 110.77C386.309 108.063 388.339 105.987 390.953 104.54C393.566 103.047 396.599 102.3 400.053 102.3C403.459 102.3 406.423 103.07 408.943 104.61C411.463 106.103 413.423 108.203 414.823 110.91C416.223 113.57 416.923 116.673 416.923 120.22V123.23H391.653C391.746 125.61 392.633 127.547 394.313 129.04C395.993 130.533 398.046 131.28 400.473 131.28C402.946 131.28 404.766 130.743 405.933 129.67C407.099 128.597 407.986 127.407 408.593 126.1L415.803 129.88C415.149 131.093 414.193 132.423 412.933 133.87C411.719 135.27 410.086 136.483 408.033 137.51C405.979 138.49 403.366 138.98 400.193 138.98ZM391.723 116.65H407.963C407.776 114.643 406.959 113.033 405.513 111.82C404.113 110.607 402.269 110 399.983 110C397.603 110 395.713 110.607 394.313 111.82C392.913 113.033 392.049 114.643 391.723 116.65ZM9.62 211V162H29.78C32.86 162 35.5667 162.63 37.9 163.89C40.28 165.103 42.1233 166.83 43.43 169.07C44.7833 171.31 45.46 173.97 45.46 177.05V178.03C45.46 181.063 44.76 183.723 43.36 186.01C42.0067 188.25 40.14 190 37.76 191.26C35.4267 192.473 32.7667 193.08 29.78 193.08H18.86V211H9.62ZM18.86 184.68H28.87C31.0633 184.68 32.8367 184.073 34.19 182.86C35.5433 181.647 36.22 179.99 36.22 177.89V177.19C36.22 175.09 35.5433 173.433 34.19 172.22C32.8367 171.007 31.0633 170.4 28.87 170.4H18.86V184.68ZM62.2425 211.98C59.7692 211.98 57.5525 211.56 55.5925 210.72C53.6325 209.833 52.0692 208.573 50.9025 206.94C49.7825 205.26 49.2225 203.23 49.2225 200.85C49.2225 198.47 49.7825 196.487 50.9025 194.9C52.0692 193.267 53.6558 192.053 55.6625 191.26C57.7158 190.42 60.0492 190 62.6625 190H72.1825V188.04C72.1825 186.407 71.6692 185.077 70.6425 184.05C69.6158 182.977 67.9825 182.44 65.7425 182.44C63.5492 182.44 61.9158 182.953 60.8425 183.98C59.7692 184.96 59.0692 186.243 58.7425 187.83L50.6225 185.1C51.1825 183.327 52.0692 181.717 53.2825 180.27C54.5425 178.777 56.1992 177.587 58.2525 176.7C60.3525 175.767 62.8958 175.3 65.8825 175.3C70.4558 175.3 74.0725 176.443 76.7325 178.73C79.3925 181.017 80.7225 184.33 80.7225 188.67V201.62C80.7225 203.02 81.3758 203.72 82.6825 203.72H85.4825V211H79.6025C77.8758 211 76.4525 210.58 75.3325 209.74C74.2125 208.9 73.6525 207.78 73.6525 206.38V206.31H72.3225C72.1358 206.87 71.7158 207.617 71.0625 208.55C70.4092 209.437 69.3825 210.23 67.9825 210.93C66.5825 211.63 64.6692 211.98 62.2425 211.98ZM63.7825 204.84C66.2558 204.84 68.2625 204.163 69.8025 202.81C71.3892 201.41 72.1825 199.567 72.1825 197.28V196.58H63.2925C61.6592 196.58 60.3758 196.93 59.4425 197.63C58.5092 198.33 58.0425 199.31 58.0425 200.57C58.0425 201.83 58.5325 202.857 59.5125 203.65C60.4925 204.443 61.9158 204.84 63.7825 204.84ZM91.9313 211V176.28H100.611V180.2H101.871C102.385 178.8 103.225 177.773 104.391 177.12C105.605 176.467 107.005 176.14 108.591 176.14H112.791V183.98H108.451C106.211 183.98 104.368 184.587 102.921 185.8C101.475 186.967 100.751 188.787 100.751 191.26V211H91.9313ZM119.685 211V162H128.505V189.09H129.765L141.245 176.28H152.725L136.695 193.08L153.285 211H141.945L129.765 197.21H128.505V211H119.685Z" fill="#5C3F3F"/>
<path d="M437.919 92.7439C438.296 91.5803 438.534 90.6303 438.919 89.7151C442.774 80.4643 448.507 72.3828 454.926 64.7695C455.68 63.8797 456.604 63.051 457.607 62.525C458.147 62.2398 459.179 62.3601 459.749 62.7213C460.176 62.9984 460.431 63.9822 460.295 64.518C460.051 65.542 459.609 66.5772 459.027 67.4789C455.199 73.436 451.348 79.3668 447.45 85.2696C445.986 87.4737 444.449 89.648 442.937 91.8241C442.441 92.5582 441.897 93.2643 441.332 93.9194C440.71 94.6697 439.815 95.0791 438.987 94.5021C438.444 94.1179 437.844 93.8291 437.919 92.7439Z" fill="#131111"/>
<path d="M470.325 131.861C469.154 131.582 467.783 131.34 466.472 130.952C461.3 129.409 456.128 127.865 450.984 126.273C449.868 125.924 448.79 125.38 447.816 124.768C446.509 123.96 446.109 122.916 446.407 121.822C446.705 120.727 447.641 120.097 449.196 120.179C450.258 120.227 451.391 120.33 452.385 120.646C458.905 122.777 465.421 124.958 471.91 127.162C472.637 127.41 473.378 127.808 473.911 128.34C475.259 129.646 474.685 131.515 472.827 131.859C472.1 131.982 471.292 131.853 470.325 131.861Z" fill="#131111"/>
<path d="M405.553 60.9903C405.731 59.8379 406.057 58.6957 406.431 57.5815C406.771 56.5889 407.511 55.921 408.627 55.8984C409.57 55.8886 410.517 56.8951 410.58 58.1384C410.664 59.8043 410.722 61.4932 410.535 63.1405C409.971 68.1072 409.308 73.0918 408.621 78.05C408.384 79.694 408.049 81.3312 407.665 82.965C407.527 83.5255 407.289 84.1039 406.938 84.5259C405.989 85.7245 404.417 85.5177 403.894 84.119C403.601 83.3308 403.517 82.3835 403.574 81.5449C403.64 78.7743 404.952 65.0624 405.553 60.9903Z" fill="#131111"/>
<path d="M56.9817 17.604L65.5258 49.3917L37.9342 67.3406L12.3375 46.6459L24.1095 15.907L56.9817 17.604Z" fill="#2CD948"/>
</svg>
