<svg width="730" height="167" viewBox="0 0 730 167" fill="none" xmlns="http://www.w3.org/2000/svg">
<path d="M98.5 143V129.15L85.8 108H89.6L99.8 125.5H100.4L110.6 108H114.4L101.7 129.15V143H98.5ZM126.379 143.7C123.912 143.7 121.746 143.183 119.879 142.15C118.046 141.083 116.612 139.617 115.579 137.75C114.579 135.85 114.079 133.65 114.079 131.15V130.55C114.079 128.05 114.579 125.867 115.579 124C116.612 122.1 118.046 120.633 119.879 119.6C121.746 118.533 123.912 118 126.379 118C128.846 118 130.996 118.533 132.829 119.6C134.696 120.633 136.129 122.1 137.129 124C138.162 125.867 138.679 128.05 138.679 130.55V131.15C138.679 133.65 138.162 135.85 137.129 137.75C136.129 139.617 134.696 141.083 132.829 142.15C130.996 143.183 128.846 143.7 126.379 143.7ZM126.379 141C129.246 141 131.512 140.1 133.179 138.3C134.846 136.467 135.679 134.05 135.679 131.05V130.65C135.679 127.65 134.846 125.25 133.179 123.45C131.512 121.617 129.246 120.7 126.379 120.7C123.546 120.7 121.279 121.617 119.579 123.45C117.912 125.25 117.079 127.65 117.079 130.65V131.05C117.079 134.05 117.912 136.467 119.579 138.3C121.279 140.1 123.546 141 126.379 141ZM155.635 143.5C153.901 143.5 152.285 143.133 150.785 142.4C149.318 141.667 148.135 140.567 147.235 139.1C146.368 137.6 145.935 135.733 145.935 133.5V118.7H148.935V133.3C148.935 135.933 149.601 137.85 150.935 139.05C152.268 140.217 154.051 140.8 156.285 140.8C158.785 140.8 160.868 139.983 162.535 138.35C164.201 136.683 165.035 134.183 165.035 130.85V118.7H168.035V143H165.135V138.5H164.535C163.935 139.8 162.951 140.967 161.585 142C160.218 143 158.235 143.5 155.635 143.5ZM176.851 143V118.7H179.751V121.75H180.351C180.818 120.65 181.501 119.85 182.401 119.35C183.335 118.85 184.618 118.6 186.251 118.6H189.101V121.4H185.901C184.068 121.4 182.601 121.917 181.501 122.95C180.401 123.983 179.851 125.6 179.851 127.8V143H176.851ZM215.649 143.7C213.949 143.7 212.399 143.417 210.999 142.85C209.632 142.25 208.549 141.383 207.749 140.25C206.949 139.117 206.549 137.75 206.549 136.15C206.549 134.517 206.949 133.167 207.749 132.1C208.549 131.033 209.632 130.233 210.999 129.7C212.365 129.167 213.882 128.9 215.549 128.9H224.449V126.95C224.449 124.983 223.882 123.45 222.749 122.35C221.615 121.25 219.965 120.7 217.799 120.7C215.665 120.7 213.965 121.233 212.699 122.3C211.465 123.333 210.632 124.733 210.199 126.5L207.299 125.65C207.699 124.217 208.332 122.933 209.199 121.8C210.065 120.633 211.215 119.717 212.649 119.05C214.082 118.35 215.799 118 217.799 118C220.865 118 223.232 118.8 224.899 120.4C226.599 122 227.449 124.233 227.449 127.1V138.9C227.449 139.9 227.915 140.4 228.849 140.4H231.199V143H227.999C226.965 143 226.149 142.7 225.549 142.1C224.949 141.467 224.649 140.617 224.649 139.55V139.2H224.149C223.715 139.933 223.149 140.65 222.449 141.35C221.782 142.05 220.899 142.617 219.799 143.05C218.699 143.483 217.315 143.7 215.649 143.7ZM215.849 141C218.415 141 220.482 140.233 222.049 138.7C223.649 137.133 224.449 134.933 224.449 132.1V131.5H215.599C213.865 131.5 212.415 131.883 211.249 132.65C210.115 133.383 209.549 134.533 209.549 136.1C209.549 137.667 210.132 138.883 211.299 139.75C212.499 140.583 214.015 141 215.849 141ZM246.677 143.7C244.511 143.7 242.544 143.2 240.777 142.2C239.011 141.167 237.594 139.717 236.527 137.85C235.494 135.95 234.977 133.717 234.977 131.15V130.55C234.977 127.983 235.494 125.767 236.527 123.9C237.561 122 238.961 120.55 240.727 119.55C242.527 118.517 244.511 118 246.677 118C248.477 118 249.994 118.25 251.227 118.75C252.461 119.217 253.461 119.833 254.227 120.6C255.027 121.333 255.644 122.117 256.077 122.95H256.677V108H259.677V143H256.777V138.55H256.177C255.477 139.883 254.377 141.083 252.877 142.15C251.411 143.183 249.344 143.7 246.677 143.7ZM247.377 141C250.144 141 252.377 140.117 254.077 138.35C255.811 136.583 256.677 134.15 256.677 131.05V130.65C256.677 127.55 255.811 125.117 254.077 123.35C252.377 121.583 250.144 120.7 247.377 120.7C244.644 120.7 242.411 121.583 240.677 123.35C238.944 125.117 238.077 127.55 238.077 130.65V131.05C238.077 134.15 238.944 136.583 240.677 138.35C242.411 140.117 244.644 141 247.377 141ZM275.102 143L266.002 118.7H269.202L277.202 140.7H277.802L285.802 118.7H289.002L279.902 143H275.102ZM305.336 143.7C302.836 143.7 300.653 143.183 298.786 142.15C296.953 141.083 295.52 139.6 294.486 137.7C293.453 135.8 292.936 133.617 292.936 131.15V130.55C292.936 128.05 293.453 125.867 294.486 124C295.52 122.1 296.936 120.633 298.736 119.6C300.57 118.533 302.653 118 304.986 118C307.253 118 309.253 118.483 310.986 119.45C312.753 120.383 314.136 121.75 315.136 123.55C316.136 125.317 316.636 127.433 316.636 129.9V131.5H295.936C296.036 134.533 296.953 136.883 298.686 138.55C300.453 140.183 302.67 141 305.336 141C307.603 141 309.353 140.483 310.586 139.45C311.853 138.417 312.82 137.15 313.486 135.65L316.186 136.85C315.686 137.95 314.986 139.033 314.086 140.1C313.22 141.133 312.086 142 310.686 142.7C309.286 143.367 307.503 143.7 305.336 143.7ZM295.986 128.9H313.586C313.453 126.267 312.603 124.25 311.036 122.85C309.47 121.417 307.453 120.7 304.986 120.7C302.553 120.7 300.536 121.417 298.936 122.85C297.336 124.25 296.353 126.267 295.986 128.9ZM324.019 143V118.7H326.919V123.2H327.519C328.119 121.9 329.102 120.75 330.469 119.75C331.836 118.717 333.819 118.2 336.419 118.2C338.186 118.2 339.802 118.567 341.269 119.3C342.736 120.033 343.902 121.15 344.769 122.65C345.669 124.117 346.119 125.967 346.119 128.2V143H343.119V128.4C343.119 125.733 342.452 123.817 341.119 122.65C339.786 121.483 338.002 120.9 335.769 120.9C333.269 120.9 331.186 121.733 329.519 123.4C327.852 125.033 327.019 127.517 327.019 130.85V143H324.019ZM362.751 143C361.451 143 360.467 142.667 359.801 142C359.167 141.333 358.851 140.4 358.851 139.2V121.4H351.051V118.7H358.851V109.6H361.851V118.7H370.351V121.4H361.851V138.8C361.851 139.8 362.351 140.3 363.351 140.3H369.051V143H362.751ZM386.396 143.5C384.663 143.5 383.046 143.133 381.546 142.4C380.08 141.667 378.896 140.567 377.996 139.1C377.13 137.6 376.696 135.733 376.696 133.5V118.7H379.696V133.3C379.696 135.933 380.363 137.85 381.696 139.05C383.03 140.217 384.813 140.8 387.046 140.8C389.546 140.8 391.63 139.983 393.296 138.35C394.963 136.683 395.796 134.183 395.796 130.85V118.7H398.796V143H395.896V138.5H395.296C394.696 139.8 393.713 140.967 392.346 142C390.98 143 388.996 143.5 386.396 143.5ZM407.613 143V118.7H410.513V121.75H411.113C411.58 120.65 412.263 119.85 413.163 119.35C414.096 118.85 415.38 118.6 417.013 118.6H419.863V121.4H416.663C414.83 121.4 413.363 121.917 412.263 122.95C411.163 123.983 410.613 125.6 410.613 127.8V143H407.613ZM436.391 143.7C433.891 143.7 431.708 143.183 429.841 142.15C428.008 141.083 426.574 139.6 425.541 137.7C424.508 135.8 423.991 133.617 423.991 131.15V130.55C423.991 128.05 424.508 125.867 425.541 124C426.574 122.1 427.991 120.633 429.791 119.6C431.624 118.533 433.708 118 436.041 118C438.308 118 440.308 118.483 442.041 119.45C443.808 120.383 445.191 121.75 446.191 123.55C447.191 125.317 447.691 127.433 447.691 129.9V131.5H426.991C427.091 134.533 428.008 136.883 429.741 138.55C431.508 140.183 433.724 141 436.391 141C438.658 141 440.408 140.483 441.641 139.45C442.908 138.417 443.874 137.15 444.541 135.65L447.241 136.85C446.741 137.95 446.041 139.033 445.141 140.1C444.274 141.133 443.141 142 441.741 142.7C440.341 143.367 438.558 143.7 436.391 143.7ZM427.041 128.9H444.641C444.508 126.267 443.658 124.25 442.091 122.85C440.524 121.417 438.508 120.7 436.041 120.7C433.608 120.7 431.591 121.417 429.991 122.85C428.391 124.25 427.408 126.267 427.041 128.9ZM477.614 143.7C474.681 143.7 472.164 143 470.064 141.6C467.998 140.2 466.731 137.883 466.264 134.65L469.214 134.1C469.481 135.867 470.014 137.267 470.814 138.3C471.648 139.3 472.648 140.017 473.814 140.45C475.014 140.883 476.281 141.1 477.614 141.1C479.614 141.1 481.214 140.7 482.414 139.9C483.648 139.067 484.264 137.933 484.264 136.5C484.264 135.033 483.681 134.017 482.514 133.45C481.381 132.883 479.864 132.433 477.964 132.1L475.664 131.7C474.131 131.433 472.748 131.033 471.514 130.5C470.281 129.933 469.298 129.183 468.564 128.25C467.864 127.317 467.514 126.15 467.514 124.75C467.514 122.65 468.331 121 469.964 119.8C471.631 118.6 473.831 118 476.564 118C479.331 118 481.548 118.633 483.214 119.9C484.914 121.133 485.981 122.933 486.414 125.3L483.614 125.9C483.281 123.967 482.481 122.6 481.214 121.8C479.981 121 478.431 120.6 476.564 120.6C474.731 120.6 473.264 120.95 472.164 121.65C471.064 122.35 470.514 123.383 470.514 124.75C470.514 126.083 471.014 127.067 472.014 127.7C473.014 128.3 474.381 128.75 476.114 129.05L478.414 129.45C480.081 129.717 481.581 130.117 482.914 130.65C484.248 131.15 485.298 131.867 486.064 132.8C486.864 133.733 487.264 134.967 487.264 136.5C487.264 138.8 486.398 140.583 484.664 141.85C482.931 143.083 480.581 143.7 477.614 143.7ZM502.595 143C501.295 143 500.311 142.667 499.645 142C499.011 141.333 498.695 140.4 498.695 139.2V121.4H490.895V118.7H498.695V109.6H501.695V118.7H510.195V121.4H501.695V138.8C501.695 139.8 502.195 140.3 503.195 140.3H508.895V143H502.595ZM524.145 143.7C522.445 143.7 520.895 143.417 519.495 142.85C518.128 142.25 517.045 141.383 516.245 140.25C515.445 139.117 515.045 137.75 515.045 136.15C515.045 134.517 515.445 133.167 516.245 132.1C517.045 131.033 518.128 130.233 519.495 129.7C520.862 129.167 522.378 128.9 524.045 128.9H532.945V126.95C532.945 124.983 532.378 123.45 531.245 122.35C530.112 121.25 528.462 120.7 526.295 120.7C524.162 120.7 522.462 121.233 521.195 122.3C519.962 123.333 519.128 124.733 518.695 126.5L515.795 125.65C516.195 124.217 516.828 122.933 517.695 121.8C518.562 120.633 519.712 119.717 521.145 119.05C522.578 118.35 524.295 118 526.295 118C529.362 118 531.728 118.8 533.395 120.4C535.095 122 535.945 124.233 535.945 127.1V138.9C535.945 139.9 536.412 140.4 537.345 140.4H539.695V143H536.495C535.462 143 534.645 142.7 534.045 142.1C533.445 141.467 533.145 140.617 533.145 139.55V139.2H532.645C532.212 139.933 531.645 140.65 530.945 141.35C530.278 142.05 529.395 142.617 528.295 143.05C527.195 143.483 525.812 143.7 524.145 143.7ZM524.345 141C526.912 141 528.978 140.233 530.545 138.7C532.145 137.133 532.945 134.933 532.945 132.1V131.5H524.095C522.362 131.5 520.912 131.883 519.745 132.65C518.612 133.383 518.045 134.533 518.045 136.1C518.045 137.667 518.628 138.883 519.795 139.75C520.995 140.583 522.512 141 524.345 141ZM545.406 143V118.7H548.306V121.75H548.906C549.373 120.65 550.056 119.85 550.956 119.35C551.889 118.85 553.173 118.6 554.806 118.6H557.656V121.4H554.456C552.623 121.4 551.156 121.917 550.056 122.95C548.956 123.983 548.406 125.6 548.406 127.8V143H545.406ZM572.663 143C571.363 143 570.38 142.667 569.713 142C569.08 141.333 568.763 140.4 568.763 139.2V121.4H560.963V118.7H568.763V109.6H571.763V118.7H580.263V121.4H571.763V138.8C571.763 139.8 572.263 140.3 573.263 140.3H578.963V143H572.663ZM596.609 143.7C593.675 143.7 591.159 143 589.059 141.6C586.992 140.2 585.725 137.883 585.259 134.65L588.209 134.1C588.475 135.867 589.009 137.267 589.809 138.3C590.642 139.3 591.642 140.017 592.809 140.45C594.009 140.883 595.275 141.1 596.609 141.1C598.609 141.1 600.209 140.7 601.409 139.9C602.642 139.067 603.259 137.933 603.259 136.5C603.259 135.033 602.675 134.017 601.509 133.45C600.375 132.883 598.859 132.433 596.959 132.1L594.659 131.7C593.125 131.433 591.742 131.033 590.509 130.5C589.275 129.933 588.292 129.183 587.559 128.25C586.859 127.317 586.509 126.15 586.509 124.75C586.509 122.65 587.325 121 588.959 119.8C590.625 118.6 592.825 118 595.559 118C598.325 118 600.542 118.633 602.209 119.9C603.909 121.133 604.975 122.933 605.409 125.3L602.609 125.9C602.275 123.967 601.475 122.6 600.209 121.8C598.975 121 597.425 120.6 595.559 120.6C593.725 120.6 592.259 120.95 591.159 121.65C590.059 122.35 589.509 123.383 589.509 124.75C589.509 126.083 590.009 127.067 591.009 127.7C592.009 128.3 593.375 128.75 595.109 129.05L597.409 129.45C599.075 129.717 600.575 130.117 601.909 130.65C603.242 131.15 604.292 131.867 605.059 132.8C605.859 133.733 606.259 134.967 606.259 136.5C606.259 138.8 605.392 140.583 603.659 141.85C601.925 143.083 599.575 143.7 596.609 143.7Z" fill="black"/>
<path d="M625.316 143V108H631.616V121.25H632.516C632.783 120.717 633.2 120.183 633.766 119.65C634.333 119.117 635.083 118.683 636.016 118.35C636.983 117.983 638.2 117.8 639.666 117.8C641.6 117.8 643.283 118.25 644.716 119.15C646.183 120.017 647.316 121.233 648.116 122.8C648.916 124.333 649.316 126.133 649.316 128.2V143H643.016V128.7C643.016 126.833 642.55 125.433 641.616 124.5C640.716 123.567 639.416 123.1 637.716 123.1C635.783 123.1 634.283 123.75 633.216 125.05C632.15 126.317 631.616 128.1 631.616 130.4V143H625.316ZM667.427 143.7C664.96 143.7 662.777 143.183 660.877 142.15C659.01 141.083 657.544 139.6 656.477 137.7C655.444 135.767 654.927 133.5 654.927 130.9V130.3C654.927 127.7 655.444 125.45 656.477 123.55C657.51 121.617 658.96 120.133 660.827 119.1C662.694 118.033 664.86 117.5 667.327 117.5C669.76 117.5 671.877 118.05 673.677 119.15C675.477 120.217 676.877 121.717 677.877 123.65C678.877 125.55 679.377 127.767 679.377 130.3V132.45H661.327C661.394 134.15 662.027 135.533 663.227 136.6C664.427 137.667 665.894 138.2 667.627 138.2C669.394 138.2 670.694 137.817 671.527 137.05C672.36 136.283 672.994 135.433 673.427 134.5L678.577 137.2C678.11 138.067 677.427 139.017 676.527 140.05C675.66 141.05 674.494 141.917 673.027 142.65C671.56 143.35 669.694 143.7 667.427 143.7ZM661.377 127.75H672.977C672.844 126.317 672.26 125.167 671.227 124.3C670.227 123.433 668.91 123 667.277 123C665.577 123 664.227 123.433 663.227 124.3C662.227 125.167 661.61 126.317 661.377 127.75ZM684.984 143V118.2H691.184V121H692.084C692.451 120 693.051 119.267 693.884 118.8C694.751 118.333 695.751 118.1 696.884 118.1H699.884V123.7H696.784C695.184 123.7 693.868 124.133 692.834 125C691.801 125.833 691.284 127.133 691.284 128.9V143H684.984ZM715.23 143.7C712.763 143.7 710.58 143.183 708.68 142.15C706.813 141.083 705.346 139.6 704.28 137.7C703.246 135.767 702.73 133.5 702.73 130.9V130.3C702.73 127.7 703.246 125.45 704.28 123.55C705.313 121.617 706.763 120.133 708.63 119.1C710.496 118.033 712.663 117.5 715.13 117.5C717.563 117.5 719.68 118.05 721.48 119.15C723.28 120.217 724.68 121.717 725.68 123.65C726.68 125.55 727.18 127.767 727.18 130.3V132.45H709.13C709.196 134.15 709.83 135.533 711.03 136.6C712.23 137.667 713.696 138.2 715.43 138.2C717.196 138.2 718.496 137.817 719.33 137.05C720.163 136.283 720.796 135.433 721.23 134.5L726.38 137.2C725.913 138.067 725.23 139.017 724.33 140.05C723.463 141.05 722.296 141.917 720.83 142.65C719.363 143.35 717.496 143.7 715.23 143.7ZM709.18 127.75H720.78C720.646 126.317 720.063 125.167 719.03 124.3C718.03 123.433 716.713 123 715.08 123C713.38 123 712.03 123.433 711.03 124.3C710.03 125.167 709.413 126.317 709.18 127.75Z" fill="#EE364D"/>
<path d="M81.8176 85.392C80.4342 85.0461 79.3103 84.8444 78.2151 84.4697C67.1485 80.7232 57.2922 74.6999 47.9259 67.8409C46.8308 67.034 45.7933 66.0253 45.1016 64.9013C44.727 64.2961 44.7846 63.0857 45.1592 62.394C45.4474 61.8753 46.5714 61.5006 47.2054 61.6159C48.4158 61.8177 49.6551 62.2499 50.7502 62.8552C57.9839 66.8322 65.1888 70.8381 72.3648 74.9017C75.045 76.4291 77.6964 78.043 80.3478 79.6281C81.2412 80.1468 82.1058 80.7232 82.9127 81.3284C83.8349 81.9913 84.3825 82.9999 83.7773 84.0086C83.3738 84.6715 83.0856 85.392 81.8176 85.392Z" fill="#AE47DE"/>
<path d="M124.731 44.5836C124.5 45.967 124.327 47.5809 123.981 49.1371C122.598 55.2756 121.215 61.4142 119.774 67.5239C119.457 68.8496 118.909 70.1465 118.275 71.3281C117.439 72.9131 116.258 73.4607 114.961 73.2013C113.664 72.942 112.857 71.9045 112.828 70.0888C112.799 68.8496 112.828 67.5239 113.116 66.3423C115.076 58.5899 117.093 50.8375 119.14 43.1138C119.37 42.2493 119.774 41.3559 120.35 40.693C121.762 39.0215 123.981 39.5402 124.529 41.6729C124.731 42.5086 124.644 43.4597 124.731 44.5836Z" fill="#AE47DE"/>
<path d="M47.4651 125.566C46.1106 125.451 44.7561 125.163 43.4304 124.817C42.2488 124.5 41.413 123.693 41.2978 122.396C41.2113 121.301 42.3064 120.119 43.7474 119.946C45.6783 119.716 47.638 119.514 49.5689 119.601C55.3905 119.86 61.2408 120.235 67.0623 120.638C68.9932 120.782 70.9241 121.042 72.855 121.359C73.5179 121.474 74.2096 121.704 74.7283 122.079C76.1981 123.088 76.0828 124.932 74.4978 125.653C73.6044 126.056 72.5092 126.229 71.5294 126.229C68.3016 126.373 52.2491 125.941 47.4651 125.566Z" fill="#AE47DE"/>
</svg>
