<svg width="476" height="240" viewBox="0 0 476 240" fill="none" xmlns="http://www.w3.org/2000/svg">
<path d="M9.61988 155V106H18.8599V126.23H37.0599V106H46.2999V155H37.0599V134.63H18.8599V155H9.61988ZM55.8374 155V120.28H64.6574V155H55.8374ZM60.2474 116.22C58.6607 116.22 57.3074 115.707 56.1874 114.68C55.114 113.653 54.5774 112.3 54.5774 110.62C54.5774 108.94 55.114 107.587 56.1874 106.56C57.3074 105.533 58.6607 105.02 60.2474 105.02C61.8807 105.02 63.234 105.533 64.3074 106.56C65.3807 107.587 65.9174 108.94 65.9174 110.62C65.9174 112.3 65.3807 113.653 64.3074 114.68C63.234 115.707 61.8807 116.22 60.2474 116.22ZM72.7511 137.78V136.66C72.7511 133.02 73.4745 129.917 74.9211 127.35C76.3678 124.737 78.2811 122.753 80.6611 121.4C83.0878 120 85.7245 119.3 88.5711 119.3C91.7445 119.3 94.1478 119.86 95.7811 120.98C97.4145 122.1 98.6045 123.267 99.3511 124.48H100.611V120.28H109.291V161.16C109.291 163.54 108.591 165.43 107.191 166.83C105.791 168.277 103.924 169 101.591 169H78.3511V161.3H98.5111C99.8178 161.3 100.471 160.6 100.471 159.2V150.17H99.2111C98.7445 150.917 98.0911 151.687 97.2511 152.48C96.4111 153.227 95.2911 153.857 93.8911 154.37C92.4911 154.883 90.7178 155.14 88.5711 155.14C85.7245 155.14 83.0878 154.463 80.6611 153.11C78.2811 151.71 76.3678 149.727 74.9211 147.16C73.4745 144.547 72.7511 141.42 72.7511 137.78ZM91.0911 147.44C93.7978 147.44 96.0611 146.577 97.8811 144.85C99.7011 143.123 100.611 140.697 100.611 137.57V136.87C100.611 133.697 99.7011 131.27 97.8811 129.59C96.1078 127.863 93.8445 127 91.0911 127C88.3845 127 86.1211 127.863 84.3011 129.59C82.4811 131.27 81.5711 133.697 81.5711 136.87V137.57C81.5711 140.697 82.4811 143.123 84.3011 144.85C86.1211 146.577 88.3845 147.44 91.0911 147.44ZM119.07 155V106H127.89V124.55H129.15C129.523 123.803 130.106 123.057 130.9 122.31C131.693 121.563 132.743 120.957 134.05 120.49C135.403 119.977 137.106 119.72 139.16 119.72C141.866 119.72 144.223 120.35 146.23 121.61C148.283 122.823 149.87 124.527 150.99 126.72C152.11 128.867 152.67 131.387 152.67 134.28V155H143.85V134.98C143.85 132.367 143.196 130.407 141.89 129.1C140.63 127.793 138.81 127.14 136.43 127.14C133.723 127.14 131.623 128.05 130.13 129.87C128.636 131.643 127.89 134.14 127.89 137.36V155H119.07ZM179.698 155V106H200.978C204.058 106 206.741 106.537 209.028 107.61C211.315 108.683 213.088 110.2 214.348 112.16C215.608 114.12 216.238 116.43 216.238 119.09V119.93C216.238 122.87 215.538 125.25 214.138 127.07C212.738 128.89 211.011 130.22 208.958 131.06V132.32C210.825 132.413 212.271 133.067 213.298 134.28C214.325 135.447 214.838 137.01 214.838 138.97V155H205.598V140.3C205.598 139.18 205.295 138.27 204.688 137.57C204.128 136.87 203.171 136.52 201.818 136.52H188.938V155H179.698ZM188.938 128.12H199.998C202.191 128.12 203.895 127.537 205.108 126.37C206.368 125.157 206.998 123.57 206.998 121.61V120.91C206.998 118.95 206.391 117.387 205.178 116.22C203.965 115.007 202.238 114.4 199.998 114.4H188.938V128.12ZM240.727 155.98C237.273 155.98 234.17 155.28 231.417 153.88C228.663 152.48 226.493 150.45 224.907 147.79C223.32 145.13 222.527 141.933 222.527 138.2V137.08C222.527 133.347 223.32 130.15 224.907 127.49C226.493 124.83 228.663 122.8 231.417 121.4C234.17 120 237.273 119.3 240.727 119.3C244.18 119.3 247.283 120 250.037 121.4C252.79 122.8 254.96 124.83 256.547 127.49C258.133 130.15 258.927 133.347 258.927 137.08V138.2C258.927 141.933 258.133 145.13 256.547 147.79C254.96 150.45 252.79 152.48 250.037 153.88C247.283 155.28 244.18 155.98 240.727 155.98ZM240.727 148.14C243.433 148.14 245.673 147.277 247.447 145.55C249.22 143.777 250.107 141.257 250.107 137.99V137.29C250.107 134.023 249.22 131.527 247.447 129.8C245.72 128.027 243.48 127.14 240.727 127.14C238.02 127.14 235.78 128.027 234.007 129.8C232.233 131.527 231.347 134.023 231.347 137.29V137.99C231.347 141.257 232.233 143.777 234.007 145.55C235.78 147.277 238.02 148.14 240.727 148.14ZM267.068 169V120.28H275.748V124.48H277.008C277.801 123.127 279.038 121.937 280.718 120.91C282.398 119.837 284.801 119.3 287.928 119.3C290.728 119.3 293.318 120 295.698 121.4C298.078 122.753 299.991 124.76 301.438 127.42C302.885 130.08 303.608 133.3 303.608 137.08V138.2C303.608 141.98 302.885 145.2 301.438 147.86C299.991 150.52 298.078 152.55 295.698 153.95C293.318 155.303 290.728 155.98 287.928 155.98C285.828 155.98 284.055 155.723 282.608 155.21C281.208 154.743 280.065 154.137 279.178 153.39C278.338 152.597 277.661 151.803 277.148 151.01H275.888V169H267.068ZM285.268 148.28C288.021 148.28 290.285 147.417 292.058 145.69C293.878 143.917 294.788 141.35 294.788 137.99V137.29C294.788 133.93 293.878 131.387 292.058 129.66C290.238 127.887 287.975 127 285.268 127C282.561 127 280.298 127.887 278.478 129.66C276.658 131.387 275.748 133.93 275.748 137.29V137.99C275.748 141.35 276.658 143.917 278.478 145.69C280.298 147.417 282.561 148.28 285.268 148.28ZM327.527 155.98C324.073 155.98 321.017 155.257 318.357 153.81C315.743 152.317 313.69 150.24 312.197 147.58C310.75 144.873 310.027 141.7 310.027 138.06V137.22C310.027 133.58 310.75 130.43 312.197 127.77C313.643 125.063 315.673 122.987 318.287 121.54C320.9 120.047 323.933 119.3 327.387 119.3C330.793 119.3 333.757 120.07 336.277 121.61C338.797 123.103 340.757 125.203 342.157 127.91C343.557 130.57 344.257 133.673 344.257 137.22V140.23H318.987C319.08 142.61 319.967 144.547 321.647 146.04C323.327 147.533 325.38 148.28 327.807 148.28C330.28 148.28 332.1 147.743 333.267 146.67C334.433 145.597 335.32 144.407 335.927 143.1L343.137 146.88C342.483 148.093 341.527 149.423 340.267 150.87C339.053 152.27 337.42 153.483 335.367 154.51C333.313 155.49 330.7 155.98 327.527 155.98ZM319.057 133.65H335.297C335.11 131.643 334.293 130.033 332.847 128.82C331.447 127.607 329.603 127 327.317 127C324.937 127 323.047 127.607 321.647 128.82C320.247 130.033 319.383 131.643 319.057 133.65ZM366.527 155.98C362 155.98 358.29 155 355.397 153.04C352.504 151.08 350.754 148.28 350.147 144.64L358.267 142.54C358.594 144.173 359.13 145.457 359.877 146.39C360.67 147.323 361.627 148 362.747 148.42C363.914 148.793 365.174 148.98 366.527 148.98C368.58 148.98 370.097 148.63 371.077 147.93C372.057 147.183 372.547 146.273 372.547 145.2C372.547 144.127 372.08 143.31 371.147 142.75C370.214 142.143 368.72 141.653 366.667 141.28L364.707 140.93C362.28 140.463 360.064 139.833 358.057 139.04C356.05 138.2 354.44 137.057 353.227 135.61C352.014 134.163 351.407 132.297 351.407 130.01C351.407 126.557 352.667 123.92 355.187 122.1C357.707 120.233 361.02 119.3 365.127 119.3C369 119.3 372.22 120.163 374.787 121.89C377.354 123.617 379.034 125.88 379.827 128.68L371.637 131.2C371.264 129.427 370.494 128.167 369.327 127.42C368.207 126.673 366.807 126.3 365.127 126.3C363.447 126.3 362.164 126.603 361.277 127.21C360.39 127.77 359.947 128.563 359.947 129.59C359.947 130.71 360.414 131.55 361.347 132.11C362.28 132.623 363.54 133.02 365.127 133.3L367.087 133.65C369.7 134.117 372.057 134.747 374.157 135.54C376.304 136.287 377.984 137.383 379.197 138.83C380.457 140.23 381.087 142.143 381.087 144.57C381.087 148.21 379.757 151.033 377.097 153.04C374.484 155 370.96 155.98 366.527 155.98ZM28.2399 228.98C22.1732 228.98 17.3665 227.3 13.8199 223.94C10.2732 220.533 8.49988 215.68 8.49988 209.38V197.62C8.49988 191.32 10.2732 186.49 13.8199 183.13C17.3665 179.723 22.1732 178.02 28.2399 178.02C34.2599 178.02 38.9032 179.677 42.1699 182.99C45.4832 186.257 47.1399 190.76 47.1399 196.5V196.92H38.0399V196.22C38.0399 193.327 37.2232 190.947 35.5899 189.08C34.0032 187.213 31.5532 186.28 28.2399 186.28C24.9732 186.28 22.4065 187.283 20.5399 189.29C18.6732 191.297 17.7399 194.027 17.7399 197.48V209.52C17.7399 212.927 18.6732 215.657 20.5399 217.71C22.4065 219.717 24.9732 220.72 28.2399 220.72C31.5532 220.72 34.0032 219.787 35.5899 217.92C37.2232 216.007 38.0399 213.627 38.0399 210.78V209.52H47.1399V210.5C47.1399 216.24 45.4832 220.767 42.1699 224.08C38.9032 227.347 34.2599 228.98 28.2399 228.98ZM71.4687 228.98C68.0154 228.98 64.912 228.28 62.1587 226.88C59.4054 225.48 57.2354 223.45 55.6487 220.79C54.062 218.13 53.2687 214.933 53.2687 211.2V210.08C53.2687 206.347 54.062 203.15 55.6487 200.49C57.2354 197.83 59.4054 195.8 62.1587 194.4C64.912 193 68.0154 192.3 71.4687 192.3C74.922 192.3 78.0254 193 80.7787 194.4C83.532 195.8 85.702 197.83 87.2887 200.49C88.8754 203.15 89.6687 206.347 89.6687 210.08V211.2C89.6687 214.933 88.8754 218.13 87.2887 220.79C85.702 223.45 83.532 225.48 80.7787 226.88C78.0254 228.28 74.922 228.98 71.4687 228.98ZM71.4687 221.14C74.1754 221.14 76.4154 220.277 78.1887 218.55C79.962 216.777 80.8487 214.257 80.8487 210.99V210.29C80.8487 207.023 79.962 204.527 78.1887 202.8C76.462 201.027 74.222 200.14 71.4687 200.14C68.762 200.14 66.522 201.027 64.7487 202.8C62.9754 204.527 62.0887 207.023 62.0887 210.29V210.99C62.0887 214.257 62.9754 216.777 64.7487 218.55C66.522 220.277 68.762 221.14 71.4687 221.14ZM111.04 228.56C108.333 228.56 105.953 227.953 103.9 226.74C101.893 225.48 100.33 223.753 99.21 221.56C98.09 219.367 97.53 216.847 97.53 214V193.28H106.35V213.3C106.35 215.913 106.98 217.873 108.24 219.18C109.547 220.487 111.39 221.14 113.77 221.14C116.477 221.14 118.577 220.253 120.07 218.48C121.563 216.66 122.31 214.14 122.31 210.92V193.28H131.13V228H122.45V223.45H121.19C120.63 224.617 119.58 225.76 118.04 226.88C116.5 228 114.167 228.56 111.04 228.56ZM140.945 228V193.28H149.625V197.2H150.885C151.398 195.8 152.238 194.773 153.405 194.12C154.618 193.467 156.018 193.14 157.605 193.14H161.805V200.98H157.465C155.225 200.98 153.381 201.587 151.935 202.8C150.488 203.967 149.765 205.787 149.765 208.26V228H140.945ZM182.298 228.98C177.772 228.98 174.062 228 171.168 226.04C168.275 224.08 166.525 221.28 165.918 217.64L174.038 215.54C174.365 217.173 174.902 218.457 175.648 219.39C176.442 220.323 177.398 221 178.518 221.42C179.685 221.793 180.945 221.98 182.298 221.98C184.352 221.98 185.868 221.63 186.848 220.93C187.828 220.183 188.318 219.273 188.318 218.2C188.318 217.127 187.852 216.31 186.918 215.75C185.985 215.143 184.492 214.653 182.438 214.28L180.478 213.93C178.052 213.463 175.835 212.833 173.828 212.04C171.822 211.2 170.212 210.057 168.998 208.61C167.785 207.163 167.178 205.297 167.178 203.01C167.178 199.557 168.438 196.92 170.958 195.1C173.478 193.233 176.792 192.3 180.898 192.3C184.772 192.3 187.992 193.163 190.558 194.89C193.125 196.617 194.805 198.88 195.598 201.68L187.408 204.2C187.035 202.427 186.265 201.167 185.098 200.42C183.978 199.673 182.578 199.3 180.898 199.3C179.218 199.3 177.935 199.603 177.048 200.21C176.162 200.77 175.718 201.563 175.718 202.59C175.718 203.71 176.185 204.55 177.118 205.11C178.052 205.623 179.312 206.02 180.898 206.3L182.858 206.65C185.472 207.117 187.828 207.747 189.928 208.54C192.075 209.287 193.755 210.383 194.968 211.83C196.228 213.23 196.858 215.143 196.858 217.57C196.858 221.21 195.528 224.033 192.868 226.04C190.255 228 186.732 228.98 182.298 228.98ZM220.407 228.98C216.954 228.98 213.897 228.257 211.237 226.81C208.624 225.317 206.571 223.24 205.077 220.58C203.631 217.873 202.907 214.7 202.907 211.06V210.22C202.907 206.58 203.631 203.43 205.077 200.77C206.524 198.063 208.554 195.987 211.167 194.54C213.781 193.047 216.814 192.3 220.267 192.3C223.674 192.3 226.637 193.07 229.157 194.61C231.677 196.103 233.637 198.203 235.037 200.91C236.437 203.57 237.137 206.673 237.137 210.22V213.23H211.867C211.961 215.61 212.847 217.547 214.527 219.04C216.207 220.533 218.261 221.28 220.687 221.28C223.161 221.28 224.981 220.743 226.147 219.67C227.314 218.597 228.201 217.407 228.807 216.1L236.017 219.88C235.364 221.093 234.407 222.423 233.147 223.87C231.934 225.27 230.301 226.483 228.247 227.51C226.194 228.49 223.581 228.98 220.407 228.98ZM211.937 206.65H228.177C227.991 204.643 227.174 203.033 225.727 201.82C224.327 200.607 222.484 200 220.197 200C217.817 200 215.927 200.607 214.527 201.82C213.127 203.033 212.264 204.643 211.937 206.65Z" fill="#5C3F3F"/>
<path d="M397.918 108.744C398.295 107.58 398.534 106.63 398.919 105.715C402.774 96.464 408.506 88.3825 414.925 80.7693C415.68 79.8794 416.604 79.0507 417.606 78.5247C418.146 78.2396 419.179 78.3599 419.749 78.7211C420.176 78.9981 420.431 79.9819 420.295 80.5178C420.051 81.5418 419.608 82.5769 419.026 83.4786C415.199 89.4358 411.348 95.3666 407.45 101.269C405.985 103.473 404.449 105.648 402.937 107.824C402.441 108.558 401.897 109.264 401.331 109.919C400.71 110.669 399.815 111.079 398.987 110.502C398.444 110.118 397.844 109.829 397.918 108.744Z" fill="#E0640A"/>
<path d="M430.325 147.861C429.154 147.582 427.783 147.34 426.472 146.952C421.3 145.409 416.128 143.865 410.984 142.273C409.868 141.924 408.79 141.38 407.816 140.768C406.509 139.96 406.109 138.916 406.407 137.822C406.705 136.727 407.64 136.097 409.196 136.179C410.258 136.227 411.391 136.33 412.385 136.646C418.905 138.777 425.421 140.958 431.91 143.162C432.637 143.41 433.377 143.808 433.911 144.34C435.259 145.646 434.685 147.515 432.827 147.859C432.1 147.982 431.291 147.853 430.325 147.861Z" fill="#E0640A"/>
<path d="M365.553 76.9902C365.731 75.8378 366.057 74.6956 366.43 73.5813C366.771 72.5888 367.511 71.9209 368.627 71.8982C369.569 71.8885 370.516 72.895 370.58 74.1382C370.664 75.8042 370.722 77.4931 370.534 79.1404C369.971 84.1071 369.307 89.0917 368.621 94.0499C368.384 95.6939 368.049 97.3311 367.665 98.9649C367.527 99.5254 367.289 100.104 366.938 100.526C365.989 101.724 364.417 101.518 363.893 100.119C363.601 99.3307 363.517 98.3834 363.574 97.5448C363.64 94.7741 364.951 81.0623 365.553 76.9902Z" fill="#E0640A"/>
<path d="M56.9817 17.604L61.1516 56.9818L21.7738 61.1517L17.6039 21.7738L56.9817 17.604Z" fill="black"/>
</svg>
