<svg width="205" height="205" viewBox="0 0 205 205" fill="none" xmlns="http://www.w3.org/2000/svg">
<path d="M126.215 43.1445C129.592 39.9605 135.108 42.6964 134.617 47.3119L130.01 90.5885C129.856 92.0396 130.343 93.4858 131.344 94.5476L161.198 126.215C164.382 129.592 161.646 135.108 157.031 134.617L113.754 130.01C112.303 129.856 110.857 130.343 109.795 131.344L78.1279 161.198C74.7505 164.382 69.2348 161.646 69.7261 157.031L74.3325 113.754C74.4869 112.303 73.9998 110.857 72.9987 109.795L43.1445 78.1278C39.9606 74.7505 42.6964 69.2348 47.3119 69.7261L90.5886 74.3325C92.0397 74.4869 93.4858 73.9997 94.5476 72.9987L126.215 43.1445Z" fill="#2EEF92"/>
</svg>
