<svg width="561" height="192" viewBox="0 0 561 192" fill="none" xmlns="http://www.w3.org/2000/svg">
<path d="M28.24 178.98C22.1733 178.98 17.3667 177.3 13.82 173.94C10.2733 170.533 8.5 165.68 8.5 159.38V147.62C8.5 141.32 10.2733 136.49 13.82 133.13C17.3667 129.723 22.1733 128.02 28.24 128.02C34.26 128.02 38.9033 129.677 42.17 132.99C45.4833 136.257 47.14 140.76 47.14 146.5V146.92H38.04V146.22C38.04 143.327 37.2233 140.947 35.59 139.08C34.0033 137.213 31.5533 136.28 28.24 136.28C24.9733 136.28 22.4067 137.283 20.54 139.29C18.6733 141.297 17.74 144.027 17.74 147.48V159.52C17.74 162.927 18.6733 165.657 20.54 167.71C22.4067 169.717 24.9733 170.72 28.24 170.72C31.5533 170.72 34.0033 169.787 35.59 167.92C37.2233 166.007 38.04 163.627 38.04 160.78V159.52H47.14V160.5C47.14 166.24 45.4833 170.767 42.17 174.08C38.9033 177.347 34.26 178.98 28.24 178.98ZM54.9488 178V129H63.7688V178H54.9488ZM73.5426 178V143.28H82.3626V178H73.5426ZM77.9526 139.22C76.3659 139.22 75.0126 138.707 73.8926 137.68C72.8192 136.653 72.2826 135.3 72.2826 133.62C72.2826 131.94 72.8192 130.587 73.8926 129.56C75.0126 128.533 76.3659 128.02 77.9526 128.02C79.5859 128.02 80.9392 128.533 82.0126 129.56C83.0859 130.587 83.6226 131.94 83.6226 133.62C83.6226 135.3 83.0859 136.653 82.0126 137.68C80.9392 138.707 79.5859 139.22 77.9526 139.22ZM92.1363 178V143.28H100.816V147.06H102.076C102.683 145.893 103.686 144.89 105.086 144.05C106.486 143.163 108.33 142.72 110.616 142.72C113.09 142.72 115.073 143.21 116.566 144.19C118.06 145.123 119.203 146.36 119.996 147.9H121.256C122.05 146.407 123.17 145.17 124.616 144.19C126.063 143.21 128.116 142.72 130.776 142.72C132.923 142.72 134.86 143.187 136.586 144.12C138.36 145.007 139.76 146.383 140.786 148.25C141.86 150.07 142.396 152.38 142.396 155.18V178H133.576V155.81C133.576 153.897 133.086 152.473 132.106 151.54C131.126 150.56 129.75 150.07 127.976 150.07C125.97 150.07 124.406 150.723 123.286 152.03C122.213 153.29 121.676 155.11 121.676 157.49V178H112.856V155.81C112.856 153.897 112.366 152.473 111.386 151.54C110.406 150.56 109.03 150.07 107.256 150.07C105.25 150.07 103.686 150.723 102.566 152.03C101.493 153.29 100.956 155.11 100.956 157.49V178H92.1363ZM172.742 178.98C169.616 178.98 167.212 178.443 165.532 177.37C163.852 176.297 162.616 175.107 161.822 173.8H160.562V178H151.882V129H160.702V147.27H161.962C162.476 146.43 163.152 145.637 163.992 144.89C164.879 144.143 166.022 143.537 167.422 143.07C168.869 142.557 170.642 142.3 172.742 142.3C175.542 142.3 178.132 143 180.512 144.4C182.892 145.753 184.806 147.76 186.252 150.42C187.699 153.08 188.422 156.3 188.422 160.08V161.2C188.422 164.98 187.699 168.2 186.252 170.86C184.806 173.52 182.892 175.55 180.512 176.95C178.132 178.303 175.542 178.98 172.742 178.98ZM170.082 171.28C172.789 171.28 175.052 170.417 176.872 168.69C178.692 166.917 179.602 164.35 179.602 160.99V160.29C179.602 156.93 178.692 154.387 176.872 152.66C175.099 150.887 172.836 150 170.082 150C167.376 150 165.112 150.887 163.292 152.66C161.472 154.387 160.562 156.93 160.562 160.29V160.99C160.562 164.35 161.472 166.917 163.292 168.69C165.112 170.417 167.376 171.28 170.082 171.28ZM196.521 178V143.28H205.341V178H196.521ZM200.931 139.22C199.344 139.22 197.991 138.707 196.871 137.68C195.798 136.653 195.261 135.3 195.261 133.62C195.261 131.94 195.798 130.587 196.871 129.56C197.991 128.533 199.344 128.02 200.931 128.02C202.564 128.02 203.918 128.533 204.991 129.56C206.064 130.587 206.601 131.94 206.601 133.62C206.601 135.3 206.064 136.653 204.991 137.68C203.918 138.707 202.564 139.22 200.931 139.22ZM215.115 178V143.28H223.795V147.83H225.055C225.615 146.617 226.665 145.473 228.205 144.4C229.745 143.28 232.078 142.72 235.205 142.72C237.912 142.72 240.268 143.35 242.275 144.61C244.328 145.823 245.915 147.527 247.035 149.72C248.155 151.867 248.715 154.387 248.715 157.28V178H239.895V157.98C239.895 155.367 239.242 153.407 237.935 152.1C236.675 150.793 234.855 150.14 232.475 150.14C229.768 150.14 227.668 151.05 226.175 152.87C224.682 154.643 223.935 157.14 223.935 160.36V178H215.115ZM256.57 160.78V159.66C256.57 156.02 257.293 152.917 258.74 150.35C260.186 147.737 262.1 145.753 264.48 144.4C266.906 143 269.543 142.3 272.39 142.3C275.563 142.3 277.966 142.86 279.6 143.98C281.233 145.1 282.423 146.267 283.17 147.48H284.43V143.28H293.11V184.16C293.11 186.54 292.41 188.43 291.01 189.83C289.61 191.277 287.743 192 285.41 192H262.17V184.3H282.33C283.636 184.3 284.29 183.6 284.29 182.2V173.17H283.03C282.563 173.917 281.91 174.687 281.07 175.48C280.23 176.227 279.11 176.857 277.71 177.37C276.31 177.883 274.536 178.14 272.39 178.14C269.543 178.14 266.906 177.463 264.48 176.11C262.1 174.71 260.186 172.727 258.74 170.16C257.293 167.547 256.57 164.42 256.57 160.78ZM274.91 170.44C277.616 170.44 279.88 169.577 281.7 167.85C283.52 166.123 284.43 163.697 284.43 160.57V159.87C284.43 156.697 283.52 154.27 281.7 152.59C279.926 150.863 277.663 150 274.91 150C272.203 150 269.94 150.863 268.12 152.59C266.3 154.27 265.39 156.697 265.39 159.87V160.57C265.39 163.697 266.3 166.123 268.12 167.85C269.94 169.577 272.203 170.44 274.91 170.44ZM323.892 178L317.452 129H326.622L331.382 171.56H332.642L338.802 129H354.762L360.922 171.56H362.182L366.942 129H376.112L369.672 178H353.712L347.412 134.46H346.152L339.852 178H323.892ZM393.512 178.98C391.039 178.98 388.822 178.56 386.862 177.72C384.902 176.833 383.339 175.573 382.172 173.94C381.052 172.26 380.492 170.23 380.492 167.85C380.492 165.47 381.052 163.487 382.172 161.9C383.339 160.267 384.925 159.053 386.932 158.26C388.985 157.42 391.319 157 393.932 157H403.452V155.04C403.452 153.407 402.939 152.077 401.912 151.05C400.885 149.977 399.252 149.44 397.012 149.44C394.819 149.44 393.185 149.953 392.112 150.98C391.039 151.96 390.339 153.243 390.012 154.83L381.892 152.1C382.452 150.327 383.339 148.717 384.552 147.27C385.812 145.777 387.469 144.587 389.522 143.7C391.622 142.767 394.165 142.3 397.152 142.3C401.725 142.3 405.342 143.443 408.002 145.73C410.662 148.017 411.992 151.33 411.992 155.67V168.62C411.992 170.02 412.645 170.72 413.952 170.72H416.752V178H410.872C409.145 178 407.722 177.58 406.602 176.74C405.482 175.9 404.922 174.78 404.922 173.38V173.31H403.592C403.405 173.87 402.985 174.617 402.332 175.55C401.679 176.437 400.652 177.23 399.252 177.93C397.852 178.63 395.939 178.98 393.512 178.98ZM395.052 171.84C397.525 171.84 399.532 171.163 401.072 169.81C402.659 168.41 403.452 166.567 403.452 164.28V163.58H394.562C392.929 163.58 391.645 163.93 390.712 164.63C389.779 165.33 389.312 166.31 389.312 167.57C389.312 168.83 389.802 169.857 390.782 170.65C391.762 171.443 393.185 171.84 395.052 171.84ZM423.201 178V129H432.021V178H423.201ZM441.795 178V129H450.615V178H441.795Z" fill="#5C3F3F"/>
<path d="M482.918 112.744C483.295 111.58 483.534 110.63 483.919 109.715C487.774 100.464 493.506 92.3825 499.925 84.7693C500.68 83.8794 501.604 83.0507 502.607 82.5247C503.146 82.2396 504.179 82.3599 504.749 82.7211C505.176 82.9981 505.431 83.9819 505.295 84.5178C505.051 85.5418 504.609 86.5769 504.026 87.4786C500.199 93.4358 496.348 99.3666 492.45 105.269C490.986 107.473 489.449 109.648 487.937 111.824C487.441 112.558 486.897 113.264 486.332 113.919C485.71 114.669 484.815 115.079 483.987 114.502C483.444 114.118 482.844 113.829 482.918 112.744Z" fill="#F03838"/>
<path d="M515.324 151.861C514.154 151.582 512.783 151.34 511.472 150.952C506.3 149.409 501.128 147.865 495.983 146.273C494.868 145.924 493.79 145.38 492.816 144.768C491.508 143.96 491.109 142.916 491.407 141.822C491.705 140.727 492.64 140.097 494.196 140.179C495.258 140.227 496.391 140.33 497.385 140.646C503.904 142.777 510.42 144.958 516.91 147.162C517.636 147.41 518.377 147.808 518.911 148.34C520.258 149.646 519.684 151.515 517.827 151.859C517.1 151.982 516.291 151.853 515.324 151.861Z" fill="#F03838"/>
<path d="M450.553 80.9902C450.731 79.8378 451.057 78.6956 451.43 77.5813C451.771 76.5888 452.511 75.9209 453.627 75.8982C454.569 75.8885 455.516 76.895 455.58 78.1382C455.664 79.8042 455.722 81.4931 455.534 83.1404C454.971 88.1071 454.307 93.0917 453.621 98.0499C453.384 99.6939 453.049 101.331 452.665 102.965C452.527 103.525 452.289 104.104 451.938 104.526C450.989 105.724 449.417 105.518 448.893 104.119C448.601 103.331 448.517 102.383 448.574 101.545C448.64 98.7741 449.951 85.0623 450.553 80.9902Z" fill="#F03838"/>
<path d="M56.9819 17.604L49.4326 65.5102L11.7192 35.0192L56.9819 17.604Z" fill="#F9E10C"/>
</svg>
