<svg width="48" height="48" viewBox="0 0 48 48" fill="none" xmlns="http://www.w3.org/2000/svg">
<path d="M25.2329 2.88448C27.9443 -0.882773 33.8791 0.75616 34.273 5.38097L35.1439 15.6049C35.2677 17.0589 36.0206 18.3863 37.205 19.2387L45.5331 25.2328C49.3004 27.9442 47.6615 33.879 43.0366 34.2729L32.8127 35.1437C31.3587 35.2676 30.0314 36.0205 29.1789 37.2049L23.1848 45.533C20.4734 49.3003 14.5386 47.6613 14.1447 43.0365L13.2739 32.8126C13.15 31.3586 12.3971 30.0312 11.2127 29.1788L2.8846 23.1847C-0.882652 20.4733 0.75628 14.5385 5.38109 14.1446L15.605 13.2738C17.059 13.1499 18.3864 12.397 19.2388 11.2126L25.2329 2.88448Z" fill="#2EEF92"/>
</svg>
