<svg width="776" height="236" viewBox="0 0 776 236" fill="none" xmlns="http://www.w3.org/2000/svg">
<path d="M44.22 149V132.13L27.56 100H37.85L48.21 121H49.47L59.83 100H70.12L53.46 132.13V149H44.22ZM85.9493 149.98C82.496 149.98 79.3926 149.28 76.6393 147.88C73.886 146.48 71.716 144.45 70.1293 141.79C68.5426 139.13 67.7493 135.933 67.7493 132.2V131.08C67.7493 127.347 68.5426 124.15 70.1293 121.49C71.716 118.83 73.886 116.8 76.6393 115.4C79.3926 114 82.496 113.3 85.9493 113.3C89.4026 113.3 92.506 114 95.2593 115.4C98.0126 116.8 100.183 118.83 101.769 121.49C103.356 124.15 104.149 127.347 104.149 131.08V132.2C104.149 135.933 103.356 139.13 101.769 141.79C100.183 144.45 98.0126 146.48 95.2593 147.88C92.506 149.28 89.4026 149.98 85.9493 149.98ZM85.9493 142.14C88.656 142.14 90.896 141.277 92.6693 139.55C94.4426 137.777 95.3293 135.257 95.3293 131.99V131.29C95.3293 128.023 94.4426 125.527 92.6693 123.8C90.9426 122.027 88.7026 121.14 85.9493 121.14C83.2426 121.14 81.0026 122.027 79.2293 123.8C77.456 125.527 76.5693 128.023 76.5693 131.29V131.99C76.5693 135.257 77.456 137.777 79.2293 139.55C81.0026 141.277 83.2426 142.14 85.9493 142.14ZM125.521 149.56C122.814 149.56 120.434 148.953 118.381 147.74C116.374 146.48 114.811 144.753 113.691 142.56C112.571 140.367 112.011 137.847 112.011 135V114.28H120.831V134.3C120.831 136.913 121.461 138.873 122.721 140.18C124.027 141.487 125.871 142.14 128.251 142.14C130.957 142.14 133.057 141.253 134.551 139.48C136.044 137.66 136.791 135.14 136.791 131.92V114.28H145.611V149H136.931V144.45H135.671C135.111 145.617 134.061 146.76 132.521 147.88C130.981 149 128.647 149.56 125.521 149.56ZM168.725 149C166.439 149 164.572 148.3 163.125 146.9C161.725 145.453 161.025 143.54 161.025 141.16V121.56H152.345V114.28H161.025V103.5H169.845V114.28H179.365V121.56H169.845V139.62C169.845 141.02 170.499 141.72 171.805 141.72H178.525V149H168.725ZM187.349 149V100H196.169V118.55H197.429C197.803 117.803 198.386 117.057 199.179 116.31C199.973 115.563 201.023 114.957 202.329 114.49C203.683 113.977 205.386 113.72 207.439 113.72C210.146 113.72 212.503 114.35 214.509 115.61C216.563 116.823 218.149 118.527 219.269 120.72C220.389 122.867 220.949 125.387 220.949 128.28V149H212.129V128.98C212.129 126.367 211.476 124.407 210.169 123.1C208.909 121.793 207.089 121.14 204.709 121.14C202.003 121.14 199.903 122.05 198.409 123.87C196.916 125.643 196.169 128.14 196.169 131.36V149H187.349ZM259.807 149C256.914 149 254.371 148.487 252.177 147.46C250.031 146.387 248.351 144.87 247.137 142.91C245.924 140.903 245.317 138.523 245.317 135.77C245.317 133.763 245.667 132.013 246.367 130.52C247.114 129.027 248.117 127.79 249.377 126.81C250.637 125.83 252.037 125.107 253.577 124.64V123.66C251.244 122.96 249.331 121.747 247.837 120.02C246.344 118.293 245.597 116.007 245.597 113.16C245.597 110.313 246.227 107.91 247.487 105.95C248.747 103.99 250.451 102.52 252.597 101.54C254.791 100.513 257.287 100 260.087 100H267.717V107.28H261.697C259.597 107.28 257.847 107.84 256.447 108.96C255.094 110.08 254.417 111.737 254.417 113.93C254.417 115.47 254.744 116.73 255.397 117.71C256.097 118.69 256.984 119.413 258.057 119.88C259.177 120.347 260.391 120.58 261.697 120.58H268.487V114.28H277.307V120.58H283.747V127.86H277.307V149H259.807ZM261.417 141.72H268.487V127.86H261.417C259.364 127.86 257.637 128.443 256.237 129.61C254.837 130.777 254.137 132.503 254.137 134.79C254.137 137.123 254.861 138.873 256.307 140.04C257.801 141.16 259.504 141.72 261.417 141.72ZM325.728 149.98C319.662 149.98 314.855 148.3 311.308 144.94C307.762 141.533 305.988 136.68 305.988 130.38V118.62C305.988 112.32 307.762 107.49 311.308 104.13C314.855 100.723 319.662 99.02 325.728 99.02C331.748 99.02 336.392 100.677 339.658 103.99C342.972 107.257 344.628 111.76 344.628 117.5V117.92H335.528V117.22C335.528 114.327 334.712 111.947 333.078 110.08C331.492 108.213 329.042 107.28 325.728 107.28C322.462 107.28 319.895 108.283 318.028 110.29C316.162 112.297 315.228 115.027 315.228 118.48V130.52C315.228 133.927 316.162 136.657 318.028 138.71C319.895 140.717 322.462 141.72 325.728 141.72C329.042 141.72 331.492 140.787 333.078 138.92C334.712 137.007 335.528 134.627 335.528 131.78V130.52H344.628V131.5C344.628 137.24 342.972 141.767 339.658 145.08C336.392 148.347 331.748 149.98 325.728 149.98ZM368.957 149.98C365.504 149.98 362.4 149.28 359.647 147.88C356.894 146.48 354.724 144.45 353.137 141.79C351.55 139.13 350.757 135.933 350.757 132.2V131.08C350.757 127.347 351.55 124.15 353.137 121.49C354.724 118.83 356.894 116.8 359.647 115.4C362.4 114 365.504 113.3 368.957 113.3C372.41 113.3 375.514 114 378.267 115.4C381.02 116.8 383.19 118.83 384.777 121.49C386.364 124.15 387.157 127.347 387.157 131.08V132.2C387.157 135.933 386.364 139.13 384.777 141.79C383.19 144.45 381.02 146.48 378.267 147.88C375.514 149.28 372.41 149.98 368.957 149.98ZM368.957 142.14C371.664 142.14 373.904 141.277 375.677 139.55C377.45 137.777 378.337 135.257 378.337 131.99V131.29C378.337 128.023 377.45 125.527 375.677 123.8C373.95 122.027 371.71 121.14 368.957 121.14C366.25 121.14 364.01 122.027 362.237 123.8C360.464 125.527 359.577 128.023 359.577 131.29V131.99C359.577 135.257 360.464 137.777 362.237 139.55C364.01 141.277 366.25 142.14 368.957 142.14ZM395.298 149V114.28H403.978V118.06H405.238C405.845 116.893 406.848 115.89 408.248 115.05C409.648 114.163 411.492 113.72 413.778 113.72C416.252 113.72 418.235 114.21 419.728 115.19C421.222 116.123 422.365 117.36 423.158 118.9H424.418C425.212 117.407 426.332 116.17 427.778 115.19C429.225 114.21 431.278 113.72 433.938 113.72C436.085 113.72 438.022 114.187 439.748 115.12C441.522 116.007 442.922 117.383 443.948 119.25C445.022 121.07 445.558 123.38 445.558 126.18V149H436.738V126.81C436.738 124.897 436.248 123.473 435.268 122.54C434.288 121.56 432.912 121.07 431.138 121.07C429.132 121.07 427.568 121.723 426.448 123.03C425.375 124.29 424.838 126.11 424.838 128.49V149H416.018V126.81C416.018 124.897 415.528 123.473 414.548 122.54C413.568 121.56 412.192 121.07 410.418 121.07C408.412 121.07 406.848 121.723 405.728 123.03C404.655 124.29 404.118 126.11 404.118 128.49V149H395.298ZM455.045 149V114.28H463.725V118.06H464.985C465.591 116.893 466.595 115.89 467.995 115.05C469.395 114.163 471.238 113.72 473.525 113.72C475.998 113.72 477.981 114.21 479.475 115.19C480.968 116.123 482.111 117.36 482.905 118.9H484.165C484.958 117.407 486.078 116.17 487.525 115.19C488.971 114.21 491.025 113.72 493.685 113.72C495.831 113.72 497.768 114.187 499.495 115.12C501.268 116.007 502.668 117.383 503.695 119.25C504.768 121.07 505.305 123.38 505.305 126.18V149H496.485V126.81C496.485 124.897 495.995 123.473 495.015 122.54C494.035 121.56 492.658 121.07 490.885 121.07C488.878 121.07 487.315 121.723 486.195 123.03C485.121 124.29 484.585 126.11 484.585 128.49V149H475.765V126.81C475.765 124.897 475.275 123.473 474.295 122.54C473.315 121.56 471.938 121.07 470.165 121.07C468.158 121.07 466.595 121.723 465.475 123.03C464.401 124.29 463.865 126.11 463.865 128.49V149H455.045ZM527.474 149.56C524.767 149.56 522.387 148.953 520.334 147.74C518.327 146.48 516.764 144.753 515.644 142.56C514.524 140.367 513.964 137.847 513.964 135V114.28H522.784V134.3C522.784 136.913 523.414 138.873 524.674 140.18C525.98 141.487 527.824 142.14 530.204 142.14C532.91 142.14 535.01 141.253 536.504 139.48C537.997 137.66 538.744 135.14 538.744 131.92V114.28H547.564V149H538.884V144.45H537.624C537.064 145.617 536.014 146.76 534.474 147.88C532.934 149 530.6 149.56 527.474 149.56ZM557.379 149V114.28H566.059V118.83H567.319C567.879 117.617 568.929 116.473 570.469 115.4C572.009 114.28 574.342 113.72 577.469 113.72C580.175 113.72 582.532 114.35 584.539 115.61C586.592 116.823 588.179 118.527 589.299 120.72C590.419 122.867 590.979 125.387 590.979 128.28V149H582.159V128.98C582.159 126.367 581.505 124.407 580.199 123.1C578.939 121.793 577.119 121.14 574.739 121.14C572.032 121.14 569.932 122.05 568.439 123.87C566.945 125.643 566.199 128.14 566.199 131.36V149H557.379ZM600.513 149V114.28H609.333V149H600.513ZM604.923 110.22C603.337 110.22 601.983 109.707 600.863 108.68C599.79 107.653 599.253 106.3 599.253 104.62C599.253 102.94 599.79 101.587 600.863 100.56C601.983 99.5333 603.337 99.02 604.923 99.02C606.557 99.02 607.91 99.5333 608.983 100.56C610.057 101.587 610.593 102.94 610.593 104.62C610.593 106.3 610.057 107.653 608.983 108.68C607.91 109.707 606.557 110.22 604.923 110.22ZM632.407 149C630.12 149 628.254 148.3 626.807 146.9C625.407 145.453 624.707 143.54 624.707 141.16V121.56H616.027V114.28H624.707V103.5H633.527V114.28H643.047V121.56H633.527V139.62C633.527 141.02 634.18 141.72 635.487 141.72H642.207V149H632.407ZM654.811 163V155.3H673.711C675.018 155.3 675.671 154.6 675.671 153.2V144.45H674.411C674.038 145.243 673.454 146.037 672.661 146.83C671.868 147.623 670.794 148.277 669.441 148.79C668.088 149.303 666.361 149.56 664.261 149.56C661.554 149.56 659.174 148.953 657.121 147.74C655.114 146.48 653.551 144.753 652.431 142.56C651.311 140.367 650.751 137.847 650.751 135V114.28H659.571V134.3C659.571 136.913 660.201 138.873 661.461 140.18C662.768 141.487 664.611 142.14 666.991 142.14C669.698 142.14 671.798 141.253 673.291 139.48C674.784 137.66 675.531 135.14 675.531 131.92V114.28H684.351V155.16C684.351 157.54 683.651 159.43 682.251 160.83C680.851 162.277 678.984 163 676.651 163H654.811ZM31.62 222V173H51.78C54.86 173 57.5667 173.63 59.9 174.89C62.28 176.103 64.1233 177.83 65.43 180.07C66.7833 182.31 67.46 184.97 67.46 188.05V189.03C67.46 192.063 66.76 194.723 65.36 197.01C64.0067 199.25 62.14 201 59.76 202.26C57.4267 203.473 54.7667 204.08 51.78 204.08H40.86V222H31.62ZM40.86 195.68H50.87C53.0633 195.68 54.8367 195.073 56.19 193.86C57.5433 192.647 58.22 190.99 58.22 188.89V188.19C58.22 186.09 57.5433 184.433 56.19 183.22C54.8367 182.007 53.0633 181.4 50.87 181.4H40.86V195.68ZM74.1461 222V187.28H82.8261V191.2H84.0861C84.5994 189.8 85.4394 188.773 86.6061 188.12C87.8194 187.467 89.2194 187.14 90.8061 187.14H95.0061V194.98H90.6661C88.4261 194.98 86.5828 195.587 85.1361 196.8C83.6894 197.967 82.9661 199.787 82.9661 202.26V222H74.1461ZM117.19 222.98C113.736 222.98 110.633 222.28 107.88 220.88C105.126 219.48 102.956 217.45 101.37 214.79C99.7829 212.13 98.9895 208.933 98.9895 205.2V204.08C98.9895 200.347 99.7829 197.15 101.37 194.49C102.956 191.83 105.126 189.8 107.88 188.4C110.633 187 113.736 186.3 117.19 186.3C120.643 186.3 123.746 187 126.5 188.4C129.253 189.8 131.423 191.83 133.01 194.49C134.596 197.15 135.39 200.347 135.39 204.08V205.2C135.39 208.933 134.596 212.13 133.01 214.79C131.423 217.45 129.253 219.48 126.5 220.88C123.746 222.28 120.643 222.98 117.19 222.98ZM117.19 215.14C119.896 215.14 122.136 214.277 123.91 212.55C125.683 210.777 126.57 208.257 126.57 204.99V204.29C126.57 201.023 125.683 198.527 123.91 196.8C122.183 195.027 119.943 194.14 117.19 194.14C114.483 194.14 112.243 195.027 110.47 196.8C108.696 198.527 107.81 201.023 107.81 204.29V204.99C107.81 208.257 108.696 210.777 110.47 212.55C112.243 214.277 114.483 215.14 117.19 215.14ZM141.851 204.78V203.66C141.851 200.02 142.574 196.917 144.021 194.35C145.468 191.737 147.381 189.753 149.761 188.4C152.188 187 154.824 186.3 157.671 186.3C160.844 186.3 163.248 186.86 164.881 187.98C166.514 189.1 167.704 190.267 168.451 191.48H169.711V187.28H178.391V228.16C178.391 230.54 177.691 232.43 176.291 233.83C174.891 235.277 173.024 236 170.691 236H147.451V228.3H167.611C168.918 228.3 169.571 227.6 169.571 226.2V217.17H168.311C167.844 217.917 167.191 218.687 166.351 219.48C165.511 220.227 164.391 220.857 162.991 221.37C161.591 221.883 159.818 222.14 157.671 222.14C154.824 222.14 152.188 221.463 149.761 220.11C147.381 218.71 145.468 216.727 144.021 214.16C142.574 211.547 141.851 208.42 141.851 204.78ZM160.191 214.44C162.898 214.44 165.161 213.577 166.981 211.85C168.801 210.123 169.711 207.697 169.711 204.57V203.87C169.711 200.697 168.801 198.27 166.981 196.59C165.208 194.863 162.944 194 160.191 194C157.484 194 155.221 194.863 153.401 196.59C151.581 198.27 150.671 200.697 150.671 203.87V204.57C150.671 207.697 151.581 210.123 153.401 211.85C155.221 213.577 157.484 214.44 160.191 214.44ZM188.17 222V187.28H196.85V191.2H198.11C198.623 189.8 199.463 188.773 200.63 188.12C201.843 187.467 203.243 187.14 204.83 187.14H209.03V194.98H204.69C202.45 194.98 200.606 195.587 199.16 196.8C197.713 197.967 196.99 199.787 196.99 202.26V222H188.17ZM225.883 222.98C223.41 222.98 221.193 222.56 219.233 221.72C217.273 220.833 215.71 219.573 214.543 217.94C213.423 216.26 212.863 214.23 212.863 211.85C212.863 209.47 213.423 207.487 214.543 205.9C215.71 204.267 217.296 203.053 219.303 202.26C221.356 201.42 223.69 201 226.303 201H235.823V199.04C235.823 197.407 235.31 196.077 234.283 195.05C233.256 193.977 231.623 193.44 229.383 193.44C227.19 193.44 225.556 193.953 224.483 194.98C223.41 195.96 222.71 197.243 222.383 198.83L214.263 196.1C214.823 194.327 215.71 192.717 216.923 191.27C218.183 189.777 219.84 188.587 221.893 187.7C223.993 186.767 226.536 186.3 229.523 186.3C234.096 186.3 237.713 187.443 240.373 189.73C243.033 192.017 244.363 195.33 244.363 199.67V212.62C244.363 214.02 245.016 214.72 246.323 214.72H249.123V222H243.243C241.516 222 240.093 221.58 238.973 220.74C237.853 219.9 237.293 218.78 237.293 217.38V217.31H235.963C235.776 217.87 235.356 218.617 234.703 219.55C234.05 220.437 233.023 221.23 231.623 221.93C230.223 222.63 228.31 222.98 225.883 222.98ZM227.423 215.84C229.896 215.84 231.903 215.163 233.443 213.81C235.03 212.41 235.823 210.567 235.823 208.28V207.58H226.933C225.3 207.58 224.016 207.93 223.083 208.63C222.15 209.33 221.683 210.31 221.683 211.57C221.683 212.83 222.173 213.857 223.153 214.65C224.133 215.443 225.556 215.84 227.423 215.84ZM255.572 222V187.28H264.252V191.06H265.512C266.119 189.893 267.122 188.89 268.522 188.05C269.922 187.163 271.765 186.72 274.052 186.72C276.525 186.72 278.509 187.21 280.002 188.19C281.495 189.123 282.639 190.36 283.432 191.9H284.692C285.485 190.407 286.605 189.17 288.052 188.19C289.499 187.21 291.552 186.72 294.212 186.72C296.359 186.72 298.295 187.187 300.022 188.12C301.795 189.007 303.195 190.383 304.222 192.25C305.295 194.07 305.832 196.38 305.832 199.18V222H297.012V199.81C297.012 197.897 296.522 196.473 295.542 195.54C294.562 194.56 293.185 194.07 291.412 194.07C289.405 194.07 287.842 194.723 286.722 196.03C285.649 197.29 285.112 199.11 285.112 201.49V222H276.292V199.81C276.292 197.897 275.802 196.473 274.822 195.54C273.842 194.56 272.465 194.07 270.692 194.07C268.685 194.07 267.122 194.723 266.002 196.03C264.929 197.29 264.392 199.11 264.392 201.49V222H255.572ZM315.318 222V187.28H323.998V191.06H325.258C325.865 189.893 326.868 188.89 328.268 188.05C329.668 187.163 331.511 186.72 333.798 186.72C336.271 186.72 338.255 187.21 339.748 188.19C341.241 189.123 342.385 190.36 343.178 191.9H344.438C345.231 190.407 346.351 189.17 347.798 188.19C349.245 187.21 351.298 186.72 353.958 186.72C356.105 186.72 358.041 187.187 359.768 188.12C361.541 189.007 362.941 190.383 363.968 192.25C365.041 194.07 365.578 196.38 365.578 199.18V222H356.758V199.81C356.758 197.897 356.268 196.473 355.288 195.54C354.308 194.56 352.931 194.07 351.158 194.07C349.151 194.07 347.588 194.723 346.468 196.03C345.395 197.29 344.858 199.11 344.858 201.49V222H336.038V199.81C336.038 197.897 335.548 196.473 334.568 195.54C333.588 194.56 332.211 194.07 330.438 194.07C328.431 194.07 326.868 194.723 325.748 196.03C324.675 197.29 324.138 199.11 324.138 201.49V222H315.318ZM390.884 222.98C387.431 222.98 384.374 222.257 381.714 220.81C379.101 219.317 377.047 217.24 375.554 214.58C374.107 211.873 373.384 208.7 373.384 205.06V204.22C373.384 200.58 374.107 197.43 375.554 194.77C377.001 192.063 379.031 189.987 381.644 188.54C384.257 187.047 387.291 186.3 390.744 186.3C394.151 186.3 397.114 187.07 399.634 188.61C402.154 190.103 404.114 192.203 405.514 194.91C406.914 197.57 407.614 200.673 407.614 204.22V207.23H382.344C382.437 209.61 383.324 211.547 385.004 213.04C386.684 214.533 388.737 215.28 391.164 215.28C393.637 215.28 395.457 214.743 396.624 213.67C397.791 212.597 398.677 211.407 399.284 210.1L406.494 213.88C405.841 215.093 404.884 216.423 403.624 217.87C402.411 219.27 400.777 220.483 398.724 221.51C396.671 222.49 394.057 222.98 390.884 222.98ZM382.414 200.65H398.654C398.467 198.643 397.651 197.033 396.204 195.82C394.804 194.607 392.961 194 390.674 194C388.294 194 386.404 194.607 385.004 195.82C383.604 197.033 382.741 198.643 382.414 200.65ZM429.884 222.98C425.358 222.98 421.648 222 418.754 220.04C415.861 218.08 414.111 215.28 413.504 211.64L421.624 209.54C421.951 211.173 422.488 212.457 423.234 213.39C424.028 214.323 424.984 215 426.104 215.42C427.271 215.793 428.531 215.98 429.884 215.98C431.938 215.98 433.454 215.63 434.434 214.93C435.414 214.183 435.904 213.273 435.904 212.2C435.904 211.127 435.438 210.31 434.504 209.75C433.571 209.143 432.078 208.653 430.024 208.28L428.064 207.93C425.638 207.463 423.421 206.833 421.414 206.04C419.408 205.2 417.798 204.057 416.584 202.61C415.371 201.163 414.764 199.297 414.764 197.01C414.764 193.557 416.024 190.92 418.544 189.1C421.064 187.233 424.378 186.3 428.484 186.3C432.358 186.3 435.578 187.163 438.144 188.89C440.711 190.617 442.391 192.88 443.184 195.68L434.994 198.2C434.621 196.427 433.851 195.167 432.684 194.42C431.564 193.673 430.164 193.3 428.484 193.3C426.804 193.3 425.521 193.603 424.634 194.21C423.748 194.77 423.304 195.563 423.304 196.59C423.304 197.71 423.771 198.55 424.704 199.11C425.638 199.623 426.898 200.02 428.484 200.3L430.444 200.65C433.058 201.117 435.414 201.747 437.514 202.54C439.661 203.287 441.341 204.383 442.554 205.83C443.814 207.23 444.444 209.143 444.444 211.57C444.444 215.21 443.114 218.033 440.454 220.04C437.841 222 434.318 222.98 429.884 222.98Z" fill="#5C3F3F"/>
<path d="M697.918 95.7439C698.295 94.5803 698.534 93.6303 698.919 92.7151C702.774 83.4643 708.506 75.3828 714.925 67.7695C715.68 66.8797 716.604 66.051 717.607 65.525C718.146 65.2398 719.179 65.3601 719.749 65.7213C720.176 65.9984 720.431 66.9822 720.295 67.518C720.051 68.542 719.609 69.5772 719.026 70.4789C715.199 76.436 711.348 82.3668 707.45 88.2696C705.986 90.4737 704.449 92.648 702.937 94.8241C702.441 95.5582 701.897 96.2643 701.332 96.9194C700.71 97.6697 699.815 98.0791 698.987 97.5021C698.444 97.1179 697.844 96.8291 697.918 95.7439Z" fill="#5C3F3F"/>
<path d="M730.324 134.861C729.154 134.582 727.783 134.34 726.472 133.952C721.3 132.409 716.128 130.865 710.983 129.273C709.868 128.924 708.79 128.38 707.816 127.768C706.508 126.96 706.109 125.916 706.407 124.822C706.705 123.727 707.64 123.097 709.196 123.179C710.258 123.227 711.391 123.33 712.385 123.646C718.904 125.777 725.42 127.958 731.91 130.162C732.636 130.41 733.377 130.808 733.911 131.34C735.258 132.646 734.684 134.515 732.827 134.859C732.1 134.982 731.291 134.853 730.324 134.861Z" fill="#5C3F3F"/>
<path d="M665.553 63.9903C665.731 62.8379 666.057 61.6957 666.43 60.5815C666.771 59.5889 667.511 58.921 668.627 58.8984C669.569 58.8886 670.516 59.8951 670.58 61.1384C670.664 62.8043 670.722 64.4932 670.534 66.1405C669.971 71.1072 669.307 76.0918 668.621 81.05C668.384 82.694 668.049 84.3312 667.665 85.965C667.527 86.5255 667.289 87.1039 666.938 87.5259C665.989 88.7245 664.417 88.5177 663.893 87.119C663.601 86.3308 663.517 85.3835 663.574 84.5449C663.64 81.7743 664.951 68.0624 665.553 63.9903Z" fill="#5C3F3F"/>
<path d="M42.2329 19.8845C44.9443 16.1172 50.8791 17.7562 51.273 22.381L52.1439 32.6049C52.2677 34.0589 53.0206 35.3863 54.205 36.2387L62.5331 42.2328C66.3004 44.9442 64.6615 50.879 60.0366 51.2729L49.8127 52.1437C48.3587 52.2676 47.0314 53.0205 46.1789 54.2049L40.1848 62.533C37.4734 66.3003 31.5386 64.6613 31.1447 60.0365L30.2739 49.8126C30.15 48.3586 29.3971 47.0312 28.2127 46.1788L19.8846 40.1847C16.1173 37.4733 17.7563 31.5385 22.3811 31.1446L32.605 30.2738C34.059 30.1499 35.3864 29.397 36.2388 28.2126L42.2329 19.8845Z" fill="#2EEF92"/>
</svg>
