<svg width="122" height="122" viewBox="0 0 122 122" fill="none" xmlns="http://www.w3.org/2000/svg">
<path d="M85.2149 2.1445C88.5922 -1.03946 94.1079 1.69638 93.6167 6.31187L89.0103 49.5885C88.8558 51.0396 89.343 52.4858 90.344 53.5476L120.198 85.2149C123.382 88.5922 120.646 94.1079 116.031 93.6166L72.7542 89.0102C71.3031 88.8558 69.8569 89.343 68.7951 90.344L37.1279 120.198C33.7505 123.382 28.2348 120.646 28.7261 116.031L33.3325 72.7542C33.4869 71.3031 32.9998 69.8569 31.9987 68.7951L2.14453 37.1278C-1.03943 33.7505 1.69641 28.2348 6.31189 28.7261L49.5886 33.3325C51.0397 33.4869 52.4858 32.9997 53.5476 31.9987L85.2149 2.1445Z" fill="#A62EEF"/>
</svg>
